# Blender 3.3.1
# www.blender.org
o Cylinder
v 0.000000 -0.154498 -0.154498
v 0.000000 0.154498 -0.154498
v 0.030141 -0.154498 -0.151530
v 0.030141 0.154498 -0.151530
v 0.059124 -0.154498 -0.142738
v 0.059124 0.154498 -0.142738
v 0.085835 -0.154498 -0.128461
v 0.085835 0.154498 -0.128461
v 0.109247 -0.154498 -0.109247
v 0.109247 0.154498 -0.109247
v 0.128461 -0.154498 -0.085835
v 0.128461 0.154498 -0.085835
v 0.142738 -0.154498 -0.059124
v 0.142738 0.154498 -0.059124
v 0.151530 -0.154498 -0.030141
v 0.151530 0.154498 -0.030141
v 0.154498 -0.154498 0.000000
v 0.154498 0.154498 0.000000
v 0.151530 -0.154498 0.030141
v 0.151530 0.154498 0.030141
v 0.142738 -0.154498 0.059124
v 0.142738 0.154498 0.059124
v 0.128461 -0.154498 0.085835
v 0.128461 0.154498 0.085835
v 0.109247 -0.154498 0.109247
v 0.109247 0.154498 0.109247
v 0.085835 -0.154498 0.128461
v 0.085835 0.154498 0.128461
v 0.059124 -0.154498 0.142738
v 0.059124 0.154498 0.142738
v 0.030141 -0.154498 0.151530
v 0.030141 0.154498 0.151530
v 0.000000 -0.154498 0.154498
v 0.000000 0.154498 0.154498
v -0.030141 -0.154498 0.151530
v -0.030141 0.154498 0.151530
v -0.059124 -0.154498 0.142738
v -0.059124 0.154498 0.142738
v -0.085835 -0.154498 0.128461
v -0.085835 0.154498 0.128461
v -0.109247 -0.154498 0.109247
v -0.109247 0.154498 0.109247
v -0.128461 -0.154498 0.085835
v -0.128461 0.154498 0.085835
v -0.142738 -0.154498 0.059124
v -0.142738 0.154498 0.059124
v -0.151530 -0.154498 0.030141
v -0.151530 0.154498 0.030141
v -0.154498 -0.154498 0.000000
v -0.154498 0.154498 0.000000
v -0.151530 -0.154498 -0.030141
v -0.151530 0.154498 -0.030141
v -0.142738 -0.154498 -0.059124
v -0.142738 0.154498 -0.059124
v -0.128461 -0.154498 -0.085835
v -0.128461 0.154498 -0.085835
v -0.109247 -0.154498 -0.109247
v -0.109247 0.154498 -0.109247
v -0.085835 -0.154498 -0.128461
v -0.085835 0.154498 -0.128461
v -0.059124 -0.154498 -0.142738
v -0.059124 0.154498 -0.142738
v -0.030141 -0.154498 -0.151530
v -0.030141 0.154498 -0.151530
v -0.076997 0.154498 0.000100
v -0.071136 0.154498 0.029566
v -0.075517 0.154498 0.015122
v -0.075517 0.154498 -0.014921
v -0.054445 0.154498 0.054545
v -0.064021 0.154498 0.042877
v -0.064021 0.154498 -0.042677
v -0.071136 0.154498 -0.029365
v -0.042777 0.154498 0.064121
v -0.042777 0.154498 -0.063920
v -0.015021 0.154498 -0.075417
v 0.015021 0.154498 -0.075417
v 0.000000 0.154498 -0.076897
v -0.029465 0.154498 -0.071036
v -0.054445 0.154498 -0.054345
v -0.029465 0.154498 0.071236
v 0.000000 0.154498 0.077097
v 0.015021 0.154498 0.075618
v -0.015021 0.154498 0.075618
v 0.029465 0.154498 0.071236
v 0.042777 0.154498 -0.063920
v 0.042777 0.154498 0.064121
v 0.029465 0.154498 -0.071036
v 0.064021 0.154498 -0.042677
v 0.064021 0.154498 0.042877
v 0.054445 0.154498 -0.054345
v 0.076997 0.154498 0.000100
v 0.075517 0.154498 -0.014921
v 0.071136 0.154498 0.029566
v 0.075517 0.154498 0.015122
v 0.071136 0.154498 -0.029365
v 0.054445 0.154498 0.054545
v 0.000000 -0.154498 -0.076897
v 0.015021 -0.154498 -0.075417
v 0.042777 -0.154498 0.064121
v 0.029465 -0.154498 0.071236
v 0.042777 -0.154498 -0.063920
v 0.029465 -0.154498 -0.071036
v 0.064021 -0.154498 0.042877
v 0.064021 -0.154498 -0.042677
v 0.076997 -0.154498 0.000100
v 0.075517 -0.154498 -0.014921
v 0.075517 -0.154498 0.015122
v 0.071136 -0.154498 -0.029365
v 0.071136 -0.154498 0.029566
v 0.054445 -0.154498 -0.054345
v 0.054445 -0.154498 0.054545
v -0.076997 -0.154498 0.000100
v -0.071136 -0.154498 0.029566
v -0.075517 -0.154498 0.015122
v -0.075517 -0.154498 -0.014921
v -0.054445 -0.154498 -0.054345
v -0.064021 -0.154498 0.042877
v -0.064021 -0.154498 -0.042677
v -0.054445 -0.154498 0.054545
v -0.071136 -0.154498 -0.029365
v -0.029465 -0.154498 -0.071036
v -0.042777 -0.154498 0.064121
v -0.042777 -0.154498 -0.063920
v -0.015021 -0.154498 0.075618
v 0.015021 -0.154498 0.075618
v 0.000000 -0.154498 0.077097
v -0.029465 -0.154498 0.071236
v -0.015021 -0.154498 -0.075417
v -0.053014 0.154498 0.055720
v -0.070263 0.154498 0.031198
v -0.074980 0.154498 0.016893
v 0.076815 0.154498 -0.001742
v 0.074980 0.154498 -0.016693
v -0.076815 0.154498 0.001943
v 0.070263 0.154498 -0.030998
v 0.053014 0.154498 -0.055519
v -0.055619 0.154498 -0.052914
v -0.031098 0.154498 -0.070163
v -0.016793 0.154498 -0.074880
v -0.001842 0.154498 -0.076715
v 0.055619 0.154498 0.053114
v 0.001842 0.154498 0.076916
v 0.016793 0.154498 0.075080
v 0.031098 0.154498 0.070363
v -0.076815 -0.154498 -0.001742
v -0.074980 -0.154498 -0.016693
v 0.053014 -0.154498 0.055720
v -0.070263 -0.154498 -0.030998
v 0.070263 -0.154498 0.031198
v 0.074980 -0.154498 0.016893
v -0.053014 -0.154498 -0.055519
v 0.076815 -0.154498 0.001943
v 0.001842 -0.154498 -0.076715
v 0.055619 -0.154498 -0.052914
v 0.016793 -0.154498 -0.074880
v 0.031098 -0.154498 -0.070163
v -0.001842 -0.154498 0.076916
v -0.016793 -0.154498 0.075080
v -0.055619 -0.154498 0.053114
v -0.031098 -0.154498 0.070363
v 0.007511 0.000000 -0.076157
v 0.022243 0.000000 -0.073226
v 0.033903 -0.068228 -0.068664
v 0.048611 0.000000 -0.059133
v 0.059233 0.000000 -0.048511
v 0.068764 0.068228 -0.033803
v 0.073327 0.000000 -0.022143
v 0.076256 -0.000320 -0.007422
v 0.076258 -0.000320 0.007599
v 0.073327 0.000000 0.022344
v 0.068764 -0.068228 0.034003
v 0.059233 0.000000 0.048711
v 0.048611 0.000000 0.059333
v 0.033903 0.068228 0.068864
v 0.022243 0.000000 0.073427
v 0.007511 0.000000 0.076357
v -0.007511 0.000000 0.076357
v -0.022243 0.000000 0.073427
v -0.033903 -0.068228 0.068864
v -0.048611 0.000000 0.059333
v -0.059233 0.000000 0.048711
v -0.068764 0.068228 0.034003
v -0.073327 0.000000 0.022344
v -0.076258 0.000320 0.007599
v -0.076256 0.000320 -0.007422
v -0.073327 0.000000 -0.022143
v -0.068764 -0.068228 -0.033803
v -0.059233 0.000000 -0.048511
v -0.048611 0.000000 -0.059133
v -0.033903 0.068228 -0.068664
v -0.022243 0.000000 -0.073226
v -0.007511 0.000000 -0.076157
v -0.077483 0.078843 0.743257
v -0.077483 0.144416 0.743257
v 0.089792 0.078843 0.825317
v 0.089792 0.144416 0.825317
v -0.089391 0.144416 0.125542
v -0.089391 0.078843 0.125542
v 0.089792 0.144416 0.125213
v 0.089792 0.078843 0.125213
v -0.059124 0.078843 0.142738
v -0.030141 0.078843 0.151530
v 0.000000 0.078843 0.154498
v 0.085835 0.078843 0.128461
v 0.030141 0.078843 0.151530
v 0.059124 0.078843 0.142738
v -0.085835 0.078843 0.128461
v -0.085835 0.144416 0.128461
v -0.030141 0.144416 0.151530
v -0.059124 0.144416 0.142738
v 0.059124 0.144416 0.142738
v 0.030141 0.144416 0.151530
v 0.000000 0.144416 0.154498
v 0.085835 0.144416 0.128461
v -0.060640 0.089487 -0.794588
v -0.060640 0.133772 -0.794588
v 0.060640 0.089487 -0.733594
v 0.060640 0.133772 -0.733594
v -0.087649 0.143634 -0.126971
v -0.087649 0.079625 -0.126971
v 0.087444 0.143559 -0.127140
v 0.087444 0.079700 -0.127140
v -0.085835 0.079660 -0.128461
v -0.076196 0.079805 -0.133612
v 0.059124 0.079952 -0.142738
v 0.030141 0.080094 -0.151530
v 0.085835 0.079721 -0.128461
v -0.059124 0.079952 -0.142738
v -0.030141 0.080094 -0.151530
v 0.000000 0.080139 -0.154498
v 0.077492 0.143546 -0.132920
v 0.085835 0.143550 -0.128461
v -0.085835 0.143612 -0.128461
v -0.030141 0.143271 -0.151530
v -0.059124 0.143401 -0.142738
v 0.059124 0.143401 -0.142738
v 0.030141 0.143271 -0.151530
v 0.000000 0.143225 -0.154498
v 0.666181 0.078843 0.068179
v 0.666181 0.144416 0.068179
v 0.770808 0.078843 -0.084736
v 0.770808 0.144416 -0.084736
v 0.123673 0.144416 0.091668
v 0.123673 0.078843 0.091668
v 0.129048 0.144416 -0.084736
v 0.129048 0.078843 -0.084736
v 0.128461 0.078843 0.085835
v 0.142738 0.078843 -0.059124
v 0.151530 0.078843 0.030141
v 0.142738 0.078843 0.059124
v 0.151530 0.078843 -0.030141
v 0.154498 0.078843 0.000000
v 0.128461 0.144416 0.085835
v 0.142738 0.144416 -0.059124
v 0.142738 0.144416 0.059124
v 0.151530 0.144416 0.030141
v 0.151530 0.144416 -0.030141
v 0.154498 0.144416 0.000000
v -0.784704 0.078843 0.094849
v -0.784704 0.144416 0.094849
v -0.684181 0.078843 -0.041654
v -0.684181 0.144416 -0.041654
v -0.121063 0.144416 0.094849
v -0.121063 0.078843 0.094849
v -0.131552 0.144416 -0.080051
v -0.131552 0.078843 -0.080051
v -0.128461 0.078843 0.085835
v -0.142738 0.078843 -0.059124
v -0.142738 0.078843 0.059124
v -0.151530 0.078843 0.030141
v -0.151530 0.078843 -0.030141
v -0.154498 0.078843 -0.000000
v -0.142738 0.144416 0.059124
v -0.128461 0.144416 0.085835
v -0.142738 0.144416 -0.059124
v -0.151530 0.144416 -0.030141
v -0.151530 0.144416 0.030141
v -0.154498 0.144416 -0.000000
vn 0.0980 -0.0000 -0.9952
vn 0.2903 -0.0000 -0.9569
vn 0.4714 -0.0000 -0.8819
vn 0.6344 -0.0000 -0.7730
vn 0.7730 -0.0000 -0.6344
vn 0.8819 -0.0000 -0.4714
vn 0.9569 -0.0000 -0.2903
vn 0.9952 -0.0000 -0.0980
vn 0.9952 -0.0000 0.0980
vn 0.9569 -0.0000 0.2903
vn 0.8819 -0.0000 0.4714
vn 0.7730 -0.0000 0.6344
vn 0.6344 -0.0000 0.7730
vn 0.4714 -0.0000 0.8819
vn 0.2903 -0.0000 0.9569
vn 0.0980 -0.0000 0.9952
vn -0.0980 -0.0000 0.9952
vn -0.2903 -0.0000 0.9569
vn -0.4714 -0.0000 0.8819
vn -0.6344 -0.0000 0.7730
vn -0.7730 -0.0000 0.6344
vn -0.8819 -0.0000 0.4714
vn -0.9569 -0.0000 0.2903
vn -0.9952 -0.0000 0.0980
vn -0.9952 -0.0000 -0.0980
vn -0.9569 -0.0000 -0.2903
vn -0.8819 -0.0000 -0.4714
vn -0.7730 -0.0000 -0.6344
vn -0.6344 -0.0000 -0.7730
vn -0.4714 -0.0000 -0.8819
vn -0.0000 1.0000 -0.0000
vn -0.2903 -0.0000 -0.9569
vn -0.0980 -0.0000 -0.9952
vn -0.0000 -1.0000 -0.0000
vn -0.9998 -0.0000 0.0193
vn 1.0000 -0.0000 -0.0000
vn -0.4404 -0.0000 0.8978
vn -0.9992 -0.0000 -0.0404
vn 0.4493 -0.0000 -0.8934
vn 0.9990 -0.0000 -0.0442
vn 0.0035 -0.9999 -0.0153
vn 0.0035 0.9999 -0.0155
vn 0.0433 -0.0000 0.9991
vn -0.0000 -0.0000 -1.0000
vn 0.8253 -0.0000 0.5647
vn -0.0000 -0.0000 1.0000
vn -0.8052 -0.0000 -0.5930
vn -0.0693 -0.0000 -0.9976
vt 0.473651 0.079556
vt 0.475391 0.164827
vt 0.502821 0.973660
vt 0.473651 0.319988
vt 0.496155 0.978973
vt 0.475391 0.324289
vt 0.458623 0.079556
vt 0.544910 0.174364
vt 0.523034 0.971669
vt 0.458623 0.319988
vt 0.544910 0.327548
vt 0.517346 0.976886
vt 0.535336 0.174364
vt 0.542470 0.965773
vt 0.535336 0.327548
vt 0.537723 0.970705
vt 0.525762 0.174364
vt 0.560383 0.956199
vt 0.525762 0.327548
vt 0.556502 0.960667
vt 0.516188 0.174364
vt 0.576084 0.943314
vt 0.516188 0.327548
vt 0.572962 0.947159
vt 0.506614 0.174364
vt 0.588969 0.927613
vt 0.506614 0.327548
vt 0.586471 0.930699
vt 0.497040 0.174364
vt 0.598543 0.909700
vt 0.497040 0.327548
vt 0.596509 0.911919
vt 0.487466 0.174364
vt 0.604439 0.890264
vt 0.487466 0.327548
vt 0.602690 0.891542
vt 0.477892 0.174364
vt 0.606430 0.870050
vt 0.477892 0.327548
vt 0.604777 0.870351
vt 0.468318 0.174364
vt 0.604439 0.849837
vt 0.468318 0.327548
vt 0.602690 0.849160
vt 0.458744 0.174364
vt 0.542632 0.089263
vt 0.598543 0.830401
vt 0.458744 0.327548
vt 0.542632 0.297485
vt 0.596509 0.828784
vt 0.608882 0.870728
vt 0.529618 0.089263
vt 0.588969 0.812488
vt 0.529618 0.297485
vt 0.605208 0.847975
vt 0.516604 0.089263
vt 0.576084 0.796787
vt 0.516604 0.297485
vt 0.597165 0.826375
vt 0.503591 0.089263
vt 0.560383 0.783902
vt 0.503591 0.297485
vt 0.585063 0.806760
vt 0.490577 0.089263
vt 0.542470 0.774327
vt 0.490577 0.297485
vt 0.569367 0.789883
vt 0.477563 0.089263
vt 0.523034 0.768431
vt 0.538294 0.764374
vt 0.477563 0.297485
vt 0.550680 0.776392
vt 0.464549 0.089263
vt 0.512326 0.761816
vt 0.464549 0.297485
vt 0.529720 0.766805
vt 0.451535 0.089263
vt 0.510487 0.100591
vt 0.486357 0.764374
vt 0.451535 0.297485
vt 0.510487 0.286157
vt 0.507292 0.761493
vt 0.498889 0.100591
vt 0.461387 0.771948
vt 0.498889 0.286157
vt 0.454587 0.769998
vt 0.484259 0.760657
vt 0.487291 0.100591
vt 0.438374 0.784249
vt 0.487291 0.286157
vt 0.435808 0.780036
vt 0.475693 0.100591
vt 0.418203 0.800803
vt 0.475693 0.286157
vt 0.419348 0.793544
vt 0.464096 0.100591
vt 0.491481 0.124300
vt 0.401650 0.820974
vt 0.464096 0.286157
vt 0.491481 0.326428
vt 0.405839 0.810004
vt 0.478848 0.124300
vt 0.389349 0.843986
vt 0.478848 0.326428
vt 0.395802 0.828784
vt 0.466215 0.124300
vt 0.565089 0.164827
vt 0.401202 0.849837
vt 0.381774 0.868957
vt 0.466215 0.326428
vt 0.565089 0.324289
vt 0.389620 0.849160
vt 0.555122 0.164827
vt 0.399211 0.870050
vt 0.555122 0.324289
vt 0.387533 0.870351
vt 0.545156 0.164827
vt 0.401202 0.890264
vt 0.545156 0.324289
vt 0.389620 0.891542
vt 0.535189 0.164827
vt 0.407098 0.909700
vt 0.535189 0.324289
vt 0.395802 0.911919
vt 0.525223 0.164827
vt 0.416672 0.927613
vt 0.525223 0.324289
vt 0.405839 0.930699
vt 0.515256 0.164827
vt 0.429557 0.943314
vt 0.515256 0.324289
vt 0.419348 0.947159
vt 0.505290 0.164827
vt 0.445258 0.956199
vt 0.505290 0.324289
vt 0.435808 0.960667
vt 0.495324 0.164827
vt 0.463171 0.965773
vt 0.454587 0.970705
vt 0.495324 0.324289
vt 0.485357 0.164827
vt 0.482607 0.971669
vt 0.474964 0.976886
vt 0.485357 0.324289
vt 0.442022 0.870281
vt 0.250000 0.938677
vt 0.451635 0.310360
vt 0.446142 0.849565
vt 0.312500 0.938677
vt 0.471123 0.310360
vt 0.443062 0.859720
vt 0.281250 0.938677
vt 0.461379 0.310360
vt 0.443062 0.880842
vt 0.441891 0.310360
vt 0.457877 0.832003
vt 0.490611 0.310360
vt 0.451145 0.840206
vt 0.480867 0.310360
vt 0.451145 0.900356
vt 0.496131 0.299641
vt 0.422403 0.310360
vt 0.446142 0.890997
vt 0.432147 0.310360
vt 0.466080 0.825270
vt 0.500355 0.310360
vt 0.447442 0.329291
vt 0.466080 0.915291
vt 0.470113 0.299641
vt 0.485594 0.923374
vt 0.444096 0.299641
vt 0.506716 0.923374
vt 0.573438 0.316413
vt 0.496155 0.924415
vt 0.590637 0.316413
vt 0.431087 0.299641
vt 0.475439 0.920294
vt 0.062500 0.938677
vt 0.457105 0.299641
vt 0.457877 0.908559
vt 0.125000 0.938677
vt 0.483122 0.299641
vt 0.475439 0.820268
vt 0.487934 0.819450
vt 0.463596 0.329291
vt 0.510590 0.822514
vt 0.495903 0.329291
vt 0.521036 0.827292
vt 0.512056 0.329291
vt 0.499413 0.819866
vt 0.479749 0.329291
vt 0.530349 0.834015
vt 0.562500 0.938677
vt 0.528209 0.329291
vt 0.526230 0.915291
vt 0.539039 0.316413
vt 0.538171 0.842426
vt 0.544363 0.329291
vt 0.516871 0.920294
vt 0.556238 0.316413
vt 0.541166 0.900356
vt 0.504639 0.316413
vt 0.548211 0.862966
vt 0.576670 0.329291
vt 0.656250 0.938677
vt 0.534433 0.908559
vt 0.521839 0.316413
vt 0.550289 0.870281
vt 0.750000 0.938677
vt 0.506759 0.258435
vt 0.549249 0.880842
vt 0.470240 0.316413
vt 0.546168 0.849565
vt 0.550042 0.874306
vt 0.588051 0.310360
vt 0.687500 0.938677
vt 0.549249 0.859720
vt 0.492804 0.258435
vt 0.718750 0.938677
vt 0.546168 0.890997
vt 0.812500 0.938677
vt 0.487440 0.316413
vt 0.544203 0.852202
vt 0.560516 0.329291
vt 0.502820 0.921619
vt 1.000000 0.561323
vt 0.590637 0.108723
vt 0.431087 0.142556
vt 0.512894 0.920627
vt 0.968750 0.561323
vt 0.573438 0.108723
vt 0.531508 0.827050
vt 0.544363 0.134233
vt 0.522581 0.822278
vt 0.528209 0.134233
vt 0.531508 0.912917
vt 0.539039 0.108723
vt 0.522581 0.917688
vt 0.937500 0.561323
vt 0.556238 0.108723
vt 0.545754 0.841296
vt 0.656250 0.561323
vt 0.576670 0.134233
vt 0.545754 0.898670
vt 0.504639 0.108723
vt 0.554456 0.869983
vt 0.750000 0.561323
vt 0.506759 0.089925
vt 0.553464 0.880057
vt 0.470240 0.108723
vt 0.781250 0.561323
vt 0.553464 0.859909
vt 0.718750 0.561323
vt 0.550526 0.889743
vt 0.487440 0.108723
vt 0.550526 0.850223
vt 0.588051 0.192698
vt 0.687500 0.561323
vt 0.539333 0.906495
vt 0.875000 0.561323
vt 0.521839 0.108723
vt 0.539333 0.833471
vt 0.625000 0.561323
vt 0.560516 0.134233
vt 0.451185 0.869983
vt 0.250000 0.561323
vt 0.451635 0.192698
vt 0.451038 0.869452
vt 0.471123 0.192698
vt 0.452177 0.859909
vt 0.447263 0.881897
vt 0.461379 0.192698
vt 0.452177 0.880057
vt 0.218750 0.561323
vt 0.441891 0.192698
vt 0.466309 0.906495
vt 0.125000 0.561323
vt 0.483122 0.142556
vt 0.457168 0.857984
vt 0.480867 0.192698
vt 0.459887 0.898670
vt 0.496131 0.142556
vt 0.465418 0.847931
vt 0.375000 0.561323
vt 0.490611 0.192698
vt 0.455115 0.889743
vt 0.187500 0.561323
vt 0.432147 0.192698
vt 0.483060 0.917688
vt 0.457105 0.142556
vt 0.475471 0.839681
vt 0.447442 0.134233
vt 0.500355 0.192698
vt 0.474133 0.912917
vt 0.470113 0.142556
vt 0.499384 0.829776
vt 0.468750 0.561323
vt 0.479749 0.134233
vt 0.512894 0.819340
vt 0.525267 0.829776
vt 0.512056 0.134233
vt 0.512326 0.828501
vt 0.500000 0.561323
vt 0.495903 0.134233
vt 0.486939 0.833551
vt 0.437500 0.561323
vt 0.463596 0.134233
vt 0.492747 0.920627
vt 0.444096 0.142556
vt 0.458883 0.831177
vt 0.491806 0.310360
vt 0.446756 0.848417
vt 0.472318 0.310360
vt 0.316333 0.938677
vt 0.443440 0.858474
vt 0.462574 0.310360
vt 0.285083 0.938677
vt 0.550161 0.871576
vt 0.455150 0.316413
vt 0.753833 0.938677
vt 0.548871 0.882087
vt 0.472350 0.316413
vt 0.442149 0.868986
vt 0.452830 0.310360
vt 0.253833 0.938677
vt 0.545555 0.892145
vt 0.489549 0.316413
vt 0.816333 0.938677
vt 0.533427 0.909385
vt 0.523948 0.316413
vt 0.457051 0.907553
vt 0.484718 0.299641
vt 0.128833 0.938677
vt 0.474291 0.919680
vt 0.458700 0.299641
vt 0.066333 0.938677
vt 0.484349 0.922997
vt 0.445691 0.299641
vt 0.494860 0.924287
vt 0.432682 0.299641
vt 0.544694 0.853522
vt 0.562497 0.329291
vt 0.511871 0.823100
vt 0.497884 0.329291
vt 0.522178 0.828116
vt 0.514037 0.329291
vt 0.531308 0.835047
vt 0.530191 0.329291
vt 0.566333 0.938677
vt 0.451307 0.871219
vt 0.246167 0.561323
vt 0.450440 0.192698
vt 0.452537 0.881245
vt 0.214917 0.561323
vt 0.440696 0.192698
vt 0.538373 0.832684
vt 0.621167 0.561323
vt 0.558535 0.134233
vt 0.455701 0.890838
vt 0.183667 0.561323
vt 0.507544 0.142556
vt 0.549940 0.849128
vt 0.683667 0.561323
vt 0.553104 0.858721
vt 0.714917 0.561323
vt 0.596600 0.192698
vt 0.467268 0.907283
vt 0.121167 0.561323
vt 0.481527 0.142556
vt 0.554334 0.868748
vt 0.746167 0.561323
vt 0.504056 0.921497
vt 0.996167 0.561323
vt 0.588528 0.108723
vt 0.540120 0.905535
vt 0.871167 0.561323
vt 0.519729 0.108723
vt 0.514082 0.920266
vt 0.964917 0.561323
vt 0.571328 0.108723
vt 0.523676 0.917103
vt 0.933667 0.561323
vt 0.554129 0.108723
vt 0.510738 0.828658
vt 0.496167 0.561323
vt 0.493921 0.134233
vt 0.497858 0.830239
vt 0.464917 0.561323
vt 0.477768 0.134233
vt 0.464406 0.849164
vt 0.371167 0.561323
vt 0.489416 0.192698
vt 0.485533 0.834303
vt 0.433667 0.561323
vt 0.461614 0.134233
vt 0.984375 0.750000
vt 0.582038 0.212568
vt 0.953125 0.750000
vt 0.564838 0.212568
vt 0.927083 0.666678
vt 0.550505 0.166709
vt 0.530439 0.212568
vt 0.859375 0.750000
vt 0.513239 0.212568
vt 0.822917 0.833322
vt 0.493173 0.258427
vt 0.478840 0.212568
vt 0.461654 0.212353
vt 0.765649 0.749609
vt 0.734399 0.749609
vt 0.499793 0.174005
vt 0.592923 0.251529
vt 0.703125 0.750000
vt 0.677083 0.666678
vt 0.568593 0.231762
vt 0.609375 0.750000
vt 0.552440 0.231762
vt 0.572917 0.833322
vt 0.533594 0.274832
vt 0.520133 0.231762
vt 0.503979 0.231762
vt 0.484375 0.750000
vt 0.487826 0.231762
vt 0.453125 0.750000
vt 0.471672 0.231762
vt 0.427083 0.666678
vt 0.458211 0.188692
vt 0.495483 0.251529
vt 0.359375 0.750000
vt 0.485739 0.251529
vt 0.322917 0.833322
vt 0.474371 0.277510
vt 0.296875 0.750000
vt 0.466251 0.251529
vt 0.265601 0.750391
vt 0.456499 0.251651
vt 0.234351 0.750391
vt 0.446755 0.251651
vt 0.203125 0.750000
vt 0.437019 0.251529
vt 0.177083 0.666678
vt 0.504803 0.186413
vt 0.428899 0.225549
vt 0.140625 0.750000
vt 0.489627 0.221099
vt 0.109375 0.750000
vt 0.476618 0.221099
vt 0.072917 0.833322
vt 0.461441 0.255784
vt 0.450600 0.221099
vt 0.437591 0.221099
vt 0.382813 0.439482
vt 0.448249 0.325148
vt 0.125000 0.750000
vt 0.632813 0.439482
vt 0.571283 0.325148
vt 0.004014 0.005021
vt 0.380860 0.683589
vt 0.448249 0.202114
vt 0.375000 0.750000
vt 0.630860 0.683589
vt 0.571283 0.202114
vt 0.362035 0.006723
vt 0.632813 0.681333
vt 0.000759 0.754662
vt 0.401503 0.983686
vt 0.382813 0.681333
vt 0.125000 0.508149
vt 0.401503 0.877578
vt 0.630860 0.440696
vt 0.375848 0.995718
vt 0.599033 0.983686
vt 0.380860 0.440696
vt 0.375000 0.507107
vt 0.599033 0.877578
vt 0.166981 0.514372
vt 0.437500 0.877578
vt 0.207283 0.517496
vt 0.468750 0.877578
vt 0.249326 0.518387
vt 0.500000 0.877578
vt 0.369401 0.508383
vt 0.593750 0.877578
vt 0.291449 0.517085
vt 0.531250 0.877578
vt 0.331988 0.513716
vt 0.562500 0.877578
vt 0.129952 0.509160
vt 0.406250 0.877578
vt 0.009491 0.744598
vt 0.406250 0.983686
vt 0.145489 0.840789
vt 0.468750 0.983686
vt 0.057837 0.777024
vt 0.437500 0.983686
vt 0.330877 0.968001
vt 0.562500 0.983686
vt 0.288411 0.940224
vt 0.531250 0.983686
vt 0.212161 0.883205
vt 0.500000 0.983686
vt 0.360759 0.989073
vt 0.593750 0.983686
vt 0.375000 0.250000
vt 0.375000 0.431653
vt 0.125000 0.500000
vt 0.625000 0.250000
vt 0.625000 0.431653
vt 0.875000 0.500000
vt 0.375000 0.681653
vt 0.375000 0.500000
vt 0.625000 0.681653
vt 0.625000 0.500000
vt 0.625000 0.018378
vt 0.875000 0.731622
vt 0.096172 0.982420
vt 0.375000 0.018378
vt 0.125000 0.731622
vt 0.096172 0.878844
vt 0.625000 0.729858
vt 0.904102 0.982298
vt 0.375000 0.729858
vt 0.904102 0.878966
vt 0.127674 0.731035
vt 0.093750 0.878901
vt 0.141672 0.728973
vt 0.082474 0.879135
vt 0.334382 0.724517
vt 0.937500 0.879373
vt 0.293178 0.721554
vt 0.968750 0.879603
vt 0.372628 0.729414
vt 0.906250 0.879001
vt 0.165914 0.725537
vt 0.062500 0.879373
vt 0.207119 0.722121
vt 0.031250 0.879603
vt 0.250147 0.720763
vt 1.000000 0.879676
vt 0.000000 0.879676
vt 0.639538 0.727995
vt 0.916011 0.982277
vt 0.627374 0.729423
vt 0.906250 0.982284
vt 0.872325 0.731043
vt 0.093750 0.982384
vt 0.792882 0.722190
vt 0.031250 0.981833
vt 0.834083 0.725597
vt 0.062500 0.982043
vt 0.665628 0.724580
vt 0.937500 0.982043
vt 0.706829 0.721625
vt 0.968750 0.981833
vt 0.749857 0.720832
vt 1.000000 0.981757
vt 0.000000 0.981757
vt 0.375000 0.000000
vt 0.409232 0.668874
vt 0.125000 0.750000
vt 0.625000 0.000000
vt 0.606394 0.668874
vt 0.875000 0.750000
vt 0.409232 0.471711
vt 0.375000 0.750000
vt 0.606394 0.471711
vt 0.625000 0.750000
vt 0.625000 0.220187
vt 0.875000 0.529813
vt 0.648463 0.983686
vt 0.375000 0.220187
vt 0.125000 0.529813
vt 0.648463 0.877578
vt 0.625000 0.527349
vt 0.842465 0.983686
vt 0.375000 0.527349
vt 0.842465 0.877578
vt 0.133187 0.531409
vt 0.656250 0.877578
vt 0.337945 0.533467
vt 0.812500 0.877578
vt 0.211279 0.538864
vt 0.718750 0.877578
vt 0.170568 0.536170
vt 0.687500 0.877578
vt 0.296624 0.537470
vt 0.781250 0.877578
vt 0.253856 0.539291
vt 0.750000 0.877578
vt 0.866813 0.531409
vt 0.656250 0.983686
vt 0.662055 0.533467
vt 0.812500 0.983686
vt 0.829432 0.536171
vt 0.687500 0.983686
vt 0.788721 0.538864
vt 0.718750 0.983686
vt 0.703376 0.537471
vt 0.781250 0.983686
vt 0.746144 0.539291
vt 0.750000 0.983686
vt 0.375000 0.250000
vt 0.376953 0.447279
vt 0.125000 0.500000
vt 0.625000 0.250000
vt 0.626953 0.447279
vt 0.875000 0.500000
vt 0.376953 0.697279
vt 0.375000 0.500000
vt 0.626953 0.697279
vt 0.625000 0.500000
vt 0.625000 0.019757
vt 0.875000 0.730243
vt 0.355782 0.983686
vt 0.375000 0.019757
vt 0.125000 0.730243
vt 0.355782 0.877578
vt 0.625000 0.722811
vt 0.163017 0.983686
vt 0.375000 0.722811
vt 0.163017 0.877578
vt 0.138493 0.727127
vt 0.343750 0.877578
vt 0.345583 0.719096
vt 0.187500 0.877578
vt 0.177247 0.721260
vt 0.312500 0.877578
vt 0.218940 0.717427
vt 0.281250 0.877578
vt 0.304844 0.716273
vt 0.218750 0.877578
vt 0.262063 0.715721
vt 0.250000 0.877578
vt 0.822753 0.721260
vt 0.312500 0.983686
vt 0.861507 0.727127
vt 0.343750 0.983686
vt 0.654417 0.719096
vt 0.187500 0.983686
vt 0.695156 0.716273
vt 0.218750 0.983686
vt 0.781060 0.717427
vt 0.281250 0.983686
vt 0.737937 0.715721
vt 0.250000 0.983686
s 0
f 1/1/1 2/4/1 4/10/1 3/7/1
f 3/8/2 4/11/2 6/15/2 5/13/2
f 5/13/3 6/15/3 8/19/3 7/17/3
f 7/17/4 8/19/4 10/23/4 9/21/4
f 9/21/5 10/23/5 12/27/5 11/25/5
f 11/25/6 12/27/6 14/31/6 13/29/6
f 13/29/7 14/31/7 16/35/7 15/33/7
f 15/33/8 16/35/8 18/39/8 17/37/8
f 17/37/9 18/39/9 20/43/9 19/41/9
f 19/41/10 20/43/10 22/48/10 21/45/10
f 21/46/11 22/49/11 24/54/11 23/52/11
f 23/52/12 24/54/12 26/58/12 25/56/12
f 25/56/13 26/58/13 28/62/13 27/60/13
f 27/60/14 28/62/14 30/66/14 29/64/14
f 29/64/15 30/66/15 32/71/15 31/68/15
f 31/68/16 32/71/16 34/75/16 33/73/16
f 33/73/17 34/75/17 36/80/17 35/77/17
f 35/78/18 36/81/18 38/85/18 37/83/18
f 37/83/19 38/85/19 40/90/19 39/88/19
f 39/88/20 40/90/20 42/94/20 41/92/20
f 41/92/21 42/94/21 44/99/21 43/96/21
f 43/97/22 44/100/22 46/104/22 45/102/22
f 45/102/23 46/104/23 48/110/23 47/106/23
f 47/107/24 48/111/24 50/115/24 49/113/24
f 49/113/25 50/115/25 52/119/25 51/117/25
f 51/117/26 52/119/26 54/123/26 53/121/26
f 53/121/27 54/123/27 56/127/27 55/125/27
f 55/125/28 56/127/28 58/131/28 57/129/28
f 57/129/29 58/131/29 60/135/29 59/133/29
f 59/133/30 60/135/30 62/140/30 61/137/30
f 22/50/31 20/44/31 18/40/31 16/36/31 14/32/31 12/28/31 10/24/31 8/20/31 6/16/31 4/12/31 2/5/31 64/143/31 62/139/31 60/136/31 58/132/31 56/128/31 54/124/31 52/120/31 50/116/31 48/112/31 46/105/31 44/101/31 42/95/31 40/91/31 38/86/31 80/183/31 73/165/31 129/310/31 69/156/31 70/158/31 130/312/31 66/148/31 131/315/31 67/151/31 134/323/31 65/145/31 68/154/31 72/163/31 71/160/31 137/331/31 79/180/31 74/168/31 138/334/31 78/177/31 139/337/31 75/170/31 140/339/31 77/174/31 76/172/31 87/199/31 85/195/31 136/329/31 90/206/31 88/201/31 135/326/31 95/220/31 133/321/31 92/211/31 132/318/31 91/208/31 94/217/31 93/213/31
f 80/184/31 38/87/31 36/82/31 34/76/31 32/72/31 30/67/31 28/63/31 26/59/31 24/55/31 22/51/31 93/214/31 89/203/31 141/341/31 96/223/31 86/197/31 144/347/31 84/192/31 143/345/31 82/188/31 142/343/31 81/186/31 83/190/31
f 61/137/32 62/140/32 64/144/32 63/141/32
f 63/141/33 64/144/33 2/6/33 1/2/33
f 114/270/34 47/108/34 49/114/34 51/118/34 53/122/34 55/126/34 57/130/34 59/134/34 61/138/34 63/142/34 1/3/34 3/9/34 5/14/34 7/18/34 9/22/34 11/26/34 13/30/34 15/34/34 17/38/34 19/42/34 21/47/34 23/53/34 25/57/34 27/61/34 29/65/34 31/69/34 125/299/34 100/234/34 99/232/34 147/356/34 111/262/34 103/241/34 149/362/34 109/256/34 150/364/34 107/252/34 152/370/34 105/246/34 106/249/34 108/254/34 104/244/34 154/375/34 110/259/34 101/236/34 156/381/34 102/238/34 155/378/34 98/229/34 153/372/34 97/225/34 128/308/34 121/289/34 123/294/34 151/367/34 116/276/34 118/281/34 148/359/34 120/286/34 146/353/34 115/273/34 145/350/34 112/265/34
f 31/70/34 33/74/34 35/79/34 37/84/34 39/89/34 41/93/34 43/98/34 45/103/34 47/109/34 114/271/34 113/268/34 117/279/34 159/390/34 119/283/34 122/291/34 160/393/34 127/305/34 158/387/34 124/296/34 157/384/34 126/302/34 125/300/34
f 97/226/17 153/373/17 161/396/17
f 153/374/17 98/231/17 76/173/17 161/397/17
f 98/230/18 155/379/18 162/398/18
f 155/380/18 102/240/18 87/200/18 162/399/18
f 102/239/19 156/382/19 163/400/19
f 163/401/19 156/383/19 101/237/19 85/196/19
f 85/196/20 101/237/20 164/402/20 136/330/20
f 90/207/20 136/330/20 164/402/20
f 154/376/21 165/403/21 110/260/21
f 88/202/21 165/404/21 154/377/21 104/245/21
f 135/327/22 88/202/22 104/245/22 166/406/22
f 135/328/22 166/405/22 95/221/22
f 133/322/23 95/222/23 108/255/23 167/407/23
f 133/322/23 167/407/23 92/212/23
f 132/319/24 92/212/24 106/250/24 168/408/24
f 132/320/24 168/409/24 91/209/24
f 152/371/25 169/410/25 105/247/25
f 169/410/25 152/371/25 107/253/25 94/219/25
f 150/365/26 170/413/26 107/253/26
f 93/215/26 170/412/26 150/366/26 109/257/26
f 149/363/27 171/414/27 109/258/27
f 171/414/27 149/363/27 103/242/27 89/205/27
f 141/342/28 89/204/28 103/243/28 172/415/28
f 141/342/28 172/415/28 96/224/28
f 147/357/29 173/416/29 111/263/29
f 86/198/29 173/417/29 147/358/29 99/233/29
f 144/348/30 86/198/30 99/233/30 174/419/30
f 144/349/30 174/418/30 84/193/30
f 143/346/32 84/194/32 100/235/32 175/420/32
f 143/346/32 175/420/32 82/189/32
f 142/344/33 82/189/33 125/301/33 176/421/33
f 142/344/33 176/421/33 81/187/33
f 157/385/1 177/422/1 126/303/1
f 83/191/1 177/423/1 157/386/1 124/298/1
f 158/388/2 178/424/2 124/297/2
f 80/185/2 178/425/2 158/389/2 127/307/2
f 160/394/3 179/426/3 127/306/3
f 179/427/3 160/395/3 122/292/3 73/167/3
f 129/311/4 73/166/4 122/293/4 180/428/4
f 129/311/4 180/428/4 69/157/4
f 119/284/5 159/391/5 181/429/5
f 159/392/5 117/280/5 70/159/5 181/430/5
f 182/432/6 130/313/6 70/159/6 117/280/6
f 66/149/6 130/314/6 182/431/6
f 66/150/7 113/269/7 183/434/7 131/316/7
f 67/152/7 131/317/7 183/433/7
f 184/436/8 134/324/8 67/153/8 114/272/8
f 65/146/8 134/325/8 184/435/8
f 112/266/9 145/351/9 185/437/9
f 145/352/9 115/275/9 68/155/9 185/438/9
f 115/274/10 146/354/10 186/439/10
f 146/355/10 120/288/10 72/164/10 186/440/10
f 120/287/11 148/360/11 187/441/11
f 187/442/11 148/361/11 118/282/11 71/161/11
f 71/161/12 118/282/12 188/445/12 137/332/12
f 79/181/12 137/333/12 188/444/12
f 116/277/13 151/368/13 189/446/13
f 151/369/13 123/295/13 74/169/13 189/447/13
f 190/449/14 138/335/14 74/169/14 123/295/14
f 78/178/14 138/336/14 190/448/14
f 78/179/15 121/290/15 191/450/15 139/338/15
f 75/171/15 139/338/15 191/450/15
f 75/171/16 128/309/16 192/451/16 140/340/16
f 77/176/16 140/340/16 192/451/16
f 77/175/17 97/227/17 161/397/17 76/173/17
f 76/173/18 98/231/18 162/399/18 87/200/18
f 87/200/19 102/240/19 163/401/19 85/196/19
f 110/261/20 90/207/20 164/402/20 101/237/20
f 165/404/21 88/202/21 90/207/21 110/261/21
f 104/245/22 108/255/22 95/222/22 166/406/22
f 167/407/23 108/255/23 106/250/23 92/212/23
f 105/247/24 91/209/24 168/409/24 106/251/24
f 94/218/25 91/210/25 105/248/25 169/411/25
f 170/413/26 93/216/26 94/219/26 107/253/26
f 89/205/27 93/216/27 109/258/27 171/414/27
f 111/264/28 96/224/28 172/415/28 103/243/28
f 173/417/29 86/198/29 96/224/29 111/264/29
f 99/233/30 100/235/30 84/194/30 174/419/30
f 175/420/32 100/235/32 125/301/32 82/189/32
f 176/421/33 125/301/33 126/304/33 81/187/33
f 177/423/1 83/191/1 81/187/1 126/304/1
f 178/425/2 80/185/2 83/191/2 124/298/2
f 73/167/3 80/185/3 127/307/3 179/427/3
f 119/285/4 69/157/4 180/428/4 122/293/4
f 70/159/5 69/157/5 119/285/5 181/430/5
f 113/269/6 66/150/6 182/432/6 117/280/6
f 114/272/7 67/153/7 183/434/7 113/269/7
f 112/267/8 65/147/8 184/436/8 114/272/8
f 68/155/9 65/147/9 112/267/9 185/438/9
f 68/155/10 115/275/10 186/440/10 72/164/10
f 72/164/11 120/288/11 187/443/11 71/162/11
f 116/278/12 79/182/12 188/445/12 118/282/12
f 74/169/13 79/182/13 116/278/13 189/447/13
f 121/290/14 78/179/14 190/449/14 123/295/14
f 128/309/15 75/171/15 191/450/15 121/290/15
f 97/228/16 77/176/16 192/451/16 128/309/16
f 193/452/35 194/455/35 197/464/35 198/467/35
f 196/461/36 195/458/36 200/473/36 199/470/36
f 195/459/37 196/462/37 194/456/37 193/453/37
f 195/460/34 193/454/34 198/468/34 207/488/34 201/476/34 202/478/34 203/480/34 205/484/34 206/486/34 204/482/34 200/474/34
f 208/490/31 197/465/31 194/457/31 196/463/31 199/471/31 214/502/31 211/496/31 212/498/31 213/500/31 209/492/31 210/494/31
f 199/472/29 200/475/29 204/483/29 214/503/29
f 204/483/30 206/487/30 211/497/30 214/503/30
f 206/487/32 205/485/32 212/499/32 211/497/32
f 205/485/33 203/481/33 213/501/33 212/499/33
f 203/481/1 202/479/1 209/493/1 213/501/1
f 202/479/2 201/477/2 210/495/2 209/493/2
f 201/477/3 207/489/3 208/491/3 210/495/3
f 197/466/4 208/491/4 207/489/4 198/469/4
f 219/514/38 216/507/38 215/504/38 220/517/38
f 215/505/39 216/508/39 218/512/39 217/510/39
f 222/522/40 217/511/40 218/513/40 221/520/40
f 220/518/41 215/506/41 217/511/41 222/522/41 227/532/41 225/528/41 226/530/41 230/538/41 229/536/41 228/534/41 224/526/41 223/524/41
f 232/543/42 221/520/42 218/513/42 216/509/42 219/515/42 233/545/42 235/549/42 234/547/42 238/555/42 237/553/42 236/551/42 231/541/42
f 238/556/17 230/539/17 226/531/17 237/554/17
f 237/554/18 226/531/18 225/529/18 236/552/18
f 236/552/19 225/529/19 227/533/19 232/544/19 231/542/19
f 222/523/20 221/521/20 232/544/20 227/533/20
f 219/516/13 220/519/13 223/525/13 233/546/13
f 233/546/14 223/525/14 224/527/14 228/535/14 235/550/14
f 235/550/15 228/535/15 229/537/15 234/548/15
f 234/548/16 229/537/16 230/540/16 238/557/16
f 239/558/43 240/561/43 243/568/43 244/571/43
f 242/567/44 241/565/44 246/576/44 245/574/44
f 241/564/45 242/566/45 240/562/45 239/559/45
f 241/565/34 239/560/34 244/572/34 247/578/34 250/584/34 249/582/34 252/588/34 251/586/34 248/580/34 246/576/34
f 253/590/31 243/569/31 240/563/31 242/567/31 245/574/31 254/592/31 257/598/31 258/600/31 256/596/31 255/594/31
f 246/577/22 248/581/22 254/593/22 245/575/22
f 248/581/23 251/587/23 257/599/23 254/593/23
f 251/587/24 252/589/24 258/601/24 257/599/24
f 252/589/25 249/583/25 256/597/25 258/601/25
f 249/583/26 250/585/26 255/595/26 256/597/26
f 250/585/27 247/579/27 253/591/27 255/595/27
f 243/570/28 253/591/28 247/579/28 244/573/28
f 263/612/46 260/605/46 259/602/46 264/615/46
f 259/603/47 260/606/47 262/610/47 261/608/47
f 261/609/48 262/611/48 265/618/48 266/620/48
f 259/604/34 261/609/34 266/620/34 268/624/34 271/630/34 272/632/34 270/628/34 269/626/34 267/622/34 264/616/34
f 265/618/31 262/611/31 260/607/31 263/613/31 274/636/31 273/634/31 277/642/31 278/644/31 276/640/31 275/638/31
f 263/614/5 264/617/5 267/623/5 274/637/5
f 274/637/6 267/623/6 269/627/6 273/635/6
f 273/635/7 269/627/7 270/629/7 277/643/7
f 277/643/8 270/629/8 272/633/8 278/645/8
f 278/645/9 272/633/9 271/631/9 276/641/9
f 276/641/10 271/631/10 268/625/10 275/639/10
f 266/621/11 265/619/11 275/639/11 268/625/11
