# Blender v3.3.1 OBJ File: ''
# www.blender.org
v 10.874915 54.695827 16.943750
v 10.874915 0.127304 16.943750
v -10.185519 54.695827 16.993139
v -10.185519 0.127304 16.993139
v 10.795236 54.695827 -17.034384
v 10.795236 0.127304 -17.034384
v -10.265199 54.695827 -16.984995
v -10.265199 0.127304 -16.984995
vt 0.995630 0.996657
vt 0.002961 0.998564
vt -0.005532 0.000486
vt 1.001292 0.004301
vt 0.995630 0.996178
vt 0.002961 0.999993
vt -0.008363 0.000008
vt 0.998461 -0.001900
vt 1.000581 0.998564
vt 0.002250 0.996657
vt -0.003412 0.004301
vt 1.000581 -0.003328
vt 1.009074 0.998085
vt 0.005081 0.998085
vt -0.000581 0.000008
vt 1.003412 -0.001900
vt 0.005792 0.013532
vt 0.005792 0.075814
vt 0.061439 0.073906
vt 0.058608 0.013532
vt 0.672458 0.167060
vt 0.672458 0.383818
vt 0.994209 0.383818
vt 0.994209 0.167060
vn 0.0023 0.0000 1.0000
vn -1.0000 0.0000 0.0023
vn -0.0023 0.0000 -1.0000
vn 1.0000 0.0000 -0.0023
vn 0.0000 1.0000 0.0000
vn 0.0000 -1.0000 0.0000
usemtl Material.005
s off
f 1/1/1 3/2/1 4/3/1 2/4/1
f 3/5/2 7/6/2 8/7/2 4/8/2
f 7/9/3 5/10/3 6/11/3 8/12/3
f 5/13/4 1/14/4 2/15/4 6/16/4
f 3/17/5 1/18/5 5/19/5 7/20/5
f 8/21/6 6/22/6 2/23/6 4/24/6
