# Blender 3.3.1
# www.blender.org
o Cube.014
v 10.082111 -2.624562 0.461648
v 10.082111 2.624562 0.461648
v 10.082111 2.624562 -0.461648
v 10.082111 -2.624562 -0.461648
v -10.082111 2.624562 -0.461648
v -10.082111 -2.624562 -0.461648
v -10.082111 2.624562 0.461648
v -10.082111 -2.624562 0.461648
vn 1.0000 -0.0000 -0.0000
vn -0.0000 -0.0000 -1.0000
vn -1.0000 -0.0000 -0.0000
vn -0.0000 -0.0000 1.0000
vn -0.0000 -1.0000 -0.0000
vn -0.0000 1.0000 -0.0000
vt 0.189254 -0.003906
vt 0.000436 -0.003780
vt 0.566426 1.000000
vt 0.189254 0.256413
vt 0.000502 0.256868
vt 0.135909 0.018933
vt 0.143465 0.256413
vt 0.002049 -0.003716
vt 0.122333 0.018933
vt 0.143465 -0.003906
vt -0.000754 0.256588
vt 0.520638 1.000000
vt 0.259366 0.000763
vt 0.384076 0.264515
vt 0.136030 0.266115
vt 0.256563 0.261066
vt 0.384076 0.004196
vt 0.520638 0.000000
vt 0.338287 0.264515
vt 0.373203 0.253211
vt 0.149606 0.266115
vt 0.338287 0.004196
vt 0.373624 -0.007104
vt 0.566426 0.000000
s 1
f 1/1/1 4/10/1 3/7/1 2/4/1
f 4/11/2 6/16/2 5/13/2 3/8/2
f 6/17/3 8/22/3 7/19/3 5/14/3
f 8/23/4 1/2/4 2/5/4 7/20/4
f 4/12/5 1/3/5 8/24/5 6/18/5
f 5/15/6 7/21/6 2/6/6 3/9/6
