# Blender v2.71 (sub 0) OBJ File: ''
# www.blender.org

# Vertices
v 0.500000 0.500000 -0.500000
v 0.500000 -0.500000 -0.500000
v -0.500000 -0.500000 -0.500000
v -0.500000 0.500000 -0.500000
v 0.500000 0.500000 0.500000
v 0.500000 -0.500000 0.500000
v -0.500000 -0.500000 0.500000
v -0.500000 0.500000 0.500000

# Texture Coordinates (UVs)
vt 1.0 1.0
vt 1.0 0.0
vt 0.0 0.0
vt 0.0 1.0

# Normals
vn 0.000000 0.000000 -1.000000
vn 0.000000 0.000000 1.000000
vn 1.000000 -0.000000 -0.000000
vn -0.000000 -1.000000 -0.000000
vn -1.000000 0.000000 -0.000000
vn 0.000000 1.000000 0.000000

s off

# Faces (using same 4 UVs for each quad face)
f 2/1/1 3/2/1 4/3/1
f 8/1/2 7/2/2 6/3/2
f 1/1/3 5/2/3 6/3/3
f 2/1/4 6/2/4 7/3/4
f 7/1/5 8/2/5 4/3/5
f 1/1/6 4/2/6 8/3/6

f 1/1/1 2/2/1 4/3/1
f 5/1/2 8/2/2 6/3/2
f 2/1/3 1/2/3 6/3/3
f 3/1/4 2/2/4 7/3/4
f 3/1/5 7/2/5 4/3/5
f 5/1/6 1/2/6 8/3/6

