# Blender 3.3.1
# www.blender.org
o Cylinder.048
v 0.000000 -1.715509 -1.873013
v 0.000000 1.715509 -1.873013
v 1.386119 -1.715509 -1.324420
v 1.386119 1.715509 -1.324420
v 1.960268 -1.715509 -0.000000
v 1.960268 1.715509 0.000000
v 1.386119 -1.715509 1.324420
v 1.386119 1.715509 1.324420
v 0.000000 -1.715509 1.873013
v 0.000000 1.715509 1.873013
v -1.386119 -1.715509 1.324420
v -1.386119 1.715509 1.324420
v -1.960268 -1.715509 -0.000000
v -1.960268 1.715509 0.000000
v -1.386119 -1.715509 -1.324420
v -1.386119 1.715509 -1.324420
v 0.000000 -1.715509 -1.480284
v 0.000000 1.715509 -1.480284
v 1.095481 -1.715509 -1.046719
v 1.095481 1.715509 -1.046719
v 1.549244 -1.715509 -0.000000
v 1.549244 1.715509 0.000000
v 1.095481 -1.715509 1.046719
v 1.095481 1.715509 1.046719
v 0.000000 -1.715509 1.480284
v 0.000000 1.715509 1.480284
v -1.095481 -1.715509 1.046719
v -1.095481 1.715509 1.046719
v -1.549244 -1.715509 -0.000000
v -1.549244 1.715509 0.000000
v -1.095481 -1.715509 -1.046719
v -1.095481 1.715509 -1.046719
vn 0.3680 -0.0000 -0.9298
vn 0.9175 -0.0000 -0.3977
vn 0.9175 -0.0000 0.3977
vn 0.3680 -0.0000 0.9298
vn -0.3680 -0.0000 0.9298
vn -0.9175 -0.0000 0.3977
vn -0.9175 -0.0000 -0.3977
vn -0.3680 -0.0000 -0.9298
vn -0.0000 -1.0000 -0.0000
vn -0.0000 1.0000 -0.0000
vt 1.000000 0.000000
vt 0.000000 0.000000
vt 1.000000 1.000000
vt 0.000000 1.000000
vt 0.875000 0.000000
vt 0.875000 1.000000
vt 0.750000 0.000000
vt 0.750000 1.000000
vt 0.625000 0.000000
vt 0.625000 1.000000
vt 0.500000 0.000000
vt 0.500000 1.000000
vt 0.375000 0.000000
vt 0.375000 1.000000
vt 0.250000 0.000000
vt 0.250000 1.000000
vt 0.125000 0.000000
vt 0.125000 1.000000
vt 1.000000 0.000000
vt 0.000000 0.000000
vt 1.000000 1.000000
vt 0.000000 1.000000
vt 0.875000 0.000000
vt 0.875000 1.000000
vt 0.750000 0.000000
vt 0.750000 1.000000
vt 0.625000 0.000000
vt 0.625000 1.000000
vt 0.500000 0.000000
vt 0.500000 1.000000
vt 0.375000 0.000000
vt 0.375000 1.000000
vt 0.250000 0.000000
vt 0.250000 1.000000
vt 0.125000 0.000000
vt 0.125000 1.000000
s 0
f 1/1/1 2/3/1 4/6/1 3/5/1
f 3/5/2 4/6/2 6/8/2 5/7/2
f 5/7/3 6/8/3 8/10/3 7/9/3
f 7/9/4 8/10/4 10/12/4 9/11/4
f 9/11/5 10/12/5 12/14/5 11/13/5
f 11/13/6 12/14/6 14/16/6 13/15/6
f 13/15/7 14/16/7 16/18/7 15/17/7
f 15/17/8 16/18/8 2/4/8 1/2/8
f 17/19/5 19/23/5 20/24/5 18/21/5
f 19/23/6 21/25/6 22/26/6 20/24/6
f 21/25/7 23/27/7 24/28/7 22/26/7
f 23/27/8 25/29/8 26/30/8 24/28/8
f 25/29/1 27/31/1 28/32/1 26/30/1
f 27/31/2 29/33/2 30/34/2 28/32/2
f 29/33/3 31/35/3 32/36/3 30/34/3
f 31/35/4 17/20/4 18/22/4 32/36/4
f 1/1/9 3/5/9 19/23/9 17/19/9
f 4/6/10 2/3/10 18/21/10 20/24/10
f 3/5/9 5/7/9 21/25/9 19/23/9
f 6/8/10 4/6/10 20/24/10 22/26/10
f 5/7/9 7/9/9 23/27/9 21/25/9
f 8/10/10 6/8/10 22/26/10 24/28/10
f 7/9/9 9/11/9 25/29/9 23/27/9
f 10/12/10 8/10/10 24/28/10 26/30/10
f 9/11/9 11/13/9 27/31/9 25/29/9
f 12/14/10 10/12/10 26/30/10 28/32/10
f 11/13/9 13/15/9 29/33/9 27/31/9
f 14/16/10 12/14/10 28/32/10 30/34/10
f 13/15/9 15/17/9 31/35/9 29/33/9
f 16/18/10 14/16/10 30/34/10 32/36/10
f 15/17/9 1/2/9 17/20/9 31/35/9
f 2/4/10 16/18/10 32/36/10 18/22/10
