# Blender 3.3.1
# www.blender.org
o Cube.045
v -1.800122 -1.098062 1.922660
v -1.800122 0.681226 1.922660
v -1.800122 -1.098061 -1.922660
v -1.800122 0.681227 -1.922660
v 1.800122 -1.098062 1.922660
v 1.800122 0.681226 1.922660
v 1.800122 -1.098061 -1.922660
v 1.800122 0.681227 -1.922660
v -1.524715 -1.106399 2.307787
v -1.524715 1.028129 2.307787
v -1.524715 -1.106398 -2.307787
v -1.524715 1.028130 -2.307787
v 1.580097 -1.106399 2.307787
v 1.580097 1.028129 2.307787
v 1.580097 -1.106398 -2.307787
v 1.580097 1.028130 -2.307787
v -0.835558 -1.098062 2.613716
v -0.835558 0.681226 2.613716
v -0.835558 -1.098061 -2.574494
v -0.835558 0.681227 -2.574494
v 0.745213 -1.098062 2.613716
v 0.745213 0.681226 2.613716
v 0.745213 -1.098061 -2.574494
v 0.745213 0.681227 -2.574494
v -1.734512 0.998919 0.051155
v -1.734512 3.082652 0.018376
v -1.734512 0.998919 -2.311799
v -1.734512 2.333207 -2.319478
v 1.789895 0.998919 0.051155
v 1.789894 3.082652 0.018376
v 1.789895 0.998919 -2.336347
v 1.789894 2.333207 -2.319478
v -1.734512 3.243699 -0.033251
v -1.734512 2.494254 -2.371104
v 1.789894 2.494254 -2.371104
v 1.789894 3.243699 -0.033251
v -1.950589 3.082652 0.018376
v -1.950589 2.333207 -2.319478
v -1.950589 3.243699 -0.033251
v -1.950589 2.494254 -2.371104
v -1.734512 2.333207 -2.319478
v 1.789894 2.333207 -2.319478
v -1.734512 2.494254 -2.371104
v 1.789894 2.494254 -2.371104
v -1.950589 3.082652 0.018376
v -1.950589 2.333207 -2.319478
v -1.950589 3.243699 -0.033251
v -1.950589 2.494254 -2.371104
v -1.734512 2.333207 -2.319478
v 1.789894 2.333207 -2.319478
v -1.734512 2.494254 -2.371104
v 1.789894 2.494254 -2.371104
v -1.950589 2.494254 -2.371104
v -1.950589 2.333207 -2.319478
v 1.980723 2.333207 -2.319478
v 1.980723 3.082652 0.018376
v 1.980723 2.494254 -2.371104
v 1.980723 3.243699 -0.033251
v 1.789894 2.434242 -2.558309
v 1.789894 2.273195 -2.506681
v -1.734512 2.273195 -2.506681
v 1.789894 2.273195 -2.506681
v -1.734512 2.434242 -2.558309
v 1.789894 2.434242 -2.558309
v -1.950589 2.434242 -2.558309
v -1.950589 2.273195 -2.506681
v 1.980723 2.434242 -2.558309
v 1.980723 2.273195 -2.506681
v 1.789894 3.142311 0.204477
v -1.734512 3.142311 0.204477
v 1.789894 3.303358 0.152850
v -1.734512 3.303358 0.152850
v -1.950589 3.142311 0.204477
v -1.950589 3.303358 0.152850
v 1.980723 3.142311 0.204477
v 1.980723 3.303358 0.152850
v -1.869987 1.021595 2.466109
v -1.871892 1.868890 2.438488
v -1.784318 1.021596 0.018834
v -1.871892 2.632367 0.023768
v 1.927057 1.021595 2.458285
v 1.927275 1.868890 2.438488
v 1.839701 1.021596 0.042498
v 1.927275 2.632367 0.023768
v -1.871892 1.990743 2.477015
v -1.871892 2.754220 0.062295
v 1.927275 2.754220 0.062295
v 1.927275 1.990743 2.477015
v -2.031836 1.868890 2.438488
v -2.031836 2.632367 0.023768
v -2.031836 1.990743 2.477015
v -2.031836 2.754220 0.062295
v 1.927275 1.804873 2.640960
v -1.871892 1.804873 2.640960
v 1.927275 1.926727 2.679487
v -1.871892 1.926727 2.679487
v -2.031836 1.804873 2.640960
v -2.031836 1.926727 2.679487
v 2.064899 2.632367 0.023768
v 2.064899 1.868890 2.438488
v 2.064899 2.754220 0.062295
v 2.064899 1.990743 2.477015
v 2.064899 1.804873 2.640960
v 2.064899 1.926727 2.679487
v 2.064899 2.632367 0.023768
v 2.064899 1.868890 2.438488
v 2.064899 2.754220 0.062295
v 2.064899 1.990743 2.477015
v 2.064899 1.804873 2.640960
v 2.064899 1.926727 2.679487
v -1.800122 -1.098062 1.922660
v -1.800122 0.681226 1.922660
v -1.800122 -1.098061 -1.922660
v -1.800122 0.681227 -1.922660
v 1.800122 -1.098062 1.922660
v 1.800122 0.681226 1.922660
v 1.800122 -1.098061 -1.922660
v 1.800122 0.681227 -1.922660
v -1.800122 -1.098061 -1.922660
v -1.800122 -1.098062 1.922660
v -1.800122 0.681226 1.922660
v -1.800122 0.681227 -1.922660
v -1.701560 -1.098061 -1.922660
v -1.701560 -1.098062 1.922660
v -1.701560 0.681226 1.922660
v -1.701560 0.681227 -1.922660
v 1.585925 0.681227 -1.922660
v 1.585925 -1.098061 -1.922660
v 1.585925 -1.098062 1.922660
v 1.585925 0.681226 1.922660
v -1.800122 0.557975 1.922660
v -1.800122 0.557976 -1.922660
v 1.800122 0.557976 -1.922660
v 1.800122 0.557975 1.922660
v -1.800122 0.681226 1.922660
v -1.800122 0.681227 -1.922660
v -1.800122 0.557975 1.922660
v -1.800122 0.557976 -1.922660
v -1.699205 0.681226 1.922660
v -1.699205 0.681227 -1.922660
v -1.699205 0.557975 1.922660
v -1.699205 0.557976 -1.922660
v -1.800122 -1.098062 1.922660
v -1.800122 0.681226 1.922660
v 1.800122 0.681226 1.922660
v 1.800122 -1.098062 1.922660
v -1.701560 0.681226 1.922660
v -1.701560 0.681227 -1.922660
v -1.800122 0.681226 1.922660
v -1.800122 0.681227 -1.922660
vn -0.0000 -0.0000 -0.0000
vn -0.0000 -0.0000 -1.0000
vn 1.0000 -0.0000 -0.0000
vn -0.0000 -0.0000 1.0000
vn -0.0000 -1.0000 -0.0000
vn -1.0000 -0.0000 -0.0000
vn -0.0000 1.0000 -0.0000
vn -0.0035 0.0034 -1.0000
vn -0.0000 0.0157 0.9999
vn -0.0000 0.9523 -0.3053
vn -0.0000 -0.9523 0.3053
vn -0.0000 0.9880 0.1545
vn -0.0000 0.9880 -0.1545
vn -0.0000 0.8079 -0.5894
vn -0.0000 0.8079 0.5894
vn -0.0000 -0.3053 -0.9523
vn -0.0000 0.3053 0.9523
vn -0.9991 -0.0366 -0.0233
vn 0.0032 -0.0043 -1.0000
vn 0.9991 -0.0361 -0.0238
vn 0.0010 0.0280 0.9996
vn -0.0000 -0.9535 -0.3015
vn -0.0000 0.9535 0.3015
vn -0.0000 0.3015 -0.9535
vn -0.0000 -0.3015 0.9535
vn -0.0000 0.9883 0.1525
vn -0.0000 0.9883 -0.1525
vn -0.0000 0.8067 0.5910
vn -0.0000 0.8067 -0.5910
vt 0.514695 0.012116
vt 0.343675 0.137001
vt 0.513977 0.474168
vt 0.000000 0.000000
vt 0.512566 0.474168
vt 0.546809 0.002713
vt 0.343675 0.000000
vt 0.547454 0.485949
vt 0.672638 0.630497
vt 0.000000 0.000000
vt 0.503665 0.037217
vt 0.536549 0.017989
vt 0.510342 0.137001
vt 0.503665 0.463738
vt 0.536041 0.482062
vt 0.520480 0.003023
vt 1.004983 0.037219
vt 0.510342 0.000000
vt 0.522901 0.491935
vt 1.004983 0.463739
vt 0.532781 0.979589
vt 0.509073 0.613793
vt 0.000000 0.164443
vt 0.531731 0.524769
vt 0.509073 0.990152
vt 0.677009 0.000000
vt 0.987849 0.978537
vt 0.946597 0.565048
vt 0.000000 0.000000
vt 0.986799 0.523718
vt 0.945184 0.973629
vt 0.677009 0.165174
vt 0.530495 0.572409
vt 0.984155 0.613793
vt 0.143732 0.164443
vt 0.531798 0.977415
vt 0.984155 0.990152
vt 0.820741 0.000000
vt 0.544557 0.564032
vt 0.935722 0.571107
vt 0.143732 0.000000
vt 0.543144 0.972613
vt 0.937025 0.976112
vt 0.820741 0.165174
vt 0.557275 0.032237
vt 0.516696 0.039101
vt 0.820741 0.184845
vt 0.556980 0.478488
vt 0.516696 0.476469
vt 0.718625 0.150431
vt 0.511950 0.032747
vt 0.682294 0.067372
vt 0.820741 0.000000
vt 0.511655 0.477473
vt 0.682294 0.470304
vt 0.716573 0.336087
vt 0.513836 0.040677
vt 0.975087 0.039101
vt 0.893920 0.184845
vt 0.514791 0.482385
vt 0.975087 0.476469
vt 0.791800 0.151240
vt 0.505377 0.067372
vt 0.558054 0.041803
vt 0.893920 0.000000
vt 0.505377 0.470304
vt 0.556508 0.483510
vt 0.789748 0.336895
vt 0.752689 0.563479
vt 0.926884 0.793654
vt 0.631725 0.051865
vt 0.752689 1.054590
vt 0.815593 0.793654
vt 0.681907 0.033830
vt 0.686274 0.019667
vt 0.677235 0.035189
vt 0.495008 0.565356
vt 0.523239 0.772158
vt 0.633035 0.002316
vt 0.496459 0.879821
vt 0.524222 0.539124
vt 0.805178 0.033830
vt 0.143732 0.278307
vt 0.558790 0.644198
vt 0.926884 0.956810
vt 0.727751 0.054405
vt 0.560747 1.003764
vt 0.815593 0.956810
vt 0.671764 0.023757
vt 0.683196 0.033671
vt 0.849431 0.019743
vt 0.827447 0.773440
vt 0.749418 0.644549
vt 0.729075 0.004341
vt 0.828430 0.540407
vt 0.747648 0.874787
vt 0.143732 0.278307
vt 0.764685 0.014226
vt 0.806467 0.033671
vt 0.519193 0.415529
vt 0.215630 0.202495
vt 0.275515 0.211044
vt 0.218299 0.195484
vt 0.336776 0.204271
vt 0.285778 0.202493
vt 0.276059 0.194202
vt 0.143732 0.278307
vt 0.236886 0.192936
vt 0.234312 0.204698
vt 0.143732 0.278307
vt 0.519193 0.430780
vt 0.256899 0.209559
vt 0.236343 0.209778
vt 0.164165 0.204701
vt 0.173621 0.204075
vt 0.232537 0.204630
vt 0.681907 0.023827
vt 0.143732 0.278307
vt 0.255761 0.192003
vt 0.677235 0.025186
vt 0.805178 0.023827
vt 0.143732 0.278307
vt 0.215630 0.212498
vt 0.218299 0.205487
vt 0.143732 0.278307
vt 0.255761 0.207253
vt 0.285778 0.212496
vt 0.143732 0.278307
vt 0.143732 0.278307
vt 0.143732 0.278307
vt 0.143732 0.278307
vt 0.143732 0.278307
vt 0.193893 0.213902
vt 0.143732 0.278307
vt 0.343180 0.213704
vt 0.143732 0.278307
vt 0.185695 0.197353
vt 0.143732 0.278307
vt 0.334982 0.197154
vt 0.143732 0.278307
vt 0.143732 0.278307
vt 0.738676 0.046114
vt 0.707095 0.040789
vt 0.143732 0.278307
vt 0.510342 0.395909
vt 0.870147 0.034954
vt 0.145361 0.198317
vt 0.143732 0.278307
vt 0.230110 0.207388
vt 0.308518 0.197909
vt 0.143732 0.278307
vt 0.510342 0.411159
vt 0.143732 0.278307
vt 0.268479 0.194789
vt 0.230110 0.197385
vt 0.143732 0.278307
vt 0.268479 0.210039
vt 0.738676 0.036111
vt 0.764685 0.023060
vt 0.176851 0.213171
vt 0.806467 0.042505
vt 0.221763 0.206413
vt 0.671764 0.032591
vt 0.300037 0.208601
vt 0.683196 0.042505
vt 0.245180 0.197204
vt 0.234312 0.195864
vt 0.183091 0.199256
vt 0.235437 0.213165
vt 0.256899 0.200725
vt 0.164165 0.195867
vt 0.306277 0.194686
vt 0.258855 0.203956
vt 0.232537 0.195796
vt 0.214951 0.204804
vt 0.510342 0.426410
vt 0.262516 0.209559
vt 0.774556 0.014226
vt 0.230038 0.204804
vt 0.510342 0.411159
vt 0.172310 0.211330
vt 0.238177 0.207788
vt 0.748546 0.046114
vt 0.706742 0.030926
vt 0.335341 0.204945
vt 0.519193 0.391539
vt 0.869794 0.025091
vt 0.145375 0.203934
vt 0.171720 0.196255
vt 0.253264 0.207788
vt 0.224493 0.207389
vt 0.308532 0.203526
vt 0.334751 0.189870
vt 0.519193 0.406789
vt 0.277329 0.199159
vt 0.253264 0.197786
vt 0.224493 0.197386
vt 0.277330 0.214409
vt 0.238177 0.197785
vt 0.748546 0.036111
vt 0.214951 0.195970
vt 0.235437 0.203294
vt 0.262516 0.200725
vt 0.774556 0.023060
vt 0.230038 0.195970
vt 0.221763 0.196542
vt 0.661951 0.023757
vt 0.326509 0.198423
vt 0.223588 0.199521
vt 0.849426 0.029556
vt 0.163353 0.198271
vt 0.254999 0.202709
vt 0.686269 0.029480
vt 0.667422 0.035189
vt 0.326500 0.208781
vt 0.213230 0.199521
vt 0.173614 0.209659
vt 0.226953 0.204630
vt 0.212715 0.195485
vt 0.163344 0.208629
vt 0.244640 0.202709
vt 0.336771 0.209855
vt 0.254999 0.192706
vt 0.264560 0.196347
vt 0.667422 0.025186
vt 0.212715 0.205488
vt 0.244640 0.192706
vt 0.264560 0.211598
vt 0.661951 0.032591
vt 0.245180 0.207017
vt 0.223588 0.208355
vt 0.258855 0.213769
vt 0.213230 0.208355
vt 0.226953 0.195796
vt 0.778547 0.627811
vt 0.514999 0.587455
vt 0.713512 0.013545
vt 0.777278 0.835387
vt 0.514741 0.717560
vt 0.724826 0.035161
vt 0.617875 0.020577
vt 0.721760 0.034968
vt 0.501142 0.630285
vt 0.505971 0.642022
vt 0.711075 0.048742
vt 0.505262 1.024858
vt 0.653256 0.035159
vt 0.355089 0.646077
vt 0.580753 0.558794
vt 1.014717 0.588278
vt 0.642475 0.011976
vt 0.581605 0.714021
vt 1.014738 0.717588
vt 0.545886 0.034009
vt 0.726446 0.035916
vt 0.625977 0.029435
vt 0.505971 0.474255
vt 0.785546 0.559873
vt 0.643286 0.046797
vt 0.785546 0.854974
vt 0.355088 0.470201
vt 0.654875 0.035914
vt 0.246804 0.191174
vt 0.137661 0.208224
vt 0.186041 0.209637
vt 0.146263 0.201460
vt 0.247327 0.214047
vt 0.273022 0.202079
vt 0.343676 0.646077
vt 0.279063 0.213321
vt 0.343675 0.470201
vt 0.276137 0.204724
vt 0.278540 0.190448
vt 0.313523 0.210463
vt 0.180238 0.198421
vt 0.149444 0.208845
vt 0.724827 0.042566
vt 0.151205 0.214204
vt 0.617876 0.027982
vt 0.157733 0.207550
vt 0.653256 0.042563
vt 0.277932 0.211282
vt 0.355089 0.653481
vt 0.156026 0.203724
vt 0.186041 0.202233
vt 0.146227 0.208865
vt 0.168100 0.212611
vt 0.282752 0.200802
vt 0.272986 0.209483
vt 0.343676 0.653481
vt 0.292617 0.196447
vt 0.545919 0.028008
vt 0.631978 0.029435
vt 0.168392 0.200957
vt 0.116776 0.199986
vt 0.255071 0.209402
vt 0.623877 0.020577
vt 0.721792 0.028966
vt 0.313658 0.199835
vt 0.292775 0.204319
vt 0.160519 0.200957
vt 0.190867 0.198421
vt 0.137796 0.197595
vt 0.196670 0.209637
vt 0.116935 0.207857
vt 0.247199 0.209402
vt 0.255071 0.201998
vt 0.623877 0.027982
vt 0.157733 0.196921
vt 0.196670 0.202233
vt 0.247199 0.201998
vt 0.168100 0.201982
vt 0.355088 0.463830
vt 0.654875 0.029543
vt 0.143732 0.278307
vt 0.726446 0.029545
vt 0.625977 0.023064
vt 0.143732 0.278307
vt 0.343675 0.463830
vt 0.275930 0.198357
vt 0.143732 0.278307
vt 0.180238 0.204792
vt 0.149237 0.202477
vt 0.143732 0.278307
vt 0.631978 0.023064
vt 0.168392 0.207328
vt 0.143732 0.278307
vt 0.160519 0.207328
vt 0.190867 0.204792
vt 0.143732 0.278307
vt 0.179581 0.209001
vt 0.143732 0.278307
vt 0.306331 0.207402
vt 0.150838 0.201067
vt 0.143732 0.278307
vt 0.174389 0.198700
vt 0.143732 0.278307
vt 0.301140 0.197100
vt 0.161205 0.196006
vt 0.143732 0.278307
vt 0.150838 0.211696
vt 0.143732 0.278307
vt 0.161205 0.206635
vt 0.143732 0.278307
vt 0.343675 0.368916
vt 0.137610 0.667901
vt 0.343675 0.463830
vt 0.343675 0.231915
vt 0.677009 0.224872
vt 0.677009 0.391539
vt 0.000000 0.667901
vt 0.510342 0.368916
vt 0.693121 0.478065
vt 0.510342 0.463830
vt 0.510342 0.231915
vt 0.533447 0.478065
vt 0.513100 -0.000101
vt 0.343675 0.231915
vt 0.677009 0.224872
vt 0.983144 -0.003285
vt 0.343675 0.368916
vt 0.137610 0.667901
vt 0.982831 0.480705
vt 0.343675 0.463830
vt 0.000000 0.667901
vt 0.512788 0.483889
vt 0.677009 0.391539
vt 0.310399 0.791642
vt 0.343675 0.000000
vt 0.143732 0.791643
vt 0.343675 0.137001
vt 0.143732 0.624976
vt 0.512566 0.474168
vt 0.310399 0.624975
vt 0.672638 0.630497
vt 0.533447 0.478065
vt 0.505971 0.820151
vt 0.505971 0.653484
vt 0.510342 0.231915
vt 0.339304 0.653484
vt 0.510342 0.368916
vt 0.693121 0.478065
vt 0.339304 0.820151
vt 0.137610 0.667901
vt 0.343675 0.463830
vt 0.000000 0.667901
vt 0.677009 0.391539
vt 0.000000 0.834569
vt 0.137610 0.834569
vt 0.137610 0.667901
vt 0.343675 0.463830
vt 0.677009 0.391539
vt 0.000000 0.667901
vt 0.343675 0.463830
vt 0.137610 0.667901
vt 0.677009 0.391539
vt 0.000000 0.667901
vt 0.137610 0.667901
vt 0.000000 0.667901
vt 0.137610 0.667901
vt 0.000000 0.667901
vt 0.343675 0.368916
vt 0.343675 0.463830
vt 0.510342 0.463830
vt 0.510342 0.368916
vt 0.143732 0.624976
vt 0.814619 0.224872
vt 0.512566 0.474168
vt 0.310399 0.624975
vt 0.677009 0.224872
vt 0.672638 0.630497
vt 0.814619 0.224872
vt 0.000000 0.000000
vt 0.512566 0.474168
vt 0.677009 0.224872
vt 0.672638 0.630497
vt 0.000000 0.000000
s 0
f 126/374/1 125/372/1 147/406/1 148/409/1
f 3/6/2 4/8/2 8/19/2 7/16/2
f 7/17/3 8/20/3 6/14/3 5/11/3
f 5/12/4 6/15/4 2/3/4 1/1/4
f 3/7/5 7/18/5 5/13/5 1/2/5
f 9/21/6 10/24/6 12/30/6 11/27/6
f 11/28/2 12/31/2 16/42/2 15/39/2
f 15/40/3 16/43/3 14/36/3 13/33/3
f 13/34/4 14/37/4 10/25/4 9/22/4
f 11/29/5 15/41/5 13/35/5 9/23/5
f 16/44/7 12/32/7 10/26/7 14/38/7
f 17/45/6 18/48/6 20/54/6 19/51/6
f 19/52/2 20/55/2 24/66/2 23/63/2
f 23/64/3 24/67/3 22/60/3 21/57/3
f 21/58/4 22/61/4 18/49/4 17/46/4
f 19/53/5 23/65/5 21/59/5 17/47/5
f 24/68/7 20/56/7 18/50/7 22/62/7
f 25/69/6 26/72/6 28/80/6 27/77/6
f 27/78/8 28/81/8 32/95/8 31/92/8
f 31/93/3 32/96/3 30/87/3 29/84/3
f 29/85/9 30/88/9 26/73/9 25/70/9
f 27/79/5 31/94/5 29/86/5 25/71/5
f 33/101/10 34/105/10 40/127/10 39/123/10
f 35/108/10 34/106/10 33/102/10 36/113/10
f 30/89/11 56/163/11 75/229/11 69/207/11
f 28/83/6 38/122/4 46/136/6 41/129/4
f 35/109/10 36/114/10 58/171/10 57/167/10
f 35/110/12 32/97/4 42/130/13 44/132/4
f 39/125/14 40/128/4 48/140/15 47/138/4
f 28/82/11 26/74/11 37/117/11 38/121/11
f 33/103/10 39/124/10 74/226/10 72/219/10
f 42/130/6 41/129/4 49/141/6 50/144/4
f 46/135/6 45/133/6 47/137/6 48/139/6
f 48/140/6 43/131/4 51/148/6 53/153/4
f 40/128/6 34/107/4 43/131/6 48/140/4
f 34/107/6 35/110/4 44/132/6 43/131/4
f 37/118/13 39/125/4 47/138/12 45/134/4
f 38/122/15 37/118/4 45/134/14 46/136/4
f 32/97/6 28/83/4 41/129/6 42/130/4
f 51/147/10 52/150/10 64/192/10 63/188/10
f 55/159/11 32/98/11 60/178/11 68/204/11
f 41/129/6 46/136/4 54/156/6 49/141/4
f 46/136/13 48/140/4 53/153/12 54/156/4
f 44/132/12 42/130/4 50/144/13 52/151/4
f 43/131/6 44/132/4 52/151/6 51/148/4
f 56/164/3 55/160/3 57/168/3 58/172/3
f 30/90/11 32/99/11 55/161/11 56/165/11
f 54/157/6 53/154/6 65/195/6 66/198/6
f 56/166/3 58/173/3 76/232/3 75/230/3
f 62/185/16 61/181/16 63/189/16 64/193/16
f 63/190/16 61/182/16 66/199/16 65/196/16
f 60/179/16 59/175/16 67/201/16 68/205/16
f 57/169/3 55/162/3 68/206/3 67/202/3
f 53/155/10 51/149/10 63/191/10 65/197/10
f 32/100/6 35/111/6 59/176/6 60/180/6
f 49/142/11 54/158/11 66/200/11 61/183/11
f 52/152/3 50/145/3 62/186/3 64/194/3
f 50/146/11 49/143/11 61/184/11 62/187/11
f 35/112/10 57/170/10 67/203/10 59/177/10
f 70/211/17 69/208/17 71/215/17 72/220/17
f 70/212/17 72/221/17 74/227/17 73/223/17
f 71/216/17 69/209/17 75/231/17 76/233/17
f 36/115/10 33/104/10 72/222/10 71/217/10
f 26/75/11 30/91/11 69/210/11 70/213/11
f 39/126/6 37/119/6 73/224/6 74/228/6
f 58/174/10 36/116/10 71/218/10 76/234/10
f 37/120/11 26/76/11 70/214/11 73/225/11
f 77/235/18 78/238/18 80/246/18 79/243/18
f 79/244/19 80/248/19 84/261/19 83/257/19
f 83/258/20 84/260/20 82/252/20 81/249/20
f 81/250/21 82/253/21 78/239/21 77/236/21
f 79/245/5 83/259/5 81/251/5 77/237/5
f 80/247/22 78/240/22 89/277/22 90/281/22
f 87/270/23 86/267/23 85/263/23 88/273/23
f 88/274/23 85/264/23 96/303/23 95/299/23
f 84/261/24 80/248/24 86/269/24 87/271/24
f 84/261/24 87/271/24 101/319/24 99/313/24
f 90/282/6 89/278/6 91/284/6 92/288/6
f 85/265/23 91/285/23 98/310/23 96/304/23
f 85/266/23 86/268/23 92/289/23 91/286/23
f 86/269/24 80/248/24 90/283/24 92/290/24
f 94/295/25 93/291/25 95/300/25 96/305/25
f 94/296/25 96/306/25 98/311/25 97/307/25
f 89/279/22 78/241/22 94/297/22 97/308/22
f 78/242/22 82/254/22 93/292/22 94/298/22
f 91/287/6 89/280/6 97/309/6 98/312/6
f 82/255/22 84/262/22 99/314/22 100/316/22
f 99/315/26 101/321/4 107/337/27 105/332/4
f 102/324/28 104/330/4 110/344/29 108/340/4
f 93/293/22 82/256/22 100/317/22 103/325/22
f 95/301/25 93/294/25 103/326/25 104/328/25
f 88/275/23 95/302/23 104/329/23 102/322/23
f 87/272/23 88/276/23 102/323/23 101/320/23
f 106/333/3 105/331/3 107/336/3 108/338/3
f 106/334/3 108/339/3 110/343/3 109/341/3
f 101/321/28 102/324/4 108/340/29 107/337/4
f 103/327/29 100/318/4 106/335/28 109/342/4
f 104/330/27 103/327/4 109/342/26 110/344/4
f 100/318/29 99/315/4 105/332/28 106/335/4
f 112/346/1 114/351/1 122/365/1 121/362/1
f 118/356/5 116/353/5 130/382/5 127/376/5
f 115/352/7 116/354/4 145/404/7 146/405/4
f 113/348/5 117/355/5 115/352/5 111/345/5
f 120/360/6 121/363/6 122/366/6 119/357/6
f 113/348/1 111/345/1 120/361/1 119/358/1
f 114/350/7 113/349/4 119/359/7 122/367/4
f 111/345/7 112/347/4 121/364/7 120/361/4
f 124/370/6 125/372/6 126/374/6 123/368/6
f 3/7/7 1/2/7 124/371/7 123/369/7
f 128/378/3 127/377/3 130/383/3 129/380/3
f 115/352/7 117/355/7 128/379/7 129/381/7
f 133/388/7 132/386/7 131/384/7 134/389/7
f 131/384/1 132/386/1 138/397/1 137/395/1
f 132/387/7 114/350/4 136/392/7 138/396/4
f 114/351/1 112/346/1 135/390/1 136/393/1
f 112/347/7 131/385/4 137/394/7 135/391/4
f 140/399/3 139/398/3 141/400/3 142/401/3
f 137/395/5 138/397/5 142/401/5 141/400/5
f 112/347/7 111/345/4 143/402/7 144/403/4
f 111/345/6 115/352/4 146/405/6 143/402/4
f 116/354/6 112/347/4 144/403/6 145/404/4
f 149/412/5 150/415/5 148/410/5 147/407/5
f 4/9/4 126/375/4 148/411/4 150/416/4
f 2/4/1 4/10/1 150/417/1 149/413/1
f 125/373/4 2/5/4 149/414/4 147/408/4
