# Blender 3.3.1
# www.blender.org
o Landscape.001
v -1.261132 -0.000069 1.261132
v -1.261154 0.000730 0.714463
v -1.260972 -0.000992 0.633146
v -1.261114 -0.000075 0.472786
v -1.261070 -0.000272 -0.306430
v -1.261133 0.000018 -0.667863
v -1.261132 0.000000 -1.261132
v -1.067788 0.000061 1.055997
v -1.174157 0.001287 0.826259
v -1.174157 0.005401 0.739284
v -1.174157 0.011439 0.652309
v -1.176397 0.018647 0.533849
v -1.171650 0.020720 0.202365
v -1.174532 0.020038 0.036049
v -1.178255 0.017314 -0.244392
v -1.175550 0.022767 -0.378893
v -1.176338 0.020693 -0.551068
v -1.174157 0.013931 -0.652309
v -1.174157 0.006879 -0.739284
v -1.156299 0.002712 -0.865443
v -1.166072 0.000081 -0.954798
v -1.032084 0.002484 1.036538
v -1.028693 0.013941 0.960700
v -1.087182 0.021620 0.826259
v -1.107346 0.044600 0.643328
v -1.008241 0.123017 0.548717
v -1.027511 0.122534 0.479308
v -1.085284 0.081103 0.376669
v -1.044214 0.104695 0.333117
v -1.074326 0.074465 0.123243
v -1.019712 0.098103 -0.055210
v -1.047789 0.091833 -0.155703
v -1.087182 0.078672 -0.304411
v -1.088336 0.092025 -0.444176
v -1.087182 0.080397 -0.565335
v -1.087182 0.059743 -0.652309
v -1.087182 0.041654 -0.739284
v -1.087182 0.024125 -0.826259
v -0.996739 0.000264 -1.121204
v -0.626815 0.000061 -1.261134
v -0.963459 0.040798 0.934680
v -1.000208 0.061669 0.826259
v -1.000208 0.080945 0.739284
v -1.000208 0.096983 0.652309
v -1.000208 0.111991 0.217436
v -1.000208 0.111598 0.043487
v -1.000208 0.120647 -0.130462
v -1.000208 0.139261 -0.217436
v -0.939313 0.217003 -0.295413
v -1.000208 0.177285 -0.478360
v -1.000208 0.179921 -0.565335
v -1.000208 0.141845 -0.652309
v -1.000208 0.096227 -0.739284
v -1.000208 0.063858 -0.826259
v -1.000208 0.032959 -0.913233
v -0.977982 0.007975 -1.051259
v -0.728658 0.000565 1.261147
v -0.913233 0.008472 1.087182
v -0.840067 0.099743 0.906838
v -0.913233 0.100302 0.826259
v -0.913233 0.145057 0.739284
v -0.913233 0.160511 0.652309
v -0.913233 0.206782 0.565335
v -0.913233 0.232807 0.478360
v -0.913233 0.234417 0.391386
v -0.910595 0.166518 0.214324
v -0.913233 0.174596 0.130462
v -0.913233 0.162514 0.043487
v -0.913233 0.143731 -0.043487
v -0.913233 0.170179 -0.130462
v -0.913233 0.212769 -0.217436
v -0.913233 0.244378 -0.304411
v -0.900754 0.299960 -0.468497
v -0.913233 0.268975 -0.565335
v -0.913233 0.213072 -0.652309
v -0.931849 0.097499 -0.833638
v -0.913233 0.066127 -0.913233
v -0.913233 0.031632 -1.000208
v -0.845745 0.002592 1.156102
v -0.826259 0.023869 1.087182
v -0.826259 0.055432 1.000208
v -0.826259 0.155238 0.826259
v -0.826259 0.218442 0.739284
v -0.824188 0.255444 0.590416
v -0.841201 0.294537 0.384737
v -0.826259 0.291514 0.304411
v -0.826259 0.256530 0.217436
v -0.820568 0.261683 0.136804
v -0.826259 0.240049 0.043487
v -0.826259 0.193189 -0.043487
v -0.826259 0.213673 -0.130462
v -0.826259 0.247327 -0.217436
v -0.826259 0.333476 -0.304411
v -0.826259 0.361635 -0.391386
v -0.826259 0.361407 -0.478360
v -0.826259 0.326539 -0.565335
v -0.826259 0.248928 -0.652309
v -0.826259 0.205058 -0.739284
v -0.826259 0.139789 -0.826259
v -0.780405 0.040398 -1.059394
v -0.826259 0.020311 -1.087182
v -0.804200 0.002468 -1.172064
v -0.756162 0.044679 1.054043
v -0.739284 0.079453 1.000208
v -0.682368 0.199328 0.871011
v -0.739284 0.285740 0.739284
v -0.739284 0.313243 0.652309
v -0.739284 0.319364 0.565335
v -0.739284 0.343245 0.478360
v -0.739284 0.371987 0.391386
v -0.739284 0.339793 0.304411
v -0.739284 0.315447 0.217436
v -0.739284 0.283502 0.043487
v -0.739284 0.256304 -0.043487
v -0.739284 0.254157 -0.130462
v -0.739284 0.324573 -0.217436
v -0.739284 0.407943 -0.304411
v -0.739284 0.431083 -0.391386
v -0.739284 0.449762 -0.478360
v -0.739284 0.397761 -0.565335
v -0.739284 0.350159 -0.652309
v -0.739284 0.281106 -0.739284
v -0.739284 0.193087 -0.826259
v -0.675702 0.105619 -1.007951
v -0.739284 0.034486 -1.087182
v -0.635227 -0.000748 1.261042
v -0.631176 0.011347 1.165327
v -0.652309 0.098101 1.000208
v -0.652309 0.175448 0.913233
v -0.652309 0.262876 0.826259
v -0.652309 0.322404 0.739284
v -0.652309 0.358649 0.652309
v -0.652309 0.347005 0.565335
v -0.652309 0.380453 0.478360
v -0.652309 0.384964 0.391386
v -0.652309 0.382543 0.304411
v -0.652309 0.363364 0.217436
v -0.652309 0.364212 0.130462
v -0.652309 0.340729 0.043487
v -0.652309 0.334067 -0.043487
v -0.652309 0.394195 -0.130462
v -0.652309 0.446164 -0.217436
v -0.652309 0.518505 -0.304411
v -0.652309 0.507721 -0.391386
v -0.652309 0.512343 -0.478360
v -0.652309 0.549568 -0.565335
v -0.652309 0.488993 -0.652309
v -0.652309 0.365253 -0.739284
v -0.652309 0.272079 -0.826259
v -0.652309 0.191428 -0.913233
v -0.652309 0.047562 -1.087182
v -0.623610 0.009935 -1.174001
v -0.565335 0.052040 1.087182
v -0.516703 0.135077 0.995030
v -0.518975 0.209188 0.908250
v -0.565335 0.279660 0.826259
v -0.565335 0.341262 0.739284
v -0.565335 0.374930 0.652309
v -0.565335 0.374567 0.565335
v -0.565335 0.397214 0.478360
v -0.565335 0.411611 0.391386
v -0.565335 0.431394 0.304411
v -0.565335 0.481350 0.217436
v -0.565335 0.433023 0.130462
v -0.565335 0.442756 0.043487
v -0.565335 0.409448 -0.043487
v -0.565335 0.464187 -0.130462
v -0.565335 0.558337 -0.217436
v -0.565335 0.596248 -0.304411
v -0.565335 0.617347 -0.391386
v -0.565335 0.608028 -0.478360
v -0.565335 0.621208 -0.565335
v -0.565335 0.513076 -0.652309
v -0.565335 0.405669 -0.739284
v -0.565335 0.350412 -0.826259
v -0.565335 0.234903 -0.913233
v -0.565335 0.134266 -1.000208
v -0.488995 0.058415 -1.107313
v -0.383023 0.000998 1.261335
v -0.396213 0.018439 1.178655
v -0.392834 0.068180 1.097327
v -0.478360 0.317502 0.826259
v -0.478360 0.382415 0.739284
v -0.478360 0.412859 0.652309
v -0.478360 0.431102 0.565335
v -0.478360 0.480012 0.478360
v -0.478360 0.514509 0.391386
v -0.478360 0.566737 0.304411
v -0.478360 0.573746 0.217436
v -0.478360 0.548514 0.130462
v -0.478360 0.533326 0.043487
v -0.478360 0.508406 -0.043487
v -0.478360 0.522127 -0.130462
v -0.478360 0.627763 -0.217436
v -0.478360 0.661690 -0.304411
v -0.478360 0.614341 -0.391386
v -0.478360 0.582806 -0.478360
v -0.478360 0.568128 -0.565335
v -0.478360 0.505095 -0.652309
v -0.478360 0.404695 -0.739284
v -0.478360 0.357126 -0.826259
v -0.478360 0.221916 -0.913233
v -0.478360 0.149480 -1.000208
v -0.470297 0.016681 -1.175541
v -0.391386 0.165183 1.000208
v -0.391386 0.236942 0.913233
v -0.391386 0.335930 0.826259
v -0.391386 0.412740 0.739284
v -0.391386 0.495711 0.652309
v -0.391386 0.483116 0.565335
v -0.391386 0.510947 0.478360
v -0.391386 0.560531 0.391386
v -0.391386 0.581476 0.304411
v -0.391386 0.628621 0.217436
v -0.391386 0.546937 0.130462
v -0.391386 0.529138 0.043487
v -0.391386 0.535810 -0.043487
v -0.391386 0.602256 -0.130462
v -0.391386 0.689078 -0.217436
v -0.391386 0.707790 -0.304411
v -0.391386 0.610891 -0.391386
v -0.391386 0.543282 -0.478360
v -0.391386 0.505351 -0.565335
v -0.391386 0.473785 -0.652309
v -0.391386 0.444471 -0.739284
v -0.391386 0.320931 -0.826259
v -0.301694 0.221289 -0.908415
v -0.242670 0.000184 -1.261171
v -0.269703 0.001287 1.261487
v -0.304411 0.025528 1.174157
v -0.304411 0.081989 1.087182
v -0.300240 0.245238 0.917044
v -0.304411 0.343030 0.826259
v -0.304411 0.415892 0.739284
v -0.304411 0.533678 0.652309
v -0.304411 0.555708 0.565335
v -0.304411 0.546846 0.478360
v -0.304411 0.619068 0.391386
v -0.304411 0.615543 0.304411
v -0.304411 0.633952 0.217436
v -0.304411 0.587774 0.130462
v -0.304411 0.557193 0.043487
v -0.450581 0.594530 -0.002791
v -0.304411 0.618696 -0.130462
v -0.304411 0.717809 -0.217436
v -0.304411 0.685173 -0.304411
v -0.304411 0.597654 -0.391386
v -0.304411 0.550624 -0.478360
v -0.304411 0.528591 -0.565335
v -0.304411 0.493198 -0.652309
v -0.304411 0.424833 -0.739284
v -0.304411 0.306296 -0.826259
v -0.238236 0.079908 -1.069992
v -0.158629 0.019787 -1.176789
v -0.205145 0.025184 1.173741
v -0.188714 0.079369 1.091731
v -0.212877 0.143797 1.015085
v -0.140995 0.272701 0.869171
v -0.217436 0.332734 0.826259
v -0.217436 0.400175 0.739284
v -0.217436 0.479277 0.652309
v -0.217436 0.495276 0.565335
v -0.217436 0.580757 0.478360
v -0.217436 0.662015 0.391386
v -0.217436 0.616187 0.304411
v -0.217436 0.615486 0.217436
v -0.217436 0.578724 0.130462
v -0.217298 0.564199 0.043412
v -0.174501 0.625905 -0.069536
v -0.217436 0.687586 -0.130462
v -0.217436 0.706340 -0.217436
v -0.217436 0.768020 -0.304411
v -0.217436 0.676039 -0.391386
v -0.217436 0.626982 -0.478360
v -0.217436 0.542630 -0.565335
v -0.217436 0.432874 -0.652309
v -0.217436 0.348651 -0.739284
v -0.217436 0.274082 -0.826259
v -0.217436 0.198255 -0.913233
v -0.130462 0.311514 0.826259
v -0.130462 0.361464 0.739284
v -0.130462 0.433781 0.652309
v -0.130462 0.518605 0.565335
v -0.130462 0.611083 0.478360
v -0.130462 0.646205 0.391386
v -0.130462 0.618043 0.304411
v -0.130462 0.626748 0.217436
v -0.130462 0.669889 0.130462
v -0.168626 0.644660 0.048518
v -0.200117 0.630848 -0.034305
v -0.130462 0.697384 -0.130462
v -0.130462 0.691504 -0.217436
v -0.130462 0.713506 -0.304411
v -0.130462 0.696665 -0.391386
v -0.130462 0.630841 -0.478360
v -0.130462 0.594530 -0.565335
v -0.130462 0.436297 -0.652309
v -0.130462 0.322893 -0.739284
v -0.136029 0.208150 -0.913420
v -0.118370 0.095910 -1.058275
v 0.042500 -0.000505 1.261023
v -0.043487 0.020737 1.174157
v -0.023116 0.142498 0.989892
v -0.043487 0.214730 0.913233
v -0.043487 0.288723 0.826259
v -0.043487 0.397601 0.739284
v -0.043487 0.541153 0.652309
v -0.043487 0.584191 0.565335
v -0.043487 0.611305 0.478360
v -0.043487 0.623165 0.391386
v -0.043487 0.685768 0.304411
v -0.043487 0.644688 0.217436
v -0.043487 0.649352 0.130462
v -0.043487 0.588496 0.043487
v -0.043487 0.582529 -0.043487
v -0.043487 0.692333 -0.130462
v -0.043487 0.633198 -0.217436
v -0.043487 0.615330 -0.304411
v -0.043487 0.626335 -0.391386
v -0.043487 0.573555 -0.478360
v -0.043487 0.538913 -0.565335
v -0.043487 0.460569 -0.652309
v -0.043487 0.348560 -0.739284
v -0.043487 0.300699 -0.826259
v -0.043487 0.255648 -0.913233
v -0.043487 0.158778 -1.000208
v -0.043487 0.070199 -1.087182
v 0.039997 0.018293 -1.173839
v 0.084455 0.017133 1.171633
v 0.124793 0.053767 1.096602
v 0.043487 0.131337 1.000208
v 0.043487 0.222299 0.913233
v 0.043487 0.277301 0.826259
v 0.043487 0.389310 0.739284
v 0.043487 0.466131 0.652309
v 0.043487 0.539879 0.565335
v 0.043487 0.550098 0.478360
v 0.043487 0.562082 0.391386
v -0.053367 0.643436 0.404582
v 0.043487 0.636303 0.217436
v 0.043487 0.601590 0.130462
v 0.043487 0.593388 0.043487
v 0.043487 0.600449 -0.043487
v 0.043487 0.644860 -0.130462
v 0.043487 0.646098 -0.217436
v 0.043487 0.588357 -0.304411
v 0.043487 0.515643 -0.391386
v 0.043487 0.522029 -0.478360
v 0.043487 0.531247 -0.565335
v 0.043487 0.435295 -0.652309
v 0.043487 0.354468 -0.739284
v 0.043487 0.290378 -0.826259
v 0.043487 0.230960 -0.913233
v 0.043487 0.139667 -1.000208
v 0.120050 0.069392 -1.092169
v 0.159556 0.142705 0.963034
v 0.130462 0.193639 0.913233
v 0.130462 0.277033 0.826259
v 0.130462 0.358018 0.739284
v 0.130462 0.438301 0.652309
v 0.130462 0.462197 0.565335
v 0.130462 0.503051 0.478360
v 0.130462 0.521283 0.391386
v 0.130462 0.576514 0.304411
v 0.130462 0.560736 0.217436
v 0.130462 0.554372 0.130462
v 0.130462 0.527954 0.043487
v 0.130462 0.552810 -0.043487
v 0.130462 0.552612 -0.130462
v 0.130462 0.514934 -0.217436
v 0.130462 0.533101 -0.304411
v 0.130462 0.509074 -0.391386
v 0.130462 0.519664 -0.478360
v 0.130462 0.468107 -0.565335
v 0.130462 0.409346 -0.652309
v 0.159911 0.300818 -0.767598
v 0.130462 0.262463 -0.826259
v 0.130462 0.216018 -0.913233
v 0.217872 0.170797 -0.956437
v 0.356078 0.000397 1.261202
v 0.217436 0.166411 0.913233
v 0.217436 0.228358 0.826259
v 0.217436 0.361518 0.739284
v 0.217436 0.409454 0.652309
v 0.217436 0.407693 0.565335
v 0.217436 0.420552 0.478360
v 0.217436 0.470108 0.391386
v 0.217436 0.452312 0.304411
v 0.217436 0.438894 0.217436
v 0.217436 0.431835 0.130462
v 0.217436 0.411137 0.043487
v 0.217436 0.396819 -0.043487
v 0.217436 0.425517 -0.130462
v 0.259995 0.386423 -0.201678
v 0.217436 0.450793 -0.304411
v 0.217436 0.429985 -0.391386
v 0.217436 0.462523 -0.478360
v 0.217436 0.443829 -0.565335
v 0.217436 0.403283 -0.652309
v 0.217436 0.258688 -0.826259
v 0.267143 0.151019 -0.987326
v 0.639164 0.000033 -1.261135
v 0.352181 0.016050 1.174509
v 0.385613 0.052353 1.086302
v 0.304411 0.110442 1.000208
v 0.304411 0.156436 0.913233
v 0.304411 0.233707 0.826259
v 0.304411 0.337292 0.739284
v 0.304411 0.383833 0.652309
v 0.304411 0.364997 0.565335
v 0.304411 0.375653 0.478360
v 0.304411 0.418153 0.391386
v 0.304411 0.398937 0.304411
v 0.304411 0.381112 0.217436
v 0.304411 0.322512 0.130462
v 0.304411 0.255143 0.043487
v 0.304411 0.225570 -0.043487
v 0.304411 0.290902 -0.130462
v 0.304411 0.379834 -0.304411
v 0.304411 0.403057 -0.391386
v 0.304411 0.425271 -0.478360
v 0.304411 0.422960 -0.565335
v 0.304411 0.378202 -0.652309
v 0.391274 0.310587 -0.695266
v 0.304411 0.262550 -0.826259
v 0.304411 0.201344 -0.913233
v 0.304411 0.070190 -1.087182
v 0.386809 0.159139 0.913445
v 0.391386 0.237085 0.826259
v 0.391386 0.336709 0.739284
v 0.391386 0.376293 0.652309
v 0.391386 0.352733 0.565335
v 0.391386 0.361922 0.478360
v 0.391386 0.389771 0.391386
v 0.401130 0.296093 0.272840
v 0.393802 0.212707 0.122851
v 0.391386 0.158706 -0.043487
v 0.391386 0.180102 -0.130462
v 0.391386 0.229068 -0.217436
v 0.391386 0.272443 -0.304411
v 0.391386 0.321779 -0.391386
v 0.391386 0.351712 -0.478360
v 0.391386 0.364764 -0.565335
v 0.391386 0.293411 -0.739284
v 0.391386 0.255868 -0.826259
v 0.391386 0.218821 -0.913233
v 0.391386 0.132692 -1.000208
v 0.392191 0.019521 -1.173047
v 0.478360 0.105684 1.000208
v 0.478360 0.180780 0.913233
v 0.478360 0.260125 0.826259
v 0.478360 0.330063 0.739284
v 0.478360 0.350563 0.652309
v 0.478360 0.319485 0.565335
v 0.478360 0.316536 0.478360
v 0.478360 0.309718 0.391386
v 0.478360 0.215506 0.217436
v 0.541084 0.147493 0.133933
v 0.566460 0.105211 0.048341
v 0.478360 0.122014 -0.043487
v 0.478360 0.121964 -0.130462
v 0.478360 0.156839 -0.217436
v 0.478360 0.185232 -0.304411
v 0.479396 0.296712 -0.479260
v 0.478360 0.304992 -0.565335
v 0.478360 0.268527 -0.652309
v 0.478360 0.277052 -0.739284
v 0.478360 0.253452 -0.826259
v 0.478360 0.188791 -0.913233
v 0.478360 0.120177 -1.000208
v 0.478360 0.064986 -1.087182
v 0.511529 0.015063 -1.177368
v 0.622614 -0.000233 1.261103
v 0.578978 0.011802 1.176657
v 0.612644 0.042993 1.089572
v 0.565335 0.102494 1.000208
v 0.565335 0.171456 0.913233
v 0.565335 0.266791 0.826259
v 0.565335 0.315302 0.739284
v 0.565335 0.330798 0.652309
v 0.565335 0.290838 0.565335
v 0.565335 0.272362 0.478360
v 0.565335 0.245887 0.391386
v 0.565335 0.206489 0.304411
v 0.565335 0.155627 0.217436
v 0.565335 0.091085 -0.043487
v 0.565335 0.082361 -0.130462
v 0.578490 0.103595 -0.245963
v 0.547586 0.157266 -0.361060
v 0.565335 0.190234 -0.478360
v 0.565335 0.218271 -0.565335
v 0.577620 0.215502 -0.734789
v 0.565335 0.200316 -0.826259
v 0.620561 0.139859 -0.923563
v 0.574001 0.047439 -1.094325
v 0.652309 0.095057 1.000208
v 0.652309 0.154824 0.913233
v 0.652309 0.241572 0.826259
v 0.652309 0.282156 0.739284
v 0.652309 0.271946 0.652309
v 0.652309 0.231829 0.565335
v 0.652309 0.230278 0.478360
v 0.652309 0.200567 0.391386
v 0.652309 0.153465 0.304411
v 0.715932 0.108904 0.203313
v 0.749027 0.077217 0.113273
v 0.652309 0.079370 0.043487
v 0.674444 0.059079 -0.048835
v 0.676007 0.051666 -0.135675
v 0.743391 0.051977 -0.314455
v 0.652309 0.107538 -0.391386
v 0.652309 0.137429 -0.478360
v 0.659172 0.153465 -0.581738
v 0.652309 0.164644 -0.739284
v 0.652309 0.161751 -0.826259
v 0.652309 0.137871 -0.913233
v 0.652309 0.095955 -1.000208
v 0.736275 0.006473 -1.171940
v 0.787827 0.000044 1.261132
v 0.812184 0.003003 1.162844
v 0.739284 0.033056 1.087182
v 0.739284 0.077866 1.000208
v 0.739284 0.124656 0.913233
v 0.739284 0.170968 0.826259
v 0.739284 0.213186 0.739284
v 0.739284 0.236334 0.652309
v 0.766978 0.182545 0.551888
v 0.739284 0.180838 0.478360
v 0.739284 0.184171 0.391386
v 0.739284 0.146343 0.304411
v 0.832028 0.044797 0.048226
v 0.739284 0.042444 -0.217436
v 0.744534 0.088740 -0.473916
v 0.739284 0.111794 -0.565335
v 0.742795 0.121015 -0.674902
v 0.754129 0.127774 -0.827238
v 0.739284 0.110791 -0.913233
v 0.739284 0.085198 -1.000208
v 0.739284 0.037478 -1.087182
v 0.826259 0.021520 1.087182
v 0.822063 0.068224 0.982657
v 0.826259 0.090902 0.913233
v 0.793868 0.175556 0.756458
v 0.826259 0.167421 0.652309
v 0.826259 0.136747 0.478360
v 0.826259 0.135106 0.391386
v 0.826259 0.116532 0.304411
v 0.826259 0.089216 0.217436
v 0.816432 0.029650 -0.120997
v 0.824515 0.024772 -0.233772
v 0.834251 0.030704 -0.317233
v 0.826259 0.045753 -0.391386
v 0.922051 0.044248 -0.560831
v 0.826259 0.099064 -0.826259
v 0.826259 0.082846 -0.913233
v 0.826259 0.051995 -1.000208
v 0.826259 0.021138 -1.087182
v 0.877745 0.000326 -1.167879
v 0.939082 0.001580 1.130550
v 0.949044 0.014154 1.046634
v 0.913233 0.088335 0.826259
v 0.937369 0.109073 0.721283
v 0.913233 0.133832 0.652309
v 0.972454 0.082256 0.544157
v 0.913233 0.099098 0.478360
v 0.913233 0.100403 0.391386
v 0.913233 0.096837 0.304411
v 0.913233 0.082561 0.217436
v 0.959378 0.034054 0.049026
v 0.899821 0.019446 -0.201454
v 0.913233 0.055119 -0.652309
v 0.924063 0.048397 -0.825377
v 0.913233 0.041785 -0.913233
v 0.913233 0.026243 -1.000208
v 1.017212 0.047954 0.844577
v 1.089838 0.036633 0.644215
v 0.996870 0.078407 0.436062
v 1.000208 0.073297 0.304411
v 1.000208 0.064994 0.217436
v 1.000208 0.048011 0.130462
v 0.996487 0.032153 0.028216
v 1.095684 0.012338 -0.214342
v 1.033795 0.014432 -0.342748
v 0.996022 0.021697 -0.456519
v 1.021809 0.030454 -0.723573
v 1.007850 0.022318 -0.871683
v 1.046481 0.006100 -0.985158
v 1.116904 0.000386 -0.994451
v 1.261132 0.000102 0.854715
v 1.122118 0.001472 0.949543
v 1.087182 0.009404 0.913233
v 1.087182 0.021614 0.826259
v 1.087182 0.031209 0.739284
v 1.087182 0.037365 0.565335
v 1.085599 0.049311 0.319437
v 1.087182 0.041801 0.217436
v 1.135532 0.017970 0.028065
v 1.084013 0.025599 0.003784
v 1.151230 0.005362 -0.404716
v 1.063891 0.016792 -0.562645
v 1.103250 0.010417 -0.769038
v 1.261132 0.000000 1.261132
v 1.174157 0.001271 0.826259
v 1.174580 0.007237 0.711270
v 1.166402 0.015846 0.470754
v 1.179909 0.014289 0.257658
v 1.261144 0.000107 -0.046641
v 1.182683 0.001553 -0.736272
v 1.261161 0.000694 0.725270
v 1.260946 -0.001289 0.637831
v 1.261122 -0.000466 -1.261131
vn -0.3757 0.9257 0.0446
vn -0.2190 0.9757 0.0034
vn -0.1481 0.9884 0.0337
vn -0.3657 0.9307 -0.0112
vn -0.3116 0.9445 -0.1036
vn -0.1440 0.9885 -0.0467
vn -0.3999 0.9151 -0.0518
vn -0.2417 0.9661 -0.0912
vn -0.1584 0.9838 -0.0839
vn -0.0147 0.9998 -0.0109
vn -0.0478 0.9967 -0.0649
vn -0.0007 1.0000 -0.0005
vn -0.4506 0.8821 0.1374
vn -0.3032 0.9507 0.0652
vn -0.2047 0.9761 0.0726
vn -0.5857 0.8096 -0.0381
vn -0.6251 0.7748 0.0945
vn -0.5598 0.8095 -0.1769
vn -0.6532 0.7570 0.0158
vn -0.4231 0.9057 0.0255
vn -0.6363 0.7614 -0.1242
vn -0.5260 0.8231 0.2139
vn -0.5845 0.7832 0.2119
vn -0.5051 0.8623 -0.0360
vn -0.4844 0.8748 -0.0010
vn -0.4703 0.8818 0.0345
vn -0.3459 0.9383 -0.0051
vn -0.4767 0.8756 -0.0782
vn -0.6207 0.7592 0.1958
vn -0.6072 0.7906 0.0790
vn -0.5668 0.8168 0.1076
vn -0.6753 0.7138 0.1855
vn -0.0337 0.9986 0.0405
vn -0.0002 1.0000 0.0004
vn -0.0230 0.9974 0.0690
vn -0.6985 0.7154 -0.0137
vn -0.7320 0.6811 0.0177
vn -0.0741 0.9848 0.1571
vn -0.1497 0.9641 0.2194
vn -0.2464 0.8788 0.4087
vn -0.3639 0.8154 0.4501
vn -0.2980 0.9100 0.2882
vn -0.5729 0.7932 0.2063
vn -0.5781 0.7667 0.2792
vn -0.6129 0.7559 0.2303
vn -0.6100 0.7916 -0.0356
vn -0.6648 0.7398 -0.1039
vn -0.6014 0.7853 0.1470
vn -0.6386 0.7591 -0.1263
vn -0.6312 0.7713 -0.0821
vn -0.5989 0.7612 -0.2488
vn -0.3510 0.7833 -0.5131
vn -0.3910 0.8256 -0.4067
vn -0.4612 0.7306 -0.5035
vn -0.0314 0.9933 -0.1111
vn -0.0687 0.9824 -0.1739
vn -0.3694 0.7106 0.5988
vn -0.4639 0.7378 0.4903
vn -0.5983 0.7980 -0.0728
vn -0.5037 0.8532 -0.1352
vn -0.1360 0.9586 -0.2502
vn -0.1330 0.8879 -0.4404
vn -0.0549 0.9620 0.2673
vn -0.1367 0.9016 0.4104
vn -0.0651 0.9612 -0.2680
vn -0.1235 0.8535 -0.5063
vn -0.0493 0.8218 -0.5677
vn -0.0767 0.8034 0.5905
vn -0.1670 0.7516 0.6381
vn -0.1118 0.8461 0.5212
vn -0.1340 0.7349 -0.6648
vn -0.0186 0.7500 -0.6612
vn -0.0153 0.9350 -0.3542
vn 0.1260 0.7225 -0.6798
vn 0.0323 0.6706 -0.7411
vn 0.0067 0.7094 0.7048
vn -0.1308 0.7082 0.6938
vn -0.1131 0.7294 0.6747
vn 0.2163 0.6544 -0.7245
vn 0.0831 0.6341 -0.7688
vn -0.0085 0.8199 -0.5725
vn -0.0051 0.9764 -0.2157
vn 0.0005 0.9254 -0.3790
vn 0.1307 0.7188 0.6829
vn 0.0665 0.7426 0.6664
vn 0.0523 0.7677 -0.6386
vn -0.8621 0.4999 -0.0827
vn -0.4149 0.8968 0.1537
vn -0.3320 0.9353 -0.1224
vn -0.1861 0.9100 0.3705
vn -0.9530 0.3019 0.0268
vn -0.0603 0.7919 -0.6076
vn -0.0885 0.8043 -0.5876
vn -0.1592 0.7798 -0.6054
vn -0.1166 0.8485 -0.5162
vn 0.0196 0.8054 -0.5925
vn -0.0398 0.7201 -0.6927
vn 0.0023 0.9274 -0.3740
vn 0.0676 0.7649 0.6406
vn 0.0404 0.7650 0.6428
vn 0.0488 0.8609 0.5065
vn -0.6803 0.5838 0.4432
vn -0.5179 0.6114 0.5983
vn 0.5071 0.7746 0.3780
vn 0.0068 0.8196 -0.5730
vn 0.0130 0.8097 -0.5867
vn 0.0722 0.7390 -0.6698
vn 0.0052 0.9857 0.1687
vn 0.0333 0.9365 0.3490
vn 0.0143 0.9770 0.2127
vn 0.1657 0.7993 -0.5776
vn 0.1398 0.7904 -0.5964
vn 0.1910 0.7641 -0.6162
vn -0.0177 0.8020 -0.5971
vn 0.7505 0.6348 0.1839
vn 0.8233 0.5631 0.0712
vn 0.7749 0.5599 0.2933
vn -0.0336 0.8183 -0.5738
vn 0.0042 0.8271 -0.5620
vn 0.0166 0.9281 -0.3720
vn 0.5829 0.7154 -0.3852
vn 0.6612 0.7101 -0.2421
vn 0.5503 0.8008 -0.2364
vn 0.5485 0.7552 -0.3589
vn 0.7448 0.6133 -0.2630
vn 0.7344 0.5907 -0.3342
vn 0.5637 0.7918 -0.2352
vn 0.4929 0.8653 -0.0914
vn 0.0468 0.9572 -0.2855
vn 0.0315 0.9929 -0.1151
vn 0.4135 0.8613 -0.2953
vn 0.3841 0.8741 -0.2972
vn 0.4795 0.7822 -0.3979
vn 0.6337 0.7364 0.2371
vn 0.6447 0.7279 0.2337
vn 0.5583 0.7690 0.3112
vn 0.2386 0.8665 -0.4385
vn 0.1565 0.8060 -0.5708
vn 0.2333 0.7980 -0.5557
vn 0.0932 0.8876 -0.4510
vn 0.1065 0.8559 -0.5061
vn 0.4284 0.8669 0.2548
vn 0.4226 0.8787 0.2223
vn 0.4531 0.8914 -0.0069
vn 0.5317 0.8433 -0.0780
vn 0.4964 0.8601 0.1178
vn 0.1056 0.8851 -0.4533
vn 0.0632 0.9735 -0.2198
vn 0.2220 0.9073 -0.3570
vn 0.2444 0.9289 -0.2782
vn 0.2699 0.8843 -0.3810
vn 0.1238 0.9765 -0.1762
vn 0.2174 0.9691 -0.1166
vn 0.2452 0.9393 -0.2401
vn 0.3898 0.9186 0.0648
vn 0.3940 0.9076 0.1450
vn 0.1298 0.9152 -0.3814
vn 0.4855 0.8737 -0.0295
vn 0.4425 0.8731 -0.2045
vn 0.5049 0.8555 -0.1148
vn 0.1204 0.9908 -0.0625
vn 0.2468 0.9690 0.0131
vn 0.2562 0.9615 0.0994
vn 0.3643 0.9080 0.2072
vn 0.2860 0.9414 0.1787
vn 0.4092 0.9118 -0.0354
vn 0.3431 0.9349 -0.0910
vn 0.0573 0.9932 -0.1014
vn 0.2375 0.9007 0.3638
vn 0.1359 0.9409 0.3103
vn 0.1857 0.9564 0.2254
vn 0.3572 0.8855 0.2972
vn 0.3358 0.8696 0.3620
vn 0.4327 0.8858 0.1676
vn 0.4616 0.8435 0.2748
vn 0.0532 0.9981 -0.0325
vn 0.1405 0.9896 0.0304
vn 0.1805 0.9772 0.1118
vn 0.3382 0.9209 0.1941
vn 0.3672 0.9300 0.0176
vn 0.3875 0.9190 -0.0727
vn 0.4361 0.8997 -0.0171
vn 0.0399 0.9950 -0.0914
vn 0.0445 0.9880 -0.1478
vn 0.2161 0.9724 -0.0880
vn 0.3106 0.9378 -0.1548
vn 0.3288 0.9424 -0.0612
vn 0.1064 0.9909 0.0830
vn 0.4096 0.7575 0.5084
vn 0.0102 0.9999 0.0048
vn 0.3174 0.9416 0.1127
vn 0.2339 0.9602 0.1528
vn 0.3557 0.9305 0.0879
vn 0.3130 0.9495 -0.0207
vn 0.2597 0.9633 -0.0685
vn 0.3027 0.9530 0.0152
vn 0.1541 0.9875 -0.0339
vn 0.2258 0.9741 -0.0117
vn 0.1541 0.9878 0.0230
vn 0.0194 0.9983 0.0545
vn 0.0001 1.0000 0.0003
vn 0.2419 0.9702 -0.0137
vn 0.2459 0.9691 0.0205
vn 0.2607 0.9624 -0.0763
vn 0.1497 0.9881 -0.0349
vn 0.1210 0.9924 -0.0218
vn 0.0705 0.9972 -0.0267
vn 0.0982 0.9927 -0.0693
vn 0.0733 0.9973 0.0027
vn -0.0179 0.9996 -0.0200
vn 0.1208 0.9926 0.0116
vn 0.1816 0.9825 0.0404
vn 0.0600 0.9982 0.0076
vn 0.0027 1.0000 -0.0033
vn 0.0430 0.9986 -0.0306
vn -0.0762 0.9968 0.0256
vn -0.1298 0.9895 0.0636
vn -0.3737 0.9272 0.0246
vn -0.2335 0.9723 0.0132
vn -0.2228 0.9575 0.1829
vn -0.3094 0.9384 0.1538
vn -0.0775 0.9889 0.1264
vn -0.5624 0.8039 -0.1938
vn -0.4487 0.8723 -0.1946
vn -0.3469 0.9182 -0.1912
vn -0.4098 0.8760 0.2542
vn -0.4863 0.8506 0.1999
vn -0.7073 0.6839 -0.1790
vn -0.5265 0.8285 0.1908
vn -0.6303 0.7085 -0.3173
vn -0.5433 0.7767 -0.3187
vn -0.4046 0.8689 -0.2852
vn -0.2782 0.9288 -0.2447
vn -0.1710 0.9654 -0.1968
vn -0.4542 0.8150 0.3597
vn -0.5703 0.7747 0.2730
vn -0.6127 0.7900 -0.0228
vn -0.5515 0.8188 -0.1597
vn -0.4861 0.8739 0.0075
vn -0.4671 0.8416 0.2711
vn -0.5233 0.7784 0.3468
vn -0.6368 0.7152 0.2881
vn -0.6038 0.7330 -0.3133
vn -0.4991 0.7441 -0.4441
vn -0.3030 0.8800 -0.3658
vn -0.2162 0.9276 -0.3046
vn -0.1796 0.9411 0.2864
vn -0.5700 0.7380 0.3613
vn -0.5499 0.8023 -0.2322
vn -0.5246 0.8481 -0.0743
vn -0.4658 0.8381 0.2838
vn -0.4836 0.7397 0.4680
vn -0.6130 0.6898 0.3852
vn -0.6698 0.7285 0.1435
vn -0.6433 0.7531 -0.1379
vn -0.5797 0.7124 -0.3956
vn -0.5149 0.7110 -0.4789
vn -0.2181 0.8744 -0.4335
vn -0.2300 0.8270 0.5129
vn -0.4829 0.7687 0.4194
vn -0.5079 0.8477 0.1534
vn -0.4764 0.8681 0.1392
vn -0.4451 0.8643 0.2342
vn -0.4302 0.9027 0.0109
vn -0.4549 0.8614 -0.2261
vn -0.5283 0.8168 -0.2319
vn -0.6113 0.7894 -0.0564
vn -0.6352 0.7191 0.2819
vn -0.6444 0.5978 0.4767
vn -0.6754 0.6530 0.3426
vn -0.6677 0.7365 0.1084
vn -0.6938 0.7192 -0.0372
vn -0.7274 0.6135 -0.3074
vn -0.6799 0.5702 -0.4610
vn -0.5912 0.6028 -0.5359
vn -0.4807 0.6867 -0.5453
vn -0.2685 0.7704 -0.5783
vn -0.0246 0.9920 0.1238
vn -0.1731 0.7782 0.6037
vn -0.1977 0.7295 0.6548
vn -0.2737 0.7367 0.6184
vn -0.2892 0.8402 0.4586
vn -0.3073 0.9400 0.1485
vn -0.3080 0.9429 0.1267
vn -0.2701 0.9374 0.2199
vn -0.3060 0.9508 0.0484
vn -0.4751 0.8789 -0.0425
vn -0.5978 0.7972 -0.0841
vn -0.6234 0.7719 -0.1249
vn -0.6326 0.7581 -0.1584
vn -0.6973 0.7129 0.0739
vn -0.6891 0.6072 0.3954
vn -0.6909 0.5653 0.4506
vn -0.7244 0.6481 0.2349
vn -0.7137 0.6990 0.0448
vn -0.7206 0.6917 0.0480
vn -0.6784 0.6980 -0.2293
vn -0.5446 0.5950 -0.5911
vn -0.5023 0.5957 -0.6268
vn -0.4887 0.6195 -0.6143
vn -0.4116 0.6674 -0.6206
vn -0.1825 0.7080 0.6822
vn -0.2257 0.7353 0.6391
vn -0.2761 0.8440 0.4598
vn -0.3346 0.9245 0.1824
vn -0.3917 0.9061 0.1596
vn -0.4625 0.8552 0.2340
vn -0.5544 0.8167 0.1600
vn -0.6782 0.7158 0.1661
vn -0.7556 0.6542 -0.0321
vn -0.7325 0.6690 -0.1258
vn -0.7262 0.6775 -0.1166
vn -0.6864 0.7196 0.1054
vn -0.5934 0.6567 0.4654
vn -0.5794 0.6470 0.4957
vn -0.6110 0.7760 0.1566
vn -0.4441 0.8904 -0.0995
vn -0.2721 0.9622 -0.0108
vn -0.1207 0.9505 -0.2865
vn -0.0826 0.6714 -0.7365
vn -0.1654 0.7069 -0.6877
vn -0.2262 0.7091 -0.6678
vn -0.1737 0.6500 -0.7398
vn -0.0264 0.9775 0.2094
vn -0.0459 0.9360 0.3491
vn -0.2448 0.7088 0.6615
vn -0.3562 0.7919 0.4960
vn -0.4992 0.8315 0.2436
vn -0.5393 0.8186 0.1975
vn -0.5335 0.7839 0.3177
vn -0.5763 0.7554 0.3118
vn -0.5613 0.7773 0.2840
vn -0.5687 0.8180 -0.0864
vn -0.4754 0.8364 -0.2727
vn -0.4276 0.8932 -0.1392
vn -0.5459 0.8340 0.0798
vn -0.5179 0.6900 0.5056
vn -0.5202 0.7045 0.4827
vn -0.4362 0.8962 -0.0813
vn -0.0403 0.9201 -0.3896
vn 0.3239 0.9116 -0.2529
vn 0.4016 0.8362 -0.3735
vn 0.1866 0.7515 -0.6328
vn -0.0111 0.7571 -0.6532
vn 0.0137 0.7054 -0.7087
vn -0.1235 0.7118 0.6914
vn -0.2361 0.7389 0.6311
vn -0.4610 0.8110 0.3603
vn -0.5237 0.8399 0.1426
vn -0.4339 0.8327 0.3440
vn -0.3924 0.8448 0.3637
vn -0.3443 0.8999 0.2677
vn -0.2802 0.9522 -0.1214
vn -0.2033 0.9028 -0.3790
vn -0.3810 0.9226 0.0602
vn -0.6520 0.7398 0.1662
vn -0.5748 0.7114 0.4044
vn -0.3170 0.8516 0.4174
vn -0.1703 0.9358 -0.3087
vn 0.0528 0.7918 -0.6085
vn 0.1532 0.8994 -0.4094
vn 0.1371 0.9200 -0.3672
vn 0.0374 0.8722 -0.4876
vn 0.0130 0.7621 -0.6474
vn -0.0061 0.9674 0.2531
vn -0.0223 0.9140 0.4052
vn -0.0063 0.7828 0.6222
vn 0.0231 0.7238 0.6896
vn 0.0477 0.7125 0.7001
vn 0.0267 0.8972 0.4409
vn -0.1099 0.9722 0.2065
vn -0.3019 0.8512 0.4293
vn -0.3795 0.8866 0.2645
vn -0.2126 0.9743 0.0739
vn -0.0510 0.9874 -0.1497
vn -0.1028 0.9112 -0.3990
vn -0.1831 0.9634 0.1957
vn -0.6656 0.6194 0.4163
vn -0.3047 0.8483 0.4330
vn -0.2300 0.9097 0.3459
vn -0.2460 0.8747 -0.4176
vn -0.2651 0.7626 -0.5901
vn -0.2835 0.8448 -0.4537
vn -0.1474 0.8743 -0.4624
vn 0.1042 0.8404 -0.5319
vn 0.2688 0.7010 -0.6606
vn 0.0105 0.9128 0.4083
vn 0.0326 0.8051 0.5922
vn 0.1580 0.7393 0.6545
vn 0.2503 0.7339 0.6315
vn 0.3141 0.7830 0.5369
vn 0.1737 0.8690 0.4633
vn -0.1410 0.7881 0.5992
vn -0.1463 0.9799 0.1354
vn -0.0350 0.9908 -0.1310
vn -0.0908 0.9934 -0.0701
vn -0.3206 0.9307 -0.1763
vn -0.0633 0.9456 0.3193
vn -0.1019 0.9839 -0.1468
vn -0.3074 0.7689 -0.5606
vn -0.3666 0.7870 -0.4962
vn -0.1712 0.7295 -0.6622
vn 0.1844 0.6698 -0.7192
vn 0.2713 0.6881 -0.6730
vn 0.1886 0.7397 -0.6459
vn 0.1342 0.7515 0.6460
vn 0.0390 0.7493 0.6611
vn -0.1433 0.7433 0.6534
vn -0.3018 0.7586 0.5775
vn -0.1117 0.8452 0.5227
vn -0.0300 0.9862 0.1625
vn -0.1727 0.9807 -0.0922
vn -0.2684 0.9624 0.0421
vn -0.1870 0.9776 -0.0964
vn 0.1500 0.9452 0.2899
vn 0.3718 0.9275 0.0395
vn 0.4918 0.8701 -0.0339
vn 0.3465 0.8430 -0.4115
vn 0.1854 0.8352 -0.5177
vn 0.0746 0.7701 -0.6335
vn -0.0501 0.6024 -0.7966
vn -0.0677 0.7508 -0.6571
vn 0.0341 0.9177 0.3958
vn 0.0624 0.7445 0.6648
vn 0.0571 0.7268 0.6845
vn -0.0618 0.6466 0.7603
vn -0.0814 0.7546 0.6512
vn 0.0405 0.8772 0.4785
vn 0.2434 0.9233 0.2972
vn 0.0252 0.9996 0.0082
vn 0.1045 0.9945 -0.0095
vn 0.2184 0.9565 -0.1934
vn 0.1819 0.9512 -0.2494
vn 0.1370 0.9378 0.3191
vn 0.2450 0.9472 0.2067
vn 0.3346 0.9064 -0.2579
vn 0.5262 0.8295 -0.1874
vn 0.6243 0.7369 -0.2592
vn 0.5282 0.8010 -0.2817
vn 0.2693 0.7949 -0.5437
vn 0.0463 0.6461 -0.7619
vn -0.0941 0.7431 -0.6625
vn 0.0738 0.7541 0.6526
vn 0.0844 0.7229 0.6858
vn 0.1836 0.6551 0.7328
vn 0.3718 0.7064 0.6024
vn 0.5182 0.7865 0.3360
vn 0.5230 0.8352 0.1699
vn 0.4696 0.8816 -0.0471
vn 0.4192 0.8796 -0.2248
vn 0.3146 0.9443 -0.0963
vn 0.3228 0.9037 0.2812
vn 0.4674 0.8735 0.1360
vn 0.4534 0.8488 -0.2720
vn 0.4801 0.8187 -0.3150
vn 0.4069 0.8875 -0.2163
vn 0.3620 0.9246 -0.1183
vn 0.2930 0.8550 -0.4279
vn 0.1951 0.7024 -0.6846
vn 0.1289 0.7551 -0.6429
vn 0.1594 0.8256 -0.5412
vn 0.1582 0.7699 -0.6182
vn 0.1289 0.7949 0.5929
vn 0.2190 0.7342 0.6427
vn 0.1749 0.6968 0.6956
vn 0.1574 0.7028 0.6937
vn 0.3300 0.8242 0.4601
vn 0.5232 0.8100 0.2650
vn 0.5517 0.8010 0.2325
vn 0.5727 0.7690 0.2840
vn 0.6339 0.7520 0.1810
vn 0.6926 0.7185 -0.0637
vn 0.6845 0.7154 -0.1401
vn 0.7167 0.6963 -0.0389
vn 0.7173 0.6859 0.1227
vn 0.7659 0.6429 0.0116
vn 0.7417 0.6692 -0.0448
vn 0.6101 0.7710 -0.1828
vn 0.4475 0.8892 -0.0953
vn 0.3616 0.9302 -0.0624
vn 0.3251 0.8347 -0.4445
vn 0.1560 0.8222 -0.5474
vn 0.1174 0.7933 -0.5974
vn 0.1422 0.8066 0.5737
vn 0.1499 0.6977 0.7005
vn 0.1543 0.7378 0.6572
vn 0.2999 0.9114 0.2817
vn 0.4644 0.8811 0.0894
vn 0.5190 0.8091 0.2756
vn 0.5849 0.7916 0.1769
vn 0.6549 0.7517 -0.0777
vn 0.7153 0.6847 -0.1397
vn 0.7761 0.6033 -0.1835
vn 0.8368 0.5322 -0.1290
vn 0.8618 0.5025 0.0697
vn 0.6363 0.7704 0.0403
vn 0.5278 0.8454 0.0826
vn 0.4392 0.8984 -0.0008
vn 0.2753 0.8958 -0.3490
vn 0.0483 0.8589 -0.5099
vn 0.0105 0.9591 0.2830
vn 0.0230 0.8851 0.4649
vn 0.0409 0.8526 0.5209
vn 0.0119 0.8278 0.5608
vn 0.0120 0.6954 0.7185
vn 0.0834 0.7606 0.6438
vn 0.2061 0.9665 0.1530
vn 0.2686 0.9628 -0.0296
vn 0.3165 0.9138 0.2547
vn 0.4519 0.8899 0.0623
vn 0.7574 0.6509 0.0515
vn 0.6636 0.7173 0.2123
vn 0.5566 0.8073 0.1959
vn 0.4805 0.8698 0.1121
vn 0.4162 0.8827 -0.2180
vn 0.3119 0.7868 -0.5327
vn 0.3369 0.8758 -0.3457
vn 0.0117 0.8800 -0.4749
vn -0.0738 0.7922 0.6057
vn -0.0763 0.7136 0.6963
vn 0.0369 0.8217 0.5687
vn 0.1652 0.9841 0.0653
vn 0.2527 0.9626 -0.0979
vn 0.3541 0.9225 0.1539
vn 0.5517 0.8336 -0.0276
vn 0.6164 0.7318 0.2907
vn 0.6821 0.6591 0.3169
vn 0.6858 0.6514 0.3247
vn 0.6437 0.7000 0.3092
vn 0.5843 0.7951 0.1625
vn 0.5549 0.8200 -0.1402
vn 0.1424 0.9459 -0.2915
vn 0.0658 0.9009 -0.4289
vn 0.0612 0.8196 -0.5697
vn 0.0645 0.7919 -0.6072
vn -0.0740 0.7417 0.6667
vn -0.0474 0.7478 0.6622
vn 0.0031 0.8163 0.5776
vn 0.0864 0.8850 0.4575
vn 0.2424 0.9696 -0.0323
vn 0.3423 0.9209 -0.1864
vn 0.4796 0.8768 -0.0350
vn 0.3217 0.9112 -0.2572
vn 0.4120 0.9051 -0.1047
vn 0.4720 0.8650 0.1699
vn 0.5458 0.7838 0.2963
vn 0.5989 0.7303 0.3287
vn 0.6088 0.7913 -0.0572
vn 0.5176 0.8457 -0.1302
vn 0.3715 0.9181 -0.1382
vn 0.2885 0.8808 -0.3755
vn 0.0188 0.9941 0.1066
vn 0.0267 0.9699 0.2421
vn 0.0608 0.8970 0.4378
vn 0.0639 0.8139 0.5775
vn 0.0874 0.7401 0.6668
vn 0.1296 0.7845 0.6064
vn 0.2537 0.9144 0.3153
vn 0.3627 0.9235 -0.1246
vn 0.4266 0.8719 -0.2404
vn 0.4645 0.8709 -0.1606
vn 0.4826 0.8183 -0.3121
vn 0.4608 0.7975 -0.3895
vn 0.3135 0.9435 -0.1071
vn 0.3616 0.9296 0.0713
vn 0.6197 0.7817 0.0701
vn 0.4238 0.8563 -0.2953
vn 0.1355 0.8369 0.5304
vn 0.2389 0.7660 0.5968
vn 0.3746 0.7646 0.5245
vn 0.4646 0.8565 0.2246
vn 0.4786 0.8618 -0.1682
vn 0.4471 0.8618 -0.2396
vn 0.4327 0.8879 -0.1562
vn 0.3492 0.8813 -0.3183
vn 0.2154 0.9440 -0.2500
vn 0.2942 0.9409 0.1680
vn 0.4792 0.8431 0.2440
vn 0.3589 0.9161 -0.1788
vn 0.2641 0.9070 -0.3281
vn 0.0566 0.9869 0.1512
vn 0.1087 0.9139 0.3911
vn 0.1871 0.8687 0.4586
vn 0.3203 0.8242 0.4670
vn 0.4401 0.7841 0.4375
vn 0.5485 0.8020 0.2366
vn 0.4262 0.8993 -0.0984
vn 0.3378 0.9154 -0.2188
vn 0.2258 0.9723 0.0609
vn 0.2844 0.9180 -0.2763
vn 0.2140 0.8967 -0.3875
vn 0.4276 0.8993 -0.0914
vn 0.3920 0.9142 -0.1030
vn 0.2745 0.9295 -0.2465
vn 0.1686 0.9477 -0.2709
vn 0.3607 0.9061 -0.2211
vn 0.2771 0.9141 -0.2961
vn 0.1708 0.9419 -0.2893
vn 0.3468 0.9359 -0.0621
vn 0.3008 0.9529 -0.0395
vn 0.2345 0.9636 -0.1285
vn 0.1516 0.9663 -0.2080
vn 0.3086 0.9502 0.0435
vn 0.2113 0.9598 -0.1849
vn 0.2119 0.9681 -0.1339
vn 0.1486 0.9760 -0.1595
vn 0.0739 0.9971 0.0197
vn 0.1266 0.9900 0.0617
vn 0.1444 0.9834 -0.1096
vn 0.3327 0.9428 0.0207
vn 0.1144 0.9924 0.0461
s 1
f 12//1 4//2 3//3
f 13//4 4//2 12//1
f 18//5 6//6 17//7
f 19//8 6//6 18//5
f 20//9 6//6 19//8
f 21//10 6//6 20//9
f 39//11 7//12 21//10
f 25//13 11//14 10//15
f 28//16 12//1 27//17
f 29//18 13//4 28//16
f 34//19 17//7 16//20
f 35//21 17//7 34//19
f 39//11 21//10 20//9
f 44//22 26//23 25//13
f 45//24 30//25 13//4
f 31//26 14//27 46//28
f 48//29 33//30 32//31
f 49//32 34//19 33//30
f 8//33 1//34 57//35
f 73//36 50//37 49//32
f 79//38 58//39 8//33
f 81//40 59//41 41//42
f 84//43 63//44 62//45
f 85//46 65//47 64//48
f 87//49 66//50 86//51
f 99//52 76//53 98//54
f 40//55 39//11 102//56
f 105//57 82//58 59//41
f 88//59 87//49 112//60
f 102//56 101//61 125//62
f 127//63 103//64 79//38
f 40//55 102//56 152//65
f 152//65 151//66 178//67
f 181//68 154//69 153//70
f 178//67 177//71 203//72
f 40//55 152//65 204//73
f 227//74 203//72 202//75
f 227//74 178//67 203//72
f 232//76 206//77 205//78
f 252//79 227//74 226//80
f 253//81 178//67 227//74
f 228//82 204//73 254//83
f 258//84 232//76 257//85
f 279//86 253//81 227//74
f 290//87 268//88 289//89
f 290//87 270//90 269//91
f 254//83 253//81 300//92
f 325//93 299//94 324//95
f 327//96 300//92 326//97
f 328//98 228//82 254//83
f 331//99 303//100 330//101
f 339//102 310//103 338//104
f 328//98 327//96 355//105
f 379//106 355//105 354//107
f 380//108 329//109 301//110
f 399//111 376//112 375//113
f 355//105 379//106 401//114
f 394//115 393//116 418//117
f 426//118 401//114 379//106
f 427//119 448//120 355//105
f 435//121 414//122 413//123
f 436//124 416//125 415//126
f 456//127 435//121 434//128
f 472//129 402//130 448//120
f 485//131 458//132 457//133
f 490//134 464//135 489//136
f 494//137 470//138 469//139
f 495//140 472//129 471//141
f 511//142 489//136 488//143
f 514//144 492//145 513//146
f 517//147 495//140 494//137
f 518//148 402//130 472//129
f 530//149 505//150 504//151
f 531//152 508//153 507//154
f 535//155 513//146 534//156
f 539//157 518//148 495//140
f 544//158 527//159 526//160
f 549//161 509//162 508//153
f 553//163 533//164 552//165
f 535//155 534//156 553//163
f 554//166 536//167 535//155
f 558//168 402//130 518//148
f 541//169 540//170 560//171
f 561//172 542//173 541//169
f 562//174 543//175 561//172
f 570//176 550//177 549//161
f 553//163 552//165 551//178
f 575//179 541//169 560//171
f 562//174 561//172 575//179
f 576//180 564//181 563//182
f 581//183 570//176 569//184
f 586//185 573//186 572//187
f 590//188 559//189 589//190
f 592//191 575//179 591//192
f 576//180 562//174 593//193
f 595//194 578//195 577//196
f 601//197 585//198 600//199
f 601//197 586//185 585//198
f 589//190 519//200 602//201
f 606//202 595//194 605//203
f 606//202 596//204 595//194
f 606//202 597//205 596//204
f 607//206 582//207 598//208
f 607//206 599//209 582//207
f 608//210 600//199 599//209
f 608//210 601//197 600//199
f 610//211 604//212 609//213
f 607//206 597//205 606//202
f 611//214 608//210 599//209
f 611//214 588//215 608//210
f 8//33 2//216 1//34
f 8//33 9//217 2//216
f 9//217 10//15 2//216
f 4//2 14//27 15//218 5//219
f 11//14 12//1 3//3
f 13//4 14//27 4//2
f 5//219 16//20 17//7 6//6
f 15//218 16//20 5//219
f 9//217 8//33 23//220 24//221
f 21//10 7//12 6//6
f 22//222 23//220 8//33
f 10//15 9//217 24//221 25//13
f 12//1 11//14 25//13 26//23
f 16//20 15//218 32//31 33//30
f 26//23 27//17 12//1
f 28//16 13//4 12//1
f 30//25 14//27 13//4
f 31//26 15//218 14//27
f 31//26 32//31 15//218
f 17//7 35//21 36//223 18//5
f 33//30 34//19 16//20
f 18//5 36//223 37//224 19//8
f 19//8 37//224 38//225 20//9
f 24//221 23//220 41//42 42//226
f 40//55 7//12 39//11
f 25//13 24//221 42//226 43//227
f 34//19 50//37 51//228 35//21
f 43//227 44//22 25//13
f 45//24 13//4 29//18
f 46//28 14//27 30//25
f 31//26 47//229 32//31
f 47//229 48//29 32//31
f 48//29 49//32 33//30
f 49//32 50//37 34//19
f 35//21 51//228 52//230 36//223
f 36//223 52//230 53//231 37//224
f 37//224 53//231 54//232 38//225
f 38//225 54//232 55//233 20//9
f 20//9 55//233 56//234 39//11
f 23//220 22//222 58//39 41//42
f 8//33 58//39 22//222
f 42//226 41//42 59//41 60//235
f 43//227 42//226 60//235 61//236
f 44//22 43//227 61//236 62//45
f 26//23 44//22 62//45 63//44
f 27//17 26//23 63//44 64//48
f 28//16 27//17 64//48 65//47
f 28//16 65//47 66//50 29//18
f 30//25 45//24 66//50 67//237
f 66//50 45//24 29//18
f 30//25 67//237 68//238 46//28
f 46//28 68//238 69//239 31//26
f 47//229 31//26 69//239 70//240
f 48//29 47//229 70//240 71//241
f 49//32 48//29 71//241 72//242
f 50//37 73//36 74//243 51//228
f 72//242 73//36 49//32
f 3//3 2//216 10//15 11//14
f 51//228 74//243 75//244 52//230
f 52//230 75//244 76//53 53//231
f 54//232 76//53 77//245 55//233
f 76//53 54//232 53//231
f 55//233 77//245 78//246 56//234
f 41//42 58//39 80//247 81//40
f 57//35 79//38 8//33
f 79//38 80//247 58//39
f 61//236 60//235 82//58 83//248
f 59//41 82//58 60//235
f 62//45 61//236 83//248 84//43
f 64//48 63//44 84//43 85//46
f 65//47 85//46 86//51 66//50
f 67//237 66//50 87//49 88//59
f 67//237 88//59 89//249 68//238
f 68//238 89//249 90//250 69//239
f 70//240 69//239 90//250 91//251
f 71//241 70//240 91//251 92//252
f 72//242 71//241 92//252 93//253
f 73//36 72//242 93//253 94//254
f 73//36 95//255 96//256 74//243
f 94//254 95//255 73//36
f 74//243 96//256 97//257 75//244
f 75//244 97//257 98//54 76//53
f 76//53 99//52 100//258 77//245
f 78//246 100//258 101//61 56//234
f 100//258 78//246 77//245
f 56//234 101//61 102//56 39//11
f 81//40 80//247 103//64 104//259
f 79//38 103//64 80//247
f 59//41 81//40 104//259 105//57
f 83//248 82//58 105//57 106//260
f 84//43 83//248 106//260 107//261
f 85//46 84//43 108//262 109//263
f 107//261 108//262 84//43
f 85//46 110//264 111//265 86//51
f 109//263 110//264 85//46
f 86//51 111//265 112//60 87//49
f 89//249 113//266 114//267 90//250
f 113//266 89//249 88//59
f 91//251 90//250 114//267 115//268
f 92//252 91//251 115//268 116//269
f 93//253 92//252 116//269 117//270
f 94//254 93//253 117//270 118//271
f 95//255 94//254 118//271 119//272
f 95//255 119//272 120//273 96//256
f 96//256 120//273 121//274 97//257
f 97//257 121//274 122//275 98//54
f 98//54 122//275 123//276 99//52
f 99//52 123//276 124//277 100//258
f 79//38 57//35 126//278 127//63
f 125//62 101//61 100//258
f 105//57 104//259 128//279 129//280
f 103//64 128//279 104//259
f 106//260 105//57 130//281 131//282
f 129//280 130//281 105//57
f 107//261 106//260 131//282 132//283
f 107//261 132//283 133//284 108//262
f 109//263 108//262 133//284 134//285
f 110//264 109//263 134//285 135//286
f 110//264 135//286 136//287 111//265
f 111//265 136//287 137//288 112//60
f 112//60 137//288 138//289 88//59
f 88//59 138//289 139//290 113//266
f 113//266 139//290 140//291 114//267
f 115//268 114//267 140//291 141//292
f 116//269 115//268 141//292 142//293
f 117//270 116//269 142//293 143//294
f 118//271 117//270 143//294 144//295
f 119//272 118//271 144//295 145//296
f 119//272 145//296 146//297 120//273
f 120//273 146//297 147//298 121//274
f 121//274 147//298 148//299 122//275
f 122//275 148//299 149//300 123//276
f 123//276 149//300 150//301 124//277
f 100//258 124//277 151//66 125//62
f 125//62 151//66 152//65 102//56
f 128//279 103//64 153//70 154//69
f 127//63 153//70 103//64
f 129//280 128//279 154//69 155//302
f 130//281 129//280 155//302 156//303
f 131//282 130//281 156//303 157//304
f 132//283 131//282 157//304 158//305
f 132//283 158//305 159//306 133//284
f 134//285 133//284 159//306 160//307
f 135//286 134//285 160//307 161//308
f 136//287 135//286 161//308 162//309
f 137//288 136//287 162//309 163//310
f 137//288 163//310 164//311 138//289
f 138//289 164//311 165//312 139//290
f 139//290 165//312 166//313 140//291
f 141//292 140//291 166//313 167//314
f 142//293 141//292 167//314 168//315
f 143//294 142//293 168//315 169//316
f 144//295 143//294 169//316 170//317
f 144//295 170//317 171//318 145//296
f 146//297 145//296 171//318 172//319
f 146//297 172//319 173//320 147//298
f 147//298 173//320 174//321 148//299
f 148//299 174//321 175//322 149//300
f 149//300 175//322 176//323 150//301
f 150//301 176//323 177//71 124//277
f 124//277 177//71 178//67 151//66
f 127//63 126//278 179//324 180//325
f 153//70 127//63 180//325 181//68
f 157//304 156//303 182//326 183//327
f 155//302 182//326 156//303
f 158//305 157//304 183//327 184//328
f 159//306 158//305 184//328 185//329
f 160//307 159//306 185//329 186//330
f 161//308 160//307 186//330 187//331
f 162//309 161//308 187//331 188//332
f 163//310 162//309 188//332 189//333
f 163//310 189//333 190//334 164//311
f 164//311 190//334 191//335 165//312
f 165//312 191//335 192//336 166//313
f 167//314 166//313 192//336 193//337
f 168//315 167//314 193//337 194//338
f 169//316 168//315 194//338 195//339
f 169//316 195//339 196//340 170//317
f 171//318 170//317 196//340 197//341
f 172//319 171//318 197//341 198//342
f 173//320 172//319 198//342 199//343
f 174//321 173//320 199//343 200//344
f 174//321 200//344 201//345 175//322
f 176//323 175//322 201//345 202//75
f 176//323 202//75 203//72 177//71
f 155//302 154//69 205//78 206//77
f 204//73 152//65 178//67
f 181//68 205//78 154//69
f 182//326 155//302 206//77 207//346
f 183//327 182//326 207//346 208//347
f 184//328 183//327 208//347 209//348
f 185//329 184//328 209//348 210//349
f 186//330 185//329 210//349 211//350
f 187//331 186//330 211//350 212//351
f 188//332 187//331 212//351 213//352
f 189//333 188//332 213//352 214//353
f 189//333 214//353 215//354 190//334
f 191//335 190//334 215//354 216//355
f 191//335 216//355 217//356 192//336
f 193//337 192//336 217//356 218//357
f 194//338 193//337 218//357 219//358
f 195//339 194//338 219//358 220//359
f 195//339 220//359 221//360 196//340
f 197//341 196//340 221//360 222//361
f 198//342 197//341 222//361 223//362
f 199//343 198//342 223//362 224//363
f 199//343 224//363 225//364 200//344
f 200//344 225//364 226//80 201//345
f 202//75 201//345 226//80 227//74
f 180//325 179//324 229//365 230//366
f 228//82 40//55 204//73
f 181//68 180//325 230//366 231//367
f 205//78 181//68 231//367 232//76
f 207//346 206//77 232//76 233//368
f 208//347 207//346 233//368 234//369
f 209//348 208//347 234//369 235//370
f 210//349 209//348 235//370 236//371
f 211//350 210//349 236//371 237//372
f 212//351 211//350 237//372 238//373
f 213//352 212//351 238//373 239//374
f 214//353 213//352 239//374 240//375
f 214//353 240//375 241//376 215//354
f 215//354 241//376 242//377 216//355
f 217//356 216//355 242//377 243//378
f 218//357 217//356 243//378 244//379
f 219//358 218//357 244//379 245//380
f 219//358 245//380 246//381 220//359
f 221//360 220//359 246//381 247//382
f 222//361 221//360 247//382 248//383
f 222//361 248//383 249//384 223//362
f 223//362 249//384 250//385 224//363
f 225//364 224//363 250//385 251//386
f 226//80 225//364 251//386 252//79
f 204//73 178//67 253//81 254//83
f 231//367 230//366 255//387 256//388
f 229//365 255//387 230//366
f 231//367 256//388 257//85 232//76
f 232//76 258//84 259//389 233//368
f 233//368 259//389 260//390 234//369
f 234//369 260//390 261//391 235//370
f 235//370 261//391 262//392 236//371
f 236//371 262//392 263//393 237//372
f 238//373 237//372 263//393 264//394
f 238//373 264//394 265//395 239//374
f 239//374 265//395 266//396 240//375
f 241//376 240//375 266//396 267//397
f 242//377 241//376 267//397 268//88
f 242//377 268//88 269//91 243//378
f 244//379 243//378 269//91 270//90
f 245//380 244//379 270//90 271//398
f 246//381 245//380 271//398 272//399
f 246//381 272//399 273//400 247//382
f 247//382 273//400 274//401 248//383
f 248//383 274//401 275//402 249//384
f 250//385 249//384 275//402 276//403
f 251//386 250//385 276//403 277//404
f 252//79 251//386 277//404 278//405
f 227//74 252//79 278//405 279//86
f 259//389 280//406 281//407 260//390
f 280//406 259//389 258//84
f 260//390 281//407 282//408 261//391
f 261//391 282//408 283//409 262//392
f 263//393 262//392 283//409 284//410
f 264//394 263//393 284//410 285//411
f 265//395 264//394 285//411 286//412
f 266//396 265//395 286//412 287//413
f 267//397 266//396 287//413 288//414
f 267//397 288//414 289//89 268//88
f 270//90 291//415 292//416 271//398
f 290//87 269//91 268//88
f 290//87 291//415 270//90
f 271//398 292//416 293//417 272//399
f 273//400 272//399 293//417 294//418
f 273//400 294//418 295//419 274//401
f 274//401 295//419 296//420 275//402
f 275//402 296//420 297//421 276//403
f 277//404 276//403 297//421 298//422
f 278//405 277//404 298//422 299//94
f 279//86 299//94 300//92 253//81
f 299//94 279//86 278//405
f 229//365 301//110 302//423 255//387
f 255//387 302//423 303//100 256//388
f 257//85 303//100 304//424 258//84
f 303//100 257//85 256//388
f 258//84 304//424 305//425 280//406
f 281//407 280//406 305//425 306//426
f 282//408 281//407 306//426 307//427
f 283//409 282//408 307//427 308//428
f 284//410 283//409 308//428 309//429
f 284//410 309//429 310//103 285//411
f 286//412 285//411 310//103 311//430
f 286//412 311//430 312//431 287//413
f 287//413 312//431 313//432 288//414
f 288//414 313//432 314//433 289//89
f 289//89 314//433 315//434 290//87
f 291//415 290//87 315//434 316//435
f 292//416 291//415 316//435 317//436
f 292//416 317//436 318//437 293//417
f 294//418 293//417 318//437 319//438
f 295//419 294//418 319//438 320//439
f 296//420 295//419 320//439 321//440
f 297//421 296//420 321//440 322//441
f 297//421 322//441 323//442 298//422
f 298//422 323//442 324//95 299//94
f 299//94 325//93 326//97 300//92
f 254//83 300//92 327//96 328//98
f 302//423 329//109 330//101 303//100
f 329//109 302//423 301//110
f 304//424 303//100 331//99 332//443
f 304//424 332//443 333//444 305//425
f 305//425 333//444 334//445 306//426
f 306//426 334//445 335//446 307//427
f 307//427 335//446 336//447 308//428
f 308//428 336//447 337//448 309//429
f 309//429 337//448 338//104 310//103
f 311//430 339//102 340//449 312//431
f 339//102 311//430 310//103
f 313//432 312//431 340//449 341//450
f 314//433 313//432 341//450 342//451
f 315//434 314//433 342//451 343//452
f 315//434 343//452 344//453 316//435
f 317//436 316//435 344//453 345//454
f 318//437 317//436 345//454 346//455
f 319//438 318//437 346//455 347//456
f 320//439 319//438 347//456 348//457
f 321//440 320//439 348//457 349//458
f 322//441 321//440 349//458 350//459
f 323//442 322//441 350//459 351//460
f 324//95 323//442 351//460 352//461
f 325//93 324//95 352//461 353//462
f 326//97 325//93 353//462 354//107
f 327//96 326//97 354//107 355//105
f 331//99 356//463 357//464 332//443
f 356//463 331//99 330//101
f 332//443 357//464 358//465 333//444
f 333//444 358//465 359//466 334//445
f 334//445 359//466 360//467 335//446
f 335//446 360//467 361//468 336//447
f 336//447 361//468 362//469 337//448
f 337//448 362//469 363//470 338//104
f 338//104 363//470 364//471 339//102
f 340//449 339//102 364//471 365//472
f 341//450 340//449 365//472 366//473
f 342//451 341//450 366//473 367//474
f 342//451 367//474 368//475 343//452
f 343//452 368//475 369//476 344//453
f 345//454 344//453 369//476 370//477
f 346//455 345//454 370//477 371//478
f 347//456 346//455 371//478 372//479
f 347//456 372//479 373//480 348//457
f 349//458 348//457 373//480 374//481
f 350//459 349//458 374//481 375//113
f 351//460 350//459 375//113 376//112
f 352//461 351//460 376//112 377//482
f 353//462 352//461 377//482 378//483
f 354//107 353//462 378//483 379//106
f 357//464 381//484 382//485 358//465
f 381//484 357//464 356//463
f 358//465 382//485 383//486 359//466
f 359//466 383//486 384//487 360//467
f 360//467 384//487 385//488 361//468
f 361//468 385//488 386//489 362//469
f 362//469 386//489 387//490 363//470
f 363//470 387//490 388//491 364//471
f 365//472 364//471 388//491 389//492
f 366//473 365//472 389//492 390//493
f 367//474 366//473 390//493 391//494
f 367//474 391//494 392//495 368//475
f 368//475 392//495 393//116 369//476
f 370//477 369//476 393//116 394//115
f 370//477 394//115 395//496 371//478
f 372//479 371//478 395//496 396//497
f 372//479 396//497 397//498 373//480
f 374//481 373//480 397//498 398//499
f 375//113 374//481 398//499 399//111
f 378//483 377//482 400//500 379//106
f 376//112 400//500 377//482
f 328//98 448//120 402//130 228//82
f 355//105 448//120 328//98
f 330//101 329//109 403//501 404//502
f 380//108 403//501 329//109
f 330//101 404//502 405//503 356//463
f 356//463 405//503 406//504 381//484
f 381//484 406//504 407//505 382//485
f 382//485 407//505 408//506 383//486
f 383//486 408//506 409//507 384//487
f 385//488 384//487 409//507 410//508
f 385//488 410//508 411//509 386//489
f 386//489 411//509 412//510 387//490
f 388//491 387//490 412//510 413//123
f 389//492 388//491 413//123 414//122
f 390//493 389//492 414//122 415//126
f 391//494 390//493 415//126 416//125
f 392//495 391//494 416//125 417//511
f 392//495 417//511 418//117 393//116
f 395//496 419//512 420//513 396//497
f 419//512 395//496 394//115
f 396//497 420//513 421//514 397//498
f 398//499 397//498 421//514 422//515
f 399//111 398//499 422//515 423//516
f 376//112 399//111 423//516 424//517
f 400//500 376//112 424//517 425//518
f 400//500 425//518 426//118 379//106
f 407//505 406//504 428//519 429//520
f 401//114 427//119 355//105
f 428//519 405//503 404//502
f 428//519 406//504 405//503
f 408//506 407//505 429//520 430//521
f 408//506 430//521 431//522 409//507
f 410//508 409//507 431//522 432//523
f 410//508 432//523 433//524 411//509
f 411//509 433//524 434//128 412//510
f 413//123 412//510 434//128 435//121
f 415//126 414//122 435//121 436//124
f 417//511 416//125 436//124 437//525
f 417//511 437//525 438//526 418//117
f 418//117 438//526 439//527 394//115
f 394//115 439//527 440//528 419//512
f 419//512 440//528 441//529 420//513
f 420//513 441//529 442//530 421//514
f 421//514 442//530 443//531 422//515
f 423//516 422//515 443//531 424//517
f 425//518 424//517 444//532 445//533
f 425//518 445//533 446//534 426//118
f 426//118 446//534 447//535 401//114
f 427//119 401//114 447//535 448//120
f 429//520 428//519 450//536 451//537
f 449//538 428//519 404//502
f 449//538 450//536 428//519
f 430//521 429//520 451//537 452//539
f 430//521 452//539 453//540 431//522
f 432//523 431//522 453//540 454//541
f 432//523 454//541 455//542 433//524
f 433//524 455//542 456//127 434//128
f 436//124 435//121 457//133 458//132
f 437//525 436//124 459//543 460//544
f 458//132 459//543 436//124
f 437//525 460//544 461//545 438//526
f 438//526 461//545 462//546 439//527
f 439//527 462//546 463//547 440//528
f 440//528 463//547 464//135 441//529
f 442//530 464//135 465//548 443//531
f 464//135 442//530 441//529
f 424//517 443//531 465//548 466//549
f 444//532 424//517 466//549 467//550
f 445//533 444//532 467//550 468//551
f 446//534 445//533 468//551 469//139
f 447//535 446//534 469//139 470//138
f 448//120 447//535 470//138 471//141
f 380//108 473//552 474//553 403//501
f 471//141 472//129 448//120
f 403//501 474//553 475//554 404//502
f 404//502 475//554 476//555 449//538
f 449//538 476//555 477//556 450//536
f 450//536 477//556 478//557 451//537
f 451//537 478//557 479//558 452//539
f 452//539 479//558 480//559 453//540
f 454//541 453//540 480//559 481//560
f 455//542 454//541 481//560 482//561
f 456//127 455//542 482//561 483//562
f 435//121 456//127 483//562 484//563
f 457//133 435//121 484//563 485//131
f 461//545 460//544 486//564 487//565
f 459//543 486//564 460//544
f 461//545 487//565 488//143 462//546
f 462//546 488//143 489//136 463//547
f 464//135 490//134 491//566 465//548
f 489//136 464//135 463//547
f 466//549 465//548 491//566 492//145
f 468//551 467//550 492//145 493//567
f 492//145 467//550 466//549
f 469//139 468//551 493//567 494//137
f 471//141 470//138 494//137 495//140
f 476//555 496//568 497//569 477//556
f 496//568 476//555 475//554
f 477//556 497//569 498//570 478//557
f 478//557 498//570 499//571 479//558
f 479//558 499//571 500//572 480//559
f 481//560 480//559 500//572 501//573
f 482//561 481//560 501//573 502//574
f 483//562 482//561 502//574 503//575
f 484//563 483//562 503//575 504//151
f 485//131 484//563 504//151 505//150
f 458//132 485//131 505//150 506//576
f 459//543 458//132 506//576 507//154
f 486//564 459//543 507//154 508//153
f 487//565 486//564 508//153 509//162
f 487//565 509//162 510//577 488//143
f 489//136 511//142 512//578 490//134
f 490//134 512//578 513//146 491//566
f 493//567 492//145 514//144 515//579
f 513//146 492//145 491//566
f 494//137 493//567 515//579 516//580
f 473//552 519//200 520//581 474//553
f 516//580 517//147 494//137
f 495//140 518//148 472//129
f 474//553 520//581 521//582 475//554
f 475//554 521//582 522//583 496//568
f 496//568 522//583 523//584 497//569
f 497//569 523//584 524//585 498//570
f 498//570 524//585 525//586 499//571
f 499//571 525//586 526//160 500//572
f 501//573 500//572 526//160 527//159
f 502//574 501//573 527//159 528//587
f 503//575 502//574 528//587 529//588
f 504//151 503//575 529//588 530//149
f 488//143 510//577 533//164 511//142
f 506//576 531//152 507//154
f 532//589 510//577 509//162
f 512//578 533//164 534//156 513//146
f 533//164 512//578 511//142
f 513//146 535//155 536//167 514//144
f 516//580 515//579 536//167 537//590
f 536//167 515//579 514//144
f 517//147 516//580 537//590 538//591
f 495//140 517//147 538//591 539//157
f 521//582 540//170 541//169 522//583
f 540//170 521//582 520//581
f 522//583 541//169 542//173 523//584
f 523//584 542//173 543//175 524//585
f 525//586 543//175 544//158 526//160
f 543//175 525//586 524//585
f 528//587 545//592 546//593 529//588
f 527//159 545//592 528//587
f 530//149 529//588 546//593 547//594
f 505//150 530//149 547//594 548//595
f 506//576 505//150 548//595 531//152
f 532//589 509//162 549//161 550//177
f 531//152 549//161 508//153
f 532//589 550//177 551//178 510//577
f 510//577 551//178 552//165 533//164
f 537//590 536//167 554//166 555//596
f 553//163 534//156 533//164
f 538//591 537//590 555//596 556//597
f 539//157 538//591 556//597 557//598
f 518//148 539//157 557//598 558//168
f 520//581 559//189 560//171 540//170
f 559//189 520//581 519//200
f 543//175 562//174 563//182 544//158
f 561//172 543//175 542//173
f 527//159 544//158 563//182 564//181
f 545//592 527//159 564//181 565//599
f 546//593 545//592 565//599 566//600
f 547//594 546//593 566//600 567//601
f 548//595 547//594 567//601 568//602
f 531//152 548//595 568//602 569//184
f 549//161 531//152 569//184 570//176
f 555//596 554//166 572//187 573//186
f 571//603 535//155 553//163
f 571//603 572//187 535//155
f 572//187 554//166 535//155
f 556//597 555//596 573//186 574//604
f 557//598 556//597 574//604 558//168
f 567//601 566//600 577//196 578//195
f 575//179 561//172 541//169
f 576//180 563//182 562//174
f 564//181 577//196 565//599
f 577//196 566//600 565//599
f 568//602 567//601 578//195 579//605
f 569//184 568//602 579//605 580//606
f 570//176 582//207 583//607 550//177
f 580//606 581//183 569//184
f 581//183 582//207 570//176
f 550//177 583//607 584//608 551//178
f 574//604 573//186 586//185 587//609
f 584//608 553//163 551//178
f 585//198 571//603 553//163
f 585//198 572//187 571//603
f 585//198 586//185 572//187
f 558//168 574//604 587//609 588//215
f 560//171 590//188 591//192 575//179
f 589//190 559//189 519//200
f 590//188 560//171 559//189
f 575//179 592//191 593//193 562//174
f 564//181 594//610 595//194 577//196
f 576//180 594//610 564//181
f 579//605 578//195 595//194 596//204
f 580//606 579//605 596//204 597//205
f 581//183 580//606 597//205 598//208
f 591//192 590//188 603//611 592//191
f 598//208 582//207 581//183
f 582//207 599//209 583//607
f 600//199 553//163 584//608
f 600//199 585//198 553//163
f 601//197 587//609 586//185
f 592//191 603//611 604//212 593//193
f 576//180 604//212 605//203 594//610
f 604//212 576//180 593//193
f 587//609 601//197 608//210 588//215
f 605//203 595//194 594//610
f 597//205 607//206 598//208
f 599//209 584//608 583//607
f 599//209 600//199 584//608
f 590//188 589//190 609//213 603//611
f 611//214 402//130 558//168
f 605//203 610//211 607//206 606//202
f 609//213 604//212 603//611
f 610//211 605//203 604//212
f 607//206 611//214 599//209
f 611//214 558//168 588//215
