# Blender 3.3.1
# www.blender.org
o Cube
v -12.835793 1.019490 9.875751
v -12.835793 1.019494 -10.713958
v 17.273701 1.019490 9.875751
v 17.273701 1.019494 -10.713958
v -12.835793 1.019490 9.875751
v -12.835793 1.019494 -10.713958
v 17.273701 1.019494 -10.713958
v 17.273701 1.019490 9.875751
v -12.835793 1.019490 9.875751
v -12.835793 1.019494 -10.713958
v 17.273701 1.019494 -10.713958
v 17.273701 1.019490 9.875751
v -12.835793 1.019494 -10.713958
v 17.273701 1.019494 -10.713958
v -12.835793 1.019494 -10.713958
v 17.273701 1.019494 -10.713958
v -12.835793 1.019494 -10.713958
v 17.273701 1.019494 -10.713958
v -12.835793 1.019494 -10.713958
v 17.273701 1.019494 -10.713958
v -13.482103 0.374577 11.029429
v -13.482103 1.307855 11.029429
v -13.482103 0.374581 -11.386344
v -13.482103 1.307859 -11.386344
v 18.196491 0.374577 11.029429
v 18.196491 1.307855 11.029429
v 18.196491 0.374581 -11.386344
v 18.196491 1.307859 -11.386344
vn -0.0000 1.0000 -0.0000
vn -0.0000 -0.0000 -1.0000
vn -0.0000 -0.0000 -0.0000
vn -1.0000 -0.0000 -0.0000
vn 1.0000 -0.0000 -0.0000
vn -0.0000 -0.0000 1.0000
vn -0.0000 -1.0000 -0.0000
vt 0.807582 0.095652
vt 0.317242 0.502848
vt 0.927577 0.495980
vt 0.453949 0.099719
vt 0.531229 1.004897
vt 0.931081 0.501199
vt 0.320224 0.492756
vt 0.998608 0.996158
vt 0.317242 0.502848
vt 0.807582 0.095652
vt 0.927577 0.495980
vt 0.453949 0.099719
vt 0.320224 0.492756
vt 0.998608 0.996158
vt 0.931081 0.501199
vt 0.531229 1.004897
vt 0.317242 0.502848
vt 0.807582 0.095652
vt 0.927577 0.495980
vt 0.453949 0.099719
vt 0.437887 0.969488
vt 0.320224 0.492756
vt 0.998608 0.996158
vt 0.405342 0.969488
vt 0.931081 0.501199
vt 0.531229 1.004897
vt 0.437887 0.969488
vt 0.405342 0.969488
vt 0.437887 0.969488
vt 0.405342 0.969488
vt 0.437887 0.969488
vt 0.405342 0.969488
vt 0.437887 0.969488
vt 0.405342 0.969488
vt 0.408343 0.972394
vt 0.408280 0.998893
vt 0.404408 0.997426
vt 0.434813 0.972394
vt 0.434877 0.998893
vt 0.429958 0.996679
vt 0.408343 0.998865
vt 0.405215 0.971936
vt 0.404408 0.972447
vt 0.434813 0.998865
vt 0.433919 0.971936
vt 0.429958 0.973193
vt 0.407105 0.999409
vt 0.408280 0.972296
vt 0.429387 0.997426
vt 0.436051 0.999409
vt 0.434877 0.972296
vt 0.406473 0.996679
vt 0.405215 1.000640
vt 0.407105 0.970463
vt 0.429387 0.972447
vt 0.433919 1.000640
vt 0.436051 0.970463
vt 0.406473 0.973193
s 0
f 4/7/1 2/3/2 6/11/1 7/13/2
f 5/9/1 8/15/2 12/25/1 9/17/2
f 3/5/3 4/8/3 7/14/3 8/16/3
f 2/4/3 1/1/3 5/10/3 6/12/3
f 1/2/1 3/6/2 8/15/1 5/9/2
f 7/13/1 6/11/2 10/19/1 11/22/2
f 8/16/3 7/14/3 11/23/3 12/26/3
f 6/12/3 5/10/3 9/18/3 10/20/3
f 11/24/1 10/21/2 13/27/1 14/28/2
f 14/28/1 13/27/2 15/29/1 16/30/2
f 16/30/1 15/29/2 17/31/1 18/32/2
f 18/32/1 17/31/2 19/33/1 20/34/2
f 21/35/4 22/38/4 24/44/4 23/41/4
f 23/42/2 24/45/2 28/56/2 27/53/2
f 27/54/5 28/57/5 26/50/5 25/47/5
f 25/48/6 26/51/6 22/39/6 21/36/6
f 23/43/7 27/55/7 25/49/7 21/37/7
f 28/58/1 24/46/1 22/40/1 26/52/1
o Cube.001
v -10.813488 10.775826 10.786998
v -10.715904 11.570519 10.786998
v -10.813488 10.775829 -4.892285
v -10.715904 11.570522 -4.892285
v 14.940688 7.613328 10.786997
v 15.038272 8.408021 10.786997
v 14.940688 7.613331 -4.892285
v 15.038272 8.408024 -4.892285
vn -0.9925 0.1219 -0.0000
vn -0.0000 -0.0000 -1.0000
vn 0.9925 -0.1219 -0.0000
vn -0.0000 -0.0000 1.0000
vn -0.1219 -0.9925 -0.0000
vn 0.1219 0.9925 -0.0000
vt 0.408412 0.974474
vt 0.407532 0.997630
vt 0.407937 0.997918
vt 0.434744 0.974474
vt 0.431602 0.997630
vt 0.427728 0.996460
vt 0.408412 1.000806
vt 0.407753 0.972463
vt 0.407937 0.971954
vt 0.434744 1.000806
vt 0.439425 0.972463
vt 0.427728 0.973413
vt 0.404839 1.001676
vt 0.407532 0.973560
vt 0.433901 0.997918
vt 0.434296 1.001676
vt 0.431602 0.973560
vt 0.404681 0.996460
vt 0.407753 1.004135
vt 0.404839 0.972218
vt 0.433901 0.971954
vt 0.439425 1.004135
vt 0.434296 0.972218
vt 0.404681 0.973413
s 0
f 29/59/8 30/62/8 32/68/8 31/65/8
f 31/66/9 32/69/9 36/80/9 35/77/9
f 35/78/10 36/81/10 34/74/10 33/71/10
f 33/72/11 34/75/11 30/63/11 29/60/11
f 31/67/12 35/79/12 33/73/12 29/61/12
f 36/82/13 32/70/13 30/64/13 34/76/13
o Cube.002
v -9.762501 0.913393 9.838981
v -9.762499 10.919667 9.838983
v -9.762501 0.913396 -3.852566
v -9.762499 10.919670 -3.852564
v 14.187858 0.913394 9.838981
v 14.187858 7.759579 9.838982
v 14.187858 0.913397 -3.852566
v 14.187858 7.759581 -3.852565
vn -1.0000 -0.0000 -0.0000
vn -0.0000 -0.0000 -1.0000
vn 1.0000 -0.0000 -0.0000
vn -0.0000 -0.0000 1.0000
vn -0.0000 -1.0000 -0.0000
vn 0.1308 0.9914 -0.0000
vt 0.530056 0.544026
vt 0.031567 0.500244
vt 0.125000 0.750000
vt 0.529386 0.864874
vt 0.030735 0.965400
vt 0.875000 0.750000
vt 0.209208 0.543356
vt 0.026451 0.502143
vt 0.125000 0.500000
vt 0.208538 0.864205
vt 0.028027 0.963274
vt 0.875000 0.500000
vt 0.051981 0.631996
vt 0.532917 0.501075
vt 0.375000 0.750000
vt 0.050540 0.881992
vt 0.532086 0.825474
vt 0.625000 0.750000
vt 0.531604 0.500566
vt 0.301977 0.633436
vt 0.375000 0.500000
vt 0.527147 0.835015
vt 0.300536 0.883432
vt 0.625000 0.500000
s 0
f 37/83/14 38/86/14 40/92/14 39/89/14
f 39/90/15 40/93/15 44/104/15 43/101/15
f 43/102/16 44/105/16 42/98/16 41/95/16
f 41/96/17 42/99/17 38/87/17 37/84/17
f 39/91/18 43/103/18 41/97/18 37/85/18
f 44/106/19 40/94/19 38/88/19 42/100/19
o Cube.003
v -12.835793 -13.901654 9.875749
v -12.835793 1.019490 9.875751
v -12.835793 -13.901650 -10.713960
v -12.835793 1.019494 -10.713958
v 17.273699 -13.901654 9.875749
v 17.273701 1.019490 9.875751
v 17.273699 -13.901650 -10.713960
v 17.273701 1.019494 -10.713958
v -12.835793 1.019490 9.875751
v -12.835793 1.019494 -10.713958
v 17.273701 1.019494 -10.713958
v 17.273701 1.019490 9.875751
vn -1.0000 -0.0000 -0.0000
vn -0.0000 -0.0000 -1.0000
vn 1.0000 -0.0000 -0.0000
vn -0.0000 -0.0000 1.0000
vn -0.0000 -1.0000 -0.0000
vn -0.0000 1.0000 -0.0000
vt 0.808411 0.028282
vt 0.315593 0.007721
vt 0.125000 0.750000
vt 0.807582 0.095652
vt 0.317242 0.502848
vt 0.454778 0.032350
vt 0.928790 0.005475
vt 0.125000 0.500000
vt 0.453949 0.099719
vt 0.927577 0.495980
vt 0.530199 0.503599
vt 0.929432 0.006072
vt 0.375000 0.750000
vt 0.531229 1.004897
vt 0.931081 0.501199
vt 0.321437 0.002252
vt 0.997579 0.494861
vt 0.375000 0.500000
vt 0.320224 0.492756
vt 0.998608 0.996158
vt 0.437887 1.002034
vt 0.437887 0.969488
vt 0.405342 0.969488
vt 0.405342 1.002034
s 0
f 45/107/20 46/110/20 48/115/20 47/112/20
f 47/113/21 48/116/21 52/125/21 51/122/21
f 51/123/22 52/126/22 50/120/22 49/117/22
f 49/118/23 50/121/23 46/111/23 45/108/23
f 47/114/24 51/124/24 49/119/24 45/109/24
f 55/129/25 54/128/25 53/127/25 56/130/25
o Cube.004
v -13.943092 -12.157560 7.647496
v -13.943092 -10.157560 7.647497
v -13.943092 -12.157560 3.932617
v -13.943092 -10.157560 3.932617
v -12.735179 -12.157560 7.647496
v -12.735179 -10.157560 7.647497
v -12.735179 -12.157560 3.932617
v -12.735179 -10.157560 3.932617
vn -1.0000 -0.0000 -0.0000
vn -0.0000 -0.0000 -1.0000
vn -0.0000 -0.0000 1.0000
vn -0.0000 -1.0000 -0.0000
vn -0.0000 1.0000 -0.0000
vt 0.318253 0.016806
vt 0.188170 0.114212
vt 0.191087 0.109676
vt 0.318398 0.125130
vt 0.220145 0.114212
vt 0.219530 0.113031
vt 0.165174 0.016950
vt 0.186810 0.081533
vt 0.191087 0.087429
vt 0.165318 0.125274
vt 0.216953 0.081533
vt 0.219530 0.073186
vt 0.188170 0.082236
vt 0.213334 0.109676
vt 0.220145 0.082236
vt 0.179686 0.113031
vt 0.186810 0.111676
vt 0.213334 0.087429
vt 0.216953 0.111676
vt 0.179686 0.073186
s 0
f 57/131/26 58/134/26 60/140/26 59/137/26
f 59/138/27 60/141/27 64/149/27 63/147/27
f 61/143/28 62/145/28 58/135/28 57/132/28
f 59/139/29 63/148/29 61/144/29 57/133/29
f 64/150/30 60/142/30 58/136/30 62/146/30
o Cube.005
v -12.735179 -12.157560 7.647496
v -12.735179 -10.157560 7.647497
v -12.735179 -12.157560 3.932617
v -12.735179 -10.157560 3.932617
vn 1.0000 -0.0000 -0.0000
vt 0.375000 0.750000
vt 0.625000 0.750000
vt 0.375000 0.500000
vt 0.625000 0.500000
s 0
f 67/153/31 68/154/31 66/152/31 65/151/31
