# Blender 3.3.1
# www.blender.org
o Plane
v -12.596433 9.032854 12.596437
v -12.596433 9.032862 -12.596429
v -12.596433 9.032854 12.596437
v -12.596433 9.032862 -12.596429
vn -0.0000 -0.0000 -0.0000
vt 0.500000 0.500000
vt 0.500000 0.500000
vt 0.500000 0.500000
vt 0.500000 0.500000
s 0
f 1/1/1 2/2/1 4/4/1 3/3/1
o Plane.001
v -12.596433 9.032862 -12.596429
v -12.596433 -5.065747 -12.596435
v -12.596433 -3.009877 -10.540565
v -12.596433 6.976992 -10.540561
vn -1.0000 -0.0000 -0.0000
vt 0.276782 0.899343
vt 0.277195 0.327979
vt 0.360452 0.411357
vt 0.360160 0.816086
s 0
f 7/7/2 8/8/2 5/5/2 6/6/2
o Plane.002
v -12.596433 9.032854 12.596437
v -12.596433 9.032862 -12.596429
v -12.596433 6.976992 -10.540561
v -12.596433 6.976984 10.540565
vn -1.0000 -0.0000 -0.0000
vt 0.559621 0.883534
vt 0.001388 0.881235
vt 0.005125 0.822799
vt 0.556943 0.826576
s 0
f 11/11/3 12/12/3 9/9/3 10/10/3
o Plane.003
v -12.596433 6.976992 -10.540561
v -12.596433 6.976984 10.540565
v -12.596433 2.795440 -10.540563
v -12.596433 2.795432 10.540563
vn -1.0000 -0.0000 -0.0000
vt 0.936091 0.464235
vt 0.624574 0.465543
vt 0.936208 0.725081
vt 0.625674 0.722342
s 0
f 14/14/4 13/13/4 15/15/4 16/16/4
o Plane.004
v -12.596433 9.032854 12.596437
v -12.596433 -5.065755 12.596431
v -12.596433 6.976984 10.540565
v -12.596433 -3.009885 10.540561
vn -1.0000 -0.0000 -0.0000
vt 0.280491 0.903856
vt 0.288296 0.362326
vt 0.202662 0.823751
vt 0.208191 0.440155
s 0
f 19/19/5 20/20/5 18/18/5 17/17/5
o Plane.005
v -12.596433 9.032854 12.596437
v 12.596433 9.032854 12.596437
v -12.596433 -5.105955 12.596431
v 12.596433 -5.105955 12.596431
vn -0.0000 -0.0000 1.0000
vt 0.028700 0.869459
vt 0.547716 0.872365
vt 0.030331 0.578176
vt 0.549347 0.581081
s 0
f 22/22/6 21/21/6 23/23/6 24/24/6
o Plane.006
v -12.596433 9.032854 12.596437
v 12.596433 9.032854 12.596437
v -12.596433 9.032862 -12.596429
v 12.596433 9.032862 -12.596429
vn -0.0000 1.0000 -0.0000
vt 0.263186 0.993545
vt 0.131299 0.993545
vt 0.263186 0.861658
vt 0.131299 0.861658
s 0
f 25/25/7 26/26/7 28/28/7 27/27/7
o Plane.007
v 12.596433 9.032854 12.596437
v 12.596433 9.032862 -12.596429
v 12.596433 -5.105955 12.596431
v 12.596433 -5.105947 -12.596435
vn 1.0000 -0.0000 -0.0000
vt 0.021243 0.870453
vt 0.521231 0.873881
vt 0.023167 0.589848
vt 0.523155 0.593276
s 0
f 30/30/8 29/29/8 31/31/8 32/32/8
o Plane.008
v -12.596433 9.032862 -12.596429
v 12.596433 9.032862 -12.596429
v -12.596433 -5.105947 -12.596435
v 12.596433 -5.105947 -12.596435
vn -0.0000 -0.0000 -1.0000
vt 0.551008 0.869483
vt 0.051009 0.870651
vt 0.550352 0.588872
vt 0.050353 0.590041
s 0
f 33/33/9 34/34/9 36/36/9 35/35/9
