# Blender 3.3.1
# www.blender.org
o Plane
v -12.596433 9.032852 12.596439
v -12.596433 9.032864 -12.596427
v -12.596433 9.032864 -12.596427
v -12.596433 9.032852 12.596439
vn -0.0000 -0.0000 -0.0000
vt 0.500000 0.500000
vt 0.500000 0.500000
vt 0.500000 0.500000
vt 0.500000 0.500000
s 1
f 1/1/1 2/2/1 3/3/1 4/4/1
o Plane.001
v -12.596433 -3.009875 -10.540565
v -12.596433 6.976994 -10.540560
v -12.596433 9.032864 -12.596427
v -12.596433 -5.065745 -12.596436
vn -1.0000 -0.0000 -0.0000
vt 0.360452 0.411357
vt 0.360160 0.816086
vt 0.276782 0.899343
vt 0.277195 0.327979
s 1
f 5/5/2 6/6/2 7/7/2 8/8/2
o Plane.002
v -12.596433 6.976994 -10.540560
v -12.596433 6.976982 10.540565
v -12.596433 9.032852 12.596439
v -12.596433 9.032864 -12.596427
vn -1.0000 -0.0000 -0.0000
vt 0.005125 0.822799
vt 0.556943 0.826576
vt 0.559621 0.883534
vt 0.001388 0.881235
s 1
f 9/9/3 10/10/3 11/11/3 12/12/3
o Plane.003
v -12.596433 6.976982 10.540565
v -12.596433 6.976994 -10.540560
v -12.596433 2.795442 -10.540563
v -12.596433 2.795430 10.540563
vn -1.0000 -0.0000 -0.0000
vt 0.624574 0.465543
vt 0.936091 0.464235
vt 0.936208 0.725081
vt 0.625674 0.722342
s 1
f 13/13/4 14/14/4 15/15/4 16/16/4
o Plane.004
v -12.596433 6.976982 10.540565
v -12.596433 -3.009887 10.540560
v -12.596433 -5.065757 12.596430
v -12.596433 9.032852 12.596439
vn -1.0000 -0.0000 -0.0000
vt 0.202662 0.823751
vt 0.208191 0.440155
vt 0.288296 0.362326
vt 0.280491 0.903856
s 1
f 17/17/5 18/18/5 19/19/5 20/20/5
o Plane.005
v 12.596433 9.032852 12.596439
v -12.596433 9.032852 12.596439
v -12.596433 -5.105957 12.596430
v 12.596433 -5.105957 12.596430
vn -0.0000 -0.0000 1.0000
vt 0.547716 0.872365
vt 0.028700 0.869459
vt 0.030331 0.578176
vt 0.549347 0.581081
s 1
f 21/21/6 22/22/6 23/23/6 24/24/6
o Plane.006
v -12.596433 9.032852 12.596439
v 12.596433 9.032852 12.596439
v 12.596433 9.032864 -12.596427
v -12.596433 9.032864 -12.596427
vn -0.0000 1.0000 -0.0000
vt 0.263186 0.993545
vt 0.131299 0.993545
vt 0.131299 0.861658
vt 0.263186 0.861658
s 1
f 25/25/7 26/26/7 27/27/7 28/28/7
o Plane.007
o Plane.008
v -12.596433 9.032864 -12.596427
v 12.596433 9.032864 -12.596427
v 12.596433 -5.105945 -12.596436
v -12.596433 -5.105945 -12.596436
vn -0.0000 -0.0000 -1.0000
vt 0.551008 0.869483
vt 0.051009 0.870651
vt 0.050353 0.590041
vt 0.550352 0.588872
s 1
f 29/29/8 30/30/8 31/31/8 32/32/8
o Plane.009
v 12.596433 -5.105957 12.596430
v 12.596433 -5.105951 1.095859
v 12.596433 -0.845832 12.596433
v 12.596433 -0.845832 1.095011
vn 1.0000 -0.0000 -0.0000
vt 0.023167 0.589848
vt 0.251412 0.591413
vt 0.022587 0.674396
vt 0.250849 0.675961
s 1
f 36/36/9 35/35/9 33/33/9 34/34/9
o Plane.010
v 12.596433 -5.105951 1.095859
v 12.596433 -5.105948 -6.403938
v 12.596433 -0.845832 1.095011
v 12.596433 -0.845832 -6.403938
vn 1.0000 -0.0000 -0.0000
vt 0.251412 0.591413
vt 0.400256 0.592433
vt 0.250849 0.675961
vt 0.399676 0.676981
s 1
f 40/40/10 39/39/10 37/37/10 38/38/10
o Plane.011
v 12.596433 3.150402 12.596436
v 12.596433 3.150402 1.094216
v 12.596433 -0.845832 12.596433
v 12.596433 -0.845832 1.095011
vn 1.0000 -0.0000 -0.0000
vt 0.022043 0.753707
vt 0.250321 0.755272
vt 0.022587 0.674396
vt 0.250849 0.675961
s 1
f 42/42/11 41/41/11 43/43/11 44/44/11
o Plane.013
v 12.596433 3.150402 -12.596430
v 12.596433 3.150402 -6.403938
v 12.596433 -0.845832 -12.596433
v 12.596433 -0.845832 -6.403938
vn 1.0000 -0.0000 -0.0000
vt 0.522031 0.757135
vt 0.399133 0.756292
vt 0.522575 0.677824
vt 0.399676 0.676981
s 1
f 45/45/12 46/46/12 48/48/12 47/47/12
o Plane.014
v 12.596433 -5.105945 -12.596436
v 12.596433 -5.105948 -6.403938
v 12.596433 -0.845832 -12.596433
v 12.596433 -0.845832 -6.403938
vn 1.0000 -0.0000 -0.0000
vt 0.523155 0.593276
vt 0.400256 0.592433
vt 0.522575 0.677824
vt 0.399676 0.676981
s 1
f 51/51/13 52/52/13 50/50/13 49/49/13
o Plane.015
v 12.596433 9.032864 -12.596427
v 12.596433 9.032861 -6.403938
v 12.596433 3.150402 -12.596430
v 12.596433 3.150402 -6.403938
vn 1.0000 -0.0000 -0.0000
vt 0.521231 0.873881
vt 0.398332 0.873038
vt 0.522031 0.757135
vt 0.399133 0.756292
s 1
f 53/53/14 54/54/14 56/56/14 55/55/14
o Plane.016
v 12.596433 9.032858 1.093045
v 12.596433 9.032861 -6.176212
v 12.596433 9.032861 -6.403938
v 12.596433 3.150402 1.094216
v 12.596433 3.150402 -6.403938
vn 1.0000 -0.0000 -0.0000
vt 0.249544 0.872018
vt 0.393813 0.873007
vt 0.398332 0.873038
vt 0.250321 0.755272
vt 0.399133 0.756292
s 1
f 59/59/15 58/58/15 57/57/15 60/60/15 61/61/15
o Plane.017
v 12.596433 9.032852 12.596439
v 12.596433 9.032858 1.093045
v 12.596433 3.150402 12.596436
v 12.596433 3.150402 1.094216
vn 1.0000 -0.0000 -0.0000
vt 0.021243 0.870453
vt 0.249544 0.872018
vt 0.022043 0.753707
vt 0.250321 0.755272
s 1
f 63/63/16 62/62/16 64/64/16 65/65/16
