# Blender 3.3.1
# www.blender.org
o Cube
v 3.360101 -0.192534 -6.219990
v 3.360101 0.192534 -6.219990
v 3.360101 -0.192534 6.219990
v 3.360101 0.192534 6.219990
v -3.360101 -0.192534 -6.219990
v -3.360101 0.192534 -6.219990
v -3.360101 -0.192534 6.219990
v -3.360101 0.192534 6.219990
vn -0.0000 -1.0000 -0.0000
vn -0.0000 -0.0000 1.0000
vn -1.0000 -0.0000 -0.0000
vn -0.0000 1.0000 -0.0000
vn 1.0000 -0.0000 -0.0000
vn -0.0000 -0.0000 -1.0000
vt 0.625000 0.500000
vt 0.375000 0.500000
vt 0.625000 0.750000
vt 0.375000 0.750000
vt 0.875000 0.500000
vt 0.625000 0.250000
vt 0.125000 0.500000
vt 0.375000 0.250000
vt 0.875000 0.750000
vt 0.625000 1.000000
vt 0.625000 0.000000
vt 0.375000 1.000000
vt 0.375000 0.000000
vt 0.125000 0.750000
s 0
f 1/1/1 3/3/1 7/9/1 5/5/1
f 4/4/2 8/12/2 7/10/2 3/3/2
f 8/13/3 6/8/3 5/6/3 7/11/3
f 6/7/4 8/14/4 4/4/4 2/2/4
f 2/2/5 4/4/5 3/3/5 1/1/5
f 6/8/6 2/2/6 1/1/6 5/6/6
o Cube.001
v -3.340680 0.181679 0.158108
v -3.340680 4.999689 0.158108
v -3.340680 0.181679 -0.158108
v -3.340680 4.999689 -0.158108
v -2.983559 0.181679 0.158108
v -2.983559 4.999689 0.158108
v -2.983559 0.181679 -0.158108
v -2.983559 4.999689 -0.158108
vn -1.0000 -0.0000 -0.0000
vn -0.0000 -0.0000 -1.0000
vn 1.0000 -0.0000 -0.0000
vn -0.0000 -0.0000 1.0000
vn -0.0000 -1.0000 -0.0000
vn -0.0000 1.0000 -0.0000
vt 0.375000 0.000000
vt 0.375000 1.000000
vt 0.125000 0.750000
vt 0.625000 0.000000
vt 0.625000 1.000000
vt 0.875000 0.750000
vt 0.375000 0.250000
vt 0.125000 0.500000
vt 0.625000 0.250000
vt 0.875000 0.500000
vt 0.375000 0.750000
vt 0.625000 0.750000
vt 0.375000 0.500000
vt 0.625000 0.500000
s 0
f 9/15/7 10/18/7 12/23/7 11/21/7
f 11/21/8 12/23/8 16/28/8 15/27/8
f 15/27/9 16/28/9 14/26/9 13/25/9
f 13/25/10 14/26/10 10/19/10 9/16/10
f 11/22/11 15/27/11 13/25/11 9/17/11
f 16/28/12 12/24/12 10/20/12 14/26/12
o Cube.002
v -3.343751 0.181679 -5.906596
v -3.343751 4.999689 -5.906596
v -3.343751 0.181679 -6.222811
v -3.343751 4.999689 -6.222811
v -2.986630 0.181679 -5.906596
v -2.986630 4.999689 -5.906596
v -2.986630 0.181679 -6.222811
v -2.986630 4.999689 -6.222811
vn -1.0000 -0.0000 -0.0000
vn -0.0000 -0.0000 -1.0000
vn 1.0000 -0.0000 -0.0000
vn -0.0000 -0.0000 1.0000
vn -0.0000 -1.0000 -0.0000
vn -0.0000 1.0000 -0.0000
vt 0.375000 0.000000
vt 0.375000 1.000000
vt 0.125000 0.750000
vt 0.625000 0.000000
vt 0.625000 1.000000
vt 0.875000 0.750000
vt 0.375000 0.250000
vt 0.125000 0.500000
vt 0.625000 0.250000
vt 0.875000 0.500000
vt 0.375000 0.750000
vt 0.625000 0.750000
vt 0.375000 0.500000
vt 0.625000 0.500000
s 0
f 17/29/13 18/32/13 20/37/13 19/35/13
f 19/35/14 20/37/14 24/42/14 23/41/14
f 23/41/15 24/42/15 22/40/15 21/39/15
f 21/39/16 22/40/16 18/33/16 17/30/16
f 19/36/17 23/41/17 21/39/17 17/31/17
f 24/42/18 20/38/18 18/34/18 22/40/18
o Cube.003
v -3.340680 0.200536 6.181690
v -3.340680 3.048454 6.181690
v -3.340680 0.200536 5.865475
v -3.340680 3.048454 5.865475
v -2.983559 0.200536 6.181690
v -2.983559 3.048454 6.181690
v -2.983559 0.200536 5.865475
v -2.983559 3.048454 5.865475
vn -1.0000 -0.0000 -0.0000
vn -0.0000 -0.0000 -1.0000
vn 1.0000 -0.0000 -0.0000
vn -0.0000 -0.0000 1.0000
vn -0.0000 -1.0000 -0.0000
vn -0.0000 1.0000 -0.0000
vt 0.375000 0.000000
vt 0.375000 1.000000
vt 0.125000 0.750000
vt 0.625000 0.000000
vt 0.625000 1.000000
vt 0.875000 0.750000
vt 0.375000 0.250000
vt 0.125000 0.500000
vt 0.625000 0.250000
vt 0.875000 0.500000
vt 0.375000 0.750000
vt 0.625000 0.750000
vt 0.375000 0.500000
vt 0.625000 0.500000
s 0
f 25/43/19 26/46/19 28/51/19 27/49/19
f 27/49/20 28/51/20 32/56/20 31/55/20
f 31/55/21 32/56/21 30/54/21 29/53/21
f 29/53/22 30/54/22 26/47/22 25/44/22
f 27/50/23 31/55/23 29/53/23 25/45/23
f 32/56/24 28/52/24 26/48/24 30/54/24
o Cube.004
v -3.360101 3.086347 1.296578
v -3.360101 2.701278 1.296578
v -1.333534 2.701278 1.296578
v -1.333534 3.086347 1.296578
v -3.360101 2.701278 -2.341012
v -3.360101 3.086347 -2.341012
v -1.333534 2.701278 -2.341012
v -1.333534 3.086347 -2.341012
v -1.333534 3.082119 1.296578
v -1.333534 3.082119 -2.341012
vn -0.0000 -1.0000 -0.0000
vn -0.0000 1.0000 -0.0000
vn -1.0000 -0.0000 -0.0000
vn 1.0000 -0.0000 -0.0000
vt 0.125000 0.651057
vt 0.375000 0.098943
vt 0.875000 0.651057
vt 0.625000 0.098943
vt 0.799609 0.651057
vt 0.200391 0.651057
vt 0.875000 0.577954
vt 0.625000 0.172046
vt 0.125000 0.577954
vt 0.375000 0.172046
vt 0.799609 0.577954
vt 0.200391 0.577954
vt 0.799609 0.651057
vt 0.799609 0.577954
s 0
f 39/67/25 35/61/25 34/59/25 37/63/25
f 38/65/26 33/57/26 36/62/26 40/68/26
f 33/58/27 38/66/27 37/64/27 34/60/27
f 39/67/28 42/70/28 41/69/28 35/61/28
o Cube.005
v 2.997856 0.181679 -5.906596
v 2.997856 4.999689 -5.906596
v 2.997856 0.181679 -6.222811
v 2.997856 4.999689 -6.222811
v 3.354977 0.181679 -5.906596
v 3.354977 4.999689 -5.906596
v 3.354977 0.181679 -6.222811
v 3.354977 4.999689 -6.222811
vn -1.0000 -0.0000 -0.0000
vn -0.0000 -0.0000 -1.0000
vn 1.0000 -0.0000 -0.0000
vn -0.0000 -0.0000 1.0000
vn -0.0000 -1.0000 -0.0000
vn -0.0000 1.0000 -0.0000
vt 0.375000 0.000000
vt 0.375000 1.000000
vt 0.125000 0.750000
vt 0.625000 0.000000
vt 0.625000 1.000000
vt 0.875000 0.750000
vt 0.375000 0.250000
vt 0.125000 0.500000
vt 0.625000 0.250000
vt 0.875000 0.500000
vt 0.375000 0.750000
vt 0.625000 0.750000
vt 0.375000 0.500000
vt 0.625000 0.500000
s 0
f 43/71/29 44/74/29 46/79/29 45/77/29
f 45/77/30 46/79/30 50/84/30 49/83/30
f 49/83/31 50/84/31 48/82/31 47/81/31
f 47/81/32 48/82/32 44/75/32 43/72/32
f 45/78/33 49/83/33 47/81/33 43/73/33
f 50/84/34 46/80/34 44/76/34 48/82/34
o Cube.006
v 2.987988 0.181679 0.158108
v 2.987988 4.999689 0.158108
v 2.987988 0.181679 -0.158108
v 2.987988 4.999689 -0.158108
v 3.345109 0.181679 0.158108
v 3.345109 4.999689 0.158108
v 3.345109 0.181679 -0.158108
v 3.345109 4.999689 -0.158108
vn -1.0000 -0.0000 -0.0000
vn -0.0000 -0.0000 -1.0000
vn 1.0000 -0.0000 -0.0000
vn -0.0000 -0.0000 1.0000
vn -0.0000 -1.0000 -0.0000
vn -0.0000 1.0000 -0.0000
vt 0.375000 0.000000
vt 0.375000 1.000000
vt 0.125000 0.750000
vt 0.625000 0.000000
vt 0.625000 1.000000
vt 0.875000 0.750000
vt 0.375000 0.250000
vt 0.125000 0.500000
vt 0.625000 0.250000
vt 0.875000 0.500000
vt 0.375000 0.750000
vt 0.625000 0.750000
vt 0.375000 0.500000
vt 0.625000 0.500000
s 0
f 51/85/35 52/88/35 54/93/35 53/91/35
f 53/91/36 54/93/36 58/98/36 57/97/36
f 57/97/37 58/98/37 56/96/37 55/95/37
f 55/95/38 56/96/38 52/89/38 51/86/38
f 53/92/39 57/97/39 55/95/39 51/87/39
f 58/98/40 54/94/40 52/90/40 56/96/40
o Cube.007
v 2.991375 0.200536 6.181690
v 2.991375 3.048454 6.181690
v 2.991375 0.200536 5.865475
v 2.991375 3.048454 5.865475
v 3.348496 0.200536 6.181690
v 3.348496 3.048454 6.181690
v 3.348496 0.200536 5.865475
v 3.348496 3.048454 5.865475
vn -1.0000 -0.0000 -0.0000
vn -0.0000 -0.0000 -1.0000
vn 1.0000 -0.0000 -0.0000
vn -0.0000 -0.0000 1.0000
vn -0.0000 -1.0000 -0.0000
vn -0.0000 1.0000 -0.0000
vt 0.375000 0.000000
vt 0.375000 1.000000
vt 0.125000 0.750000
vt 0.625000 0.000000
vt 0.625000 1.000000
vt 0.875000 0.750000
vt 0.375000 0.250000
vt 0.125000 0.500000
vt 0.625000 0.250000
vt 0.875000 0.500000
vt 0.375000 0.750000
vt 0.625000 0.750000
vt 0.375000 0.500000
vt 0.625000 0.500000
s 0
f 59/99/41 60/102/41 62/107/41 61/105/41
f 61/105/42 62/107/42 66/112/42 65/111/42
f 65/111/43 66/112/43 64/110/43 63/109/43
f 63/109/44 64/110/44 60/103/44 59/100/44
f 61/106/45 65/111/45 63/109/45 59/101/45
f 66/112/46 62/108/46 60/104/46 64/110/46
o Cube.008
v -3.340680 0.181679 -2.903321
v -3.340680 4.999689 -2.903321
v -3.340680 0.181679 -3.219537
v -3.340680 4.999689 -3.219537
v -2.983559 0.181679 -2.903321
v -2.983559 4.999689 -2.903321
v -2.983559 0.181679 -3.219537
v -2.983559 4.999689 -3.219537
vn -1.0000 -0.0000 -0.0000
vn -0.0000 -0.0000 -1.0000
vn 1.0000 -0.0000 -0.0000
vn -0.0000 -0.0000 1.0000
vn -0.0000 -1.0000 -0.0000
vn -0.0000 1.0000 -0.0000
vt 0.375000 0.000000
vt 0.375000 1.000000
vt 0.125000 0.750000
vt 0.625000 0.000000
vt 0.625000 1.000000
vt 0.875000 0.750000
vt 0.375000 0.250000
vt 0.125000 0.500000
vt 0.625000 0.250000
vt 0.875000 0.500000
vt 0.375000 0.750000
vt 0.625000 0.750000
vt 0.375000 0.500000
vt 0.625000 0.500000
s 0
f 67/113/47 68/116/47 70/121/47 69/119/47
f 69/119/48 70/121/48 74/126/48 73/125/48
f 73/125/49 74/126/49 72/124/49 71/123/49
f 71/123/50 72/124/50 68/117/50 67/114/50
f 69/120/51 73/125/51 71/123/51 67/115/51
f 74/126/52 70/122/52 68/118/52 72/124/52
o Cube.009
v 3.045353 0.181679 -2.903321
v 3.045353 4.999689 -2.903321
v 3.045353 0.181679 -3.219537
v 3.045353 4.999689 -3.219537
v 3.402474 0.181679 -2.903321
v 3.402474 4.999689 -2.903321
v 3.402474 0.181679 -3.219537
v 3.402474 4.999689 -3.219537
vn -1.0000 -0.0000 -0.0000
vn -0.0000 -0.0000 -1.0000
vn 1.0000 -0.0000 -0.0000
vn -0.0000 -0.0000 1.0000
vn -0.0000 -1.0000 -0.0000
vn -0.0000 1.0000 -0.0000
vt 0.375000 0.000000
vt 0.375000 1.000000
vt 0.125000 0.750000
vt 0.625000 0.000000
vt 0.625000 1.000000
vt 0.875000 0.750000
vt 0.375000 0.250000
vt 0.125000 0.500000
vt 0.625000 0.250000
vt 0.875000 0.500000
vt 0.375000 0.750000
vt 0.625000 0.750000
vt 0.375000 0.500000
vt 0.625000 0.500000
s 0
f 75/127/53 76/130/53 78/135/53 77/133/53
f 77/133/54 78/135/54 82/140/54 81/139/54
f 81/139/55 82/140/55 80/138/55 79/137/55
f 79/137/56 80/138/56 76/131/56 75/128/56
f 77/134/57 81/139/57 79/137/57 75/129/57
f 82/140/58 78/136/58 76/132/58 80/138/58
o Cube.010
v -0.253659 0.181679 -5.906596
v -0.253659 4.999689 -5.906596
v -0.253659 0.181679 -6.222811
v -0.253659 4.999689 -6.222811
v 0.103462 0.181679 -5.906596
v 0.103462 4.999689 -5.906596
v 0.103462 0.181679 -6.222811
v 0.103462 4.999689 -6.222811
vn -1.0000 -0.0000 -0.0000
vn -0.0000 -0.0000 -1.0000
vn 1.0000 -0.0000 -0.0000
vn -0.0000 -0.0000 1.0000
vn -0.0000 -1.0000 -0.0000
vn -0.0000 1.0000 -0.0000
vt 0.375000 0.000000
vt 0.375000 1.000000
vt 0.125000 0.750000
vt 0.625000 0.000000
vt 0.625000 1.000000
vt 0.875000 0.750000
vt 0.375000 0.250000
vt 0.125000 0.500000
vt 0.625000 0.250000
vt 0.875000 0.500000
vt 0.375000 0.750000
vt 0.625000 0.750000
vt 0.375000 0.500000
vt 0.625000 0.500000
s 0
f 83/141/59 84/144/59 86/149/59 85/147/59
f 85/147/60 86/149/60 90/154/60 89/153/60
f 89/153/61 90/154/61 88/152/61 87/151/61
f 87/151/62 88/152/62 84/145/62 83/142/62
f 85/148/63 89/153/63 87/151/63 83/143/63
f 90/154/64 86/150/64 84/146/64 88/152/64
o Cube.011
v 3.360101 4.847715 -6.265579
v 3.360101 5.232784 -6.265579
v 3.360101 4.847715 -3.978423
v 3.360101 5.232784 -3.978423
v -1.889124 4.847715 -3.978423
v 1.997272 4.847715 -6.265579
v 1.997272 4.847715 -3.978423
v 1.997271 5.232784 -6.265579
v 1.997271 5.232784 -3.978423
v -1.889124 4.847715 -3.978423
v 1.997272 4.847715 -3.978423
vn -0.0000 -0.0000 -1.0000
vn 1.0000 -0.0000 -0.0000
vn -0.0000 1.0000 -0.0000
vn -0.0000 -1.0000 -0.0000
vt 0.625000 0.500000
vt 0.375000 0.500000
vt 0.625000 0.587923
vt 0.375000 0.587923
vt 0.820278 0.587923
vt 0.625000 0.449301
vt 0.675699 0.500000
vt 0.675699 0.587923
vt 0.375000 0.449301
vt 0.324301 0.500000
vt 0.324301 0.587923
vt 0.820278 0.587923
vt 0.675699 0.587923
s 0
f 98/163/65 92/156/65 91/155/65 96/160/65
f 92/156/66 94/158/66 93/157/66 91/155/66
f 98/164/67 99/165/67 94/158/67 92/156/67
f 97/162/68 101/167/68 100/166/68 95/159/68
f 91/155/68 93/157/68 97/162/68 96/161/68
o Cube.012
v -1.889124 5.232784 -6.265579
v -1.889124 4.847715 -6.265579
v -1.889124 4.847715 -3.978423
v -1.889124 5.232784 -3.978423
v 1.997272 4.847715 -6.265579
v 1.997272 4.847715 -3.978423
v 1.997271 5.232784 -6.265579
v 1.997271 5.232784 -3.978423
v -1.889124 5.232794 -3.978423
v 1.997272 5.232794 -3.978423
vn -0.0000 -1.0000 -0.0000
vn -0.0000 1.0000 -0.0000
vn -0.0000 -0.0000 -1.0000
vn -0.0000 -0.0000 1.0000
vt 0.179722 0.500000
vt 0.375000 0.304722
vt 0.820278 0.500000
vt 0.625000 0.304722
vt 0.820278 0.587923
vt 0.179722 0.587923
vt 0.675699 0.500000
vt 0.625000 0.449301
vt 0.675699 0.587923
vt 0.324301 0.500000
vt 0.375000 0.449301
vt 0.324301 0.587923
vt 0.820278 0.587923
vt 0.675699 0.587923
s 0
f 106/174/69 107/176/69 104/172/69 103/170/69
f 102/168/70 105/173/70 109/179/70 108/177/70
f 102/169/71 108/178/71 106/175/71 103/171/71
f 107/176/72 111/181/72 110/180/72 104/172/72
o Cube.013
v -3.360101 4.847715 -6.265579
v -3.360101 5.232784 -6.265579
v -3.360101 5.232784 -3.978423
v -3.360101 4.847715 -3.978423
v -1.889124 5.232784 -6.265579
v -1.889124 4.847715 -6.265579
v -1.889124 4.847715 -3.978423
v -1.889124 5.232784 -3.978423
vn -1.0000 -0.0000 -0.0000
vn -0.0000 -1.0000 -0.0000
vn -0.0000 -0.0000 -1.0000
vn -0.0000 1.0000 -0.0000
vt 0.875000 0.500000
vt 0.625000 0.250000
vt 0.375000 0.250000
vt 0.125000 0.500000
vt 0.375000 0.162077
vt 0.125000 0.587923
vt 0.625000 0.162077
vt 0.875000 0.587923
vt 0.375000 0.304722
vt 0.179722 0.500000
vt 0.820278 0.500000
vt 0.625000 0.304722
vt 0.820278 0.587923
vt 0.179722 0.587923
s 0
f 114/186/73 113/184/73 112/183/73 115/188/73
f 117/192/74 118/194/74 115/189/74 112/182/74
f 113/184/75 116/190/75 117/193/75 112/183/75
f 113/185/76 114/187/76 119/195/76 116/191/76
o Cube.014
v -3.360101 5.232784 -3.978423
v -3.360101 4.847715 -3.978423
v -1.889124 4.847715 -3.978423
v -1.889124 5.232784 -3.978423
v -3.360101 5.232784 -1.945326
v -3.360101 4.847715 -1.945327
v -1.889124 5.232784 -1.945326
v -1.889124 4.847715 -1.945326
v -1.889124 5.232408 -3.978423
v -1.889124 5.232408 -1.945326
vn -1.0000 -0.0000 -0.0000
vn -0.0000 -1.0000 -0.0000
vn -0.0000 1.0000 -0.0000
vn 1.0000 -0.0000 -0.0000
vt 0.375000 0.162077
vt 0.125000 0.587923
vt 0.625000 0.162077
vt 0.875000 0.587923
vt 0.820278 0.587923
vt 0.179722 0.587923
vt 0.375000 0.083920
vt 0.125000 0.666080
vt 0.625000 0.083920
vt 0.875000 0.666080
vt 0.179722 0.666080
vt 0.820278 0.666080
vt 0.820278 0.587923
vt 0.820278 0.666080
s 0
f 124/202/77 120/196/77 121/198/77 125/204/77
f 122/200/78 127/207/78 125/205/78 121/199/78
f 120/197/79 124/203/79 126/206/79 123/201/79
f 122/200/80 128/208/80 129/209/80 127/207/80
o Cube.015
v -3.360101 4.847715 0.237685
v -3.360101 5.232784 0.237685
v -1.889124 4.847715 0.237685
v -1.889124 5.232784 0.237685
v -3.360101 5.232784 -1.945326
v -3.360101 4.847715 -1.945327
v -1.889124 5.232784 -1.945326
v -1.889124 4.847715 -1.945326
vn -0.0000 -1.0000 -0.0000
vn -0.0000 -0.0000 1.0000
vn -0.0000 1.0000 -0.0000
vn -1.0000 -0.0000 -0.0000
vt 0.875000 0.750000
vt 0.625000 1.000000
vt 0.625000 0.000000
vt 0.375000 1.000000
vt 0.125000 0.750000
vt 0.375000 0.000000
vt 0.820278 0.750000
vt 0.625000 0.945278
vt 0.375000 0.945278
vt 0.179722 0.750000
vt 0.125000 0.666080
vt 0.375000 0.083920
vt 0.875000 0.666080
vt 0.625000 0.083920
vt 0.179722 0.666080
vt 0.820278 0.666080
s 0
f 137/225/81 132/216/81 130/210/81 135/222/81
f 133/218/82 131/213/82 130/211/82 132/217/82
f 134/220/83 131/214/83 133/219/83 136/224/83
f 131/215/84 134/221/84 135/223/84 130/212/84
o Cube.016
v -1.889124 4.847715 0.237685
v -1.889124 5.232784 0.237685
v -1.889124 5.232784 -1.945326
v -1.889124 4.847715 -1.945326
v 1.997272 5.232784 0.237685
v 1.997271 4.847715 0.237685
v 1.997271 5.232784 -1.945327
v 1.997272 4.847715 -1.945326
v -1.889124 5.231156 -1.945326
v 1.997272 5.231156 -1.945326
vn -0.0000 -1.0000 -0.0000
vn -0.0000 -0.0000 1.0000
vn -0.0000 1.0000 -0.0000
vn -0.0000 -0.0000 -1.0000
vt 0.820278 0.750000
vt 0.625000 0.945278
vt 0.375000 0.945278
vt 0.179722 0.750000
vt 0.179722 0.666080
vt 0.820278 0.666080
vt 0.375000 0.800699
vt 0.324301 0.750000
vt 0.675699 0.750000
vt 0.625000 0.800699
vt 0.324301 0.666080
vt 0.675699 0.666080
vt 0.820278 0.666080
vt 0.675699 0.666080
s 0
f 145/237/85 143/234/85 138/226/85 141/231/85
f 142/232/86 139/228/86 138/227/86 143/235/86
f 140/230/87 139/229/87 142/233/87 144/236/87
f 141/231/88 146/238/88 147/239/88 145/237/88
o Cube.017
v 3.360101 4.847715 0.237685
v 3.360101 5.232784 0.237685
v 3.360101 4.847715 -1.945326
v 3.360101 5.232784 -1.945327
v 1.997272 5.232784 0.237685
v 1.997271 4.847715 0.237685
v 1.997271 5.232784 -1.945327
v 1.997272 4.847715 -1.945326
vn -0.0000 1.0000 -0.0000
vn 1.0000 -0.0000 -0.0000
vn -0.0000 -1.0000 -0.0000
vn -0.0000 -0.0000 1.0000
vt 0.625000 0.750000
vt 0.375000 0.750000
vt 0.625000 0.666080
vt 0.375000 0.666080
vt 0.324301 0.750000
vt 0.375000 0.800699
vt 0.675699 0.750000
vt 0.625000 0.800699
vt 0.324301 0.666080
vt 0.675699 0.666080
s 0
f 154/248/89 152/244/89 149/241/89 151/243/89
f 151/243/90 149/241/90 148/240/90 150/242/90
f 150/242/91 148/240/91 153/246/91 155/249/91
f 149/241/92 152/245/92 153/247/92 148/240/92
o Cube.018
v 3.360101 4.847715 -3.978423
v 3.360101 5.232784 -3.978423
v 3.360101 4.847715 -1.945326
v 3.360101 5.232784 -1.945327
v 1.997272 4.847715 -3.978423
v 1.997271 5.232784 -3.978423
v 1.997271 5.232784 -1.945327
v 1.997272 4.847715 -1.945326
v 1.997272 5.233913 -3.978423
v 1.997272 5.233913 -1.945326
vn -0.0000 1.0000 -0.0000
vn 1.0000 -0.0000 -0.0000
vn -0.0000 -1.0000 -0.0000
vn -1.0000 -0.0000 -0.0000
vt 0.625000 0.587923
vt 0.375000 0.587923
vt 0.625000 0.666080
vt 0.375000 0.666080
vt 0.675699 0.587923
vt 0.324301 0.587923
vt 0.324301 0.666080
vt 0.675699 0.666080
vt 0.675699 0.587923
vt 0.675699 0.666080
s 0
f 161/255/93 162/256/93 159/253/93 157/251/93
f 157/251/94 159/253/94 158/252/94 156/250/94
f 156/250/95 158/252/95 163/257/95 160/254/95
f 163/257/96 165/259/96 164/258/96 160/254/96
o Cube.019
v -3.360101 2.701278 6.219990
v -3.360101 3.086347 6.219990
v -1.333534 2.701278 6.219990
v -1.333534 3.086347 6.219990
v -3.360101 3.086347 1.296578
v -3.360101 2.701278 1.296578
v -1.333534 2.701278 1.296578
v -1.333534 3.086347 1.296578
vn -0.0000 -1.0000 -0.0000
vn -0.0000 -0.0000 1.0000
vn -0.0000 1.0000 -0.0000
vn -1.0000 -0.0000 -0.0000
vt 0.875000 0.750000
vt 0.625000 1.000000
vt 0.625000 0.000000
vt 0.375000 1.000000
vt 0.125000 0.750000
vt 0.375000 0.000000
vt 0.799609 0.750000
vt 0.625000 0.924609
vt 0.375000 0.924609
vt 0.200391 0.750000
vt 0.125000 0.651057
vt 0.375000 0.098943
vt 0.875000 0.651057
vt 0.625000 0.098943
vt 0.799609 0.651057
vt 0.200391 0.651057
s 0
f 172/274/97 168/266/97 166/260/97 171/272/97
f 169/268/98 167/263/98 166/261/98 168/267/98
f 170/270/99 167/264/99 169/269/99 173/275/99
f 167/265/100 170/271/100 171/273/100 166/262/100
o Cube.020
v -1.333534 2.701278 6.219990
v -1.333534 3.086347 6.219990
v 0.968673 3.086347 6.219990
v 0.968673 2.701278 6.219990
v -1.333534 2.701278 1.296578
v -1.333534 3.086347 1.296578
v 0.968673 2.701278 1.296578
v 0.968673 3.086347 1.296578
v -1.333534 3.084892 1.296578
v 0.968673 3.084892 1.296578
vn -0.0000 -1.0000 -0.0000
vn -0.0000 -0.0000 1.0000
vn -0.0000 1.0000 -0.0000
vn -0.0000 -0.0000 -1.0000
vt 0.799609 0.750000
vt 0.625000 0.924609
vt 0.375000 0.924609
vt 0.200391 0.750000
vt 0.375000 0.838964
vt 0.286036 0.750000
vt 0.713964 0.750000
vt 0.625000 0.838964
vt 0.799609 0.651057
vt 0.200391 0.651057
vt 0.713964 0.651057
vt 0.286036 0.651057
vt 0.799609 0.651057
vt 0.713964 0.651057
s 0
f 180/286/101 177/282/101 174/276/101 178/284/101
f 176/280/102 175/278/102 174/277/102 177/283/102
f 179/285/103 175/279/103 176/281/103 181/287/103
f 178/284/104 182/288/104 183/289/104 180/286/104
o Cube.021
v 3.360101 2.701278 6.219990
v 3.360101 3.086347 6.219990
v 0.968673 3.086347 6.219990
v 0.968673 2.701278 6.219990
v 3.360101 2.701278 1.296578
v 3.360101 3.086347 1.296578
v 0.968673 2.701278 1.296578
v 0.968673 3.086347 1.296578
vn -0.0000 1.0000 -0.0000
vn 1.0000 -0.0000 -0.0000
vn -0.0000 -1.0000 -0.0000
vn -0.0000 -0.0000 1.0000
vt 0.625000 0.750000
vt 0.375000 0.750000
vt 0.286036 0.750000
vt 0.375000 0.838964
vt 0.713964 0.750000
vt 0.625000 0.838964
vt 0.625000 0.651057
vt 0.375000 0.651057
vt 0.713964 0.651057
vt 0.286036 0.651057
s 0
f 191/299/105 186/292/105 185/291/105 189/297/105
f 189/297/106 185/291/106 184/290/106 188/296/106
f 188/296/107 184/290/107 187/294/107 190/298/107
f 185/291/108 186/293/108 187/295/108 184/290/108
o Cube.022
v 3.360101 2.701278 1.296578
v 3.360101 3.086347 1.296578
v 0.968673 2.701278 1.296578
v 0.968673 3.086347 1.296578
v 3.360101 3.086347 -2.341012
v 3.360101 2.701278 -2.341012
v 0.968673 2.701278 -2.341012
v 0.968673 3.086347 -2.341012
v 0.968673 3.084926 1.296578
v 0.968673 3.084926 -2.341012
vn -0.0000 1.0000 -0.0000
vn 1.0000 -0.0000 -0.0000
vn -0.0000 -1.0000 -0.0000
vn -1.0000 -0.0000 -0.0000
vt 0.625000 0.651057
vt 0.375000 0.651057
vt 0.713964 0.651057
vt 0.286036 0.651057
vt 0.375000 0.577954
vt 0.625000 0.577954
vt 0.713964 0.577954
vt 0.286036 0.577954
vt 0.713964 0.651057
vt 0.713964 0.577954
s 0
f 199/307/109 195/303/109 193/301/109 196/304/109
f 196/304/110 193/301/110 192/300/110 197/305/110
f 197/305/111 192/300/111 194/302/111 198/306/111
f 194/302/112 200/308/112 201/309/112 198/306/112
o Cube.023
v 3.360101 2.701278 -6.219990
v 3.360101 3.086347 -6.219990
v 0.968673 2.701278 -6.219990
v 0.968673 3.086347 -6.219990
v 3.360101 3.086347 -2.341012
v 3.360101 2.701278 -2.341012
v 0.968673 2.701278 -2.341012
v 0.968673 3.086347 -2.341012
vn -0.0000 -0.0000 -1.0000
vn -0.0000 -1.0000 -0.0000
vn -0.0000 1.0000 -0.0000
vn 1.0000 -0.0000 -0.0000
vt 0.625000 0.500000
vt 0.375000 0.500000
vt 0.625000 0.411036
vt 0.713964 0.500000
vt 0.375000 0.411036
vt 0.286036 0.500000
vt 0.375000 0.577954
vt 0.625000 0.577954
vt 0.713964 0.577954
vt 0.286036 0.577954
s 0
f 205/314/113 203/311/113 202/310/113 204/312/113
f 202/310/114 207/317/114 208/318/114 204/313/114
f 205/315/115 209/319/115 206/316/115 203/311/115
f 203/311/116 206/316/116 207/317/116 202/310/116
o Cube.024
v -1.333534 3.086347 -6.219990
v -1.333534 2.701278 -6.219990
v 0.968673 2.701278 -6.219990
v 0.968673 3.086347 -6.219990
v -1.333534 2.701278 -2.341012
v -1.333534 3.086347 -2.341012
v 0.968673 2.701278 -2.341012
v 0.968673 3.086347 -2.341012
v -1.333534 3.083800 -2.341012
v 0.968673 3.083800 -2.341012
vn -0.0000 -0.0000 -1.0000
vn -0.0000 1.0000 -0.0000
vn -0.0000 -1.0000 -0.0000
vn -0.0000 -0.0000 1.0000
vt 0.375000 0.325391
vt 0.200391 0.500000
vt 0.625000 0.325391
vt 0.799609 0.500000
vt 0.625000 0.411036
vt 0.713964 0.500000
vt 0.375000 0.411036
vt 0.286036 0.500000
vt 0.799609 0.577954
vt 0.200391 0.577954
vt 0.713964 0.577954
vt 0.286036 0.577954
vt 0.799609 0.577954
vt 0.713964 0.577954
s 0
f 210/320/117 213/326/117 212/324/117 211/322/117
f 210/321/118 215/329/118 217/331/118 213/327/118
f 212/325/119 216/330/119 214/328/119 211/323/119
f 216/330/120 219/333/120 218/332/120 214/328/120
o Cube.025
v -3.360101 2.701278 -6.219990
v -3.360101 3.086347 -6.219990
v -1.333534 3.086347 -6.219990
v -1.333534 2.701278 -6.219990
v -3.360101 2.701278 -2.341012
v -3.360101 3.086347 -2.341012
v -1.333534 2.701278 -2.341012
v -1.333534 3.086347 -2.341012
vn -1.0000 -0.0000 -0.0000
vn -0.0000 -0.0000 -1.0000
vn -0.0000 1.0000 -0.0000
vn -0.0000 -1.0000 -0.0000
vt 0.625000 0.250000
vt 0.875000 0.500000
vt 0.375000 0.250000
vt 0.125000 0.500000
vt 0.375000 0.325391
vt 0.200391 0.500000
vt 0.625000 0.325391
vt 0.799609 0.500000
vt 0.625000 0.172046
vt 0.875000 0.577954
vt 0.375000 0.172046
vt 0.125000 0.577954
vt 0.799609 0.577954
vt 0.200391 0.577954
s 0
f 225/344/121 221/336/121 220/334/121 224/342/121
f 221/336/122 222/338/122 223/340/122 220/334/122
f 221/337/123 225/345/123 227/347/123 222/339/123
f 223/341/124 226/346/124 224/343/124 220/335/124
