# Blender 3.3.1
# www.blender.org
o Cube.014
v -1.974989 -2.624562 -0.461648
v -1.974989 -2.624562 0.461648
v 2.004057 -2.624562 -0.461648
v 2.004057 -2.624562 0.461648
v 2.004057 -1.367416 -0.454356
v -1.970536 -1.377022 -0.454356
v -1.970536 -1.377022 0.461648
v 2.004057 -1.367416 0.461648
v -1.970536 -1.377022 0.461648
v 2.004057 -1.367416 0.461648
vn -0.0000 -1.0000 -0.0000
vn -0.0017 0.7071 0.7071
vn -0.0024 1.0000 -0.0000
vn -0.0000 -0.0000 1.0000
vt 0.520638 0.402055
vt 0.566426 0.402055
vt 0.223582 -0.005768
vt 0.520638 0.599387
vt 0.566426 0.599387
vt 0.149940 -0.005112
vt 0.149907 0.061226
vt 0.223443 0.060078
vt 0.223443 0.060078
vt 0.149907 0.061226
vt 0.223443 0.060078
vt 0.149907 0.061226
s 1
f 3/4/1 4/5/1 2/2/1 1/1/1
f 9/11/2 10/12/2 5/7/3 6/8/3
f 2/3/4 4/6/4 8/10/4 7/9/4
f 7/9/4 8/10/4 10/12/2 9/11/2
o Cube.001
v -10.082111 2.624562 -0.461648
v -10.082111 -2.624562 -0.461648
v -10.082111 2.624562 0.461648
v -10.082111 -2.624562 0.461648
v -1.957376 2.624562 -0.461648
v -1.974989 -2.624562 -0.461648
v -1.957376 2.624562 0.461648
v -1.974989 -2.624562 0.461648
v -1.957376 2.624562 -0.461648
v -1.957376 2.624562 0.461648
v -1.957376 2.624562 -0.461648
v -1.957376 2.624562 0.461648
v -1.957376 -2.607557 -0.461648
v -1.957376 -2.607557 0.461648
vn -0.0000 -0.0000 -1.0000
vn -1.0000 -0.0000 -0.0000
vn -0.0000 -1.0000 -0.0000
vn -0.0000 -0.0000 1.0000
vn -0.0000 1.0000 -0.0000
vn -0.0000 0.7071 0.7071
vn 0.7071 -0.0000 0.7071
vn 1.0000 -0.0000 -0.0000
vt 0.259366 0.000763
vt 0.384076 0.264515
vt 0.136030 0.266115
vt 0.256563 0.261066
vt 0.384076 0.004196
vt 0.520638 0.000000
vt 0.338287 0.264515
vt 0.373203 0.253211
vt 0.149606 0.266115
vt 0.338287 0.004196
vt 0.566426 0.000000
vt 0.373624 -0.007104
vt 0.155686 -0.001042
vt 0.130511 0.166518
vt 0.153107 0.259266
vt 0.520638 0.402055
vt 0.223031 0.254685
vt 0.144087 0.166518
vt 0.566426 0.402055
vt 0.223582 -0.005768
vt 0.130511 0.166518
vt 0.144087 0.166518
vt 0.130511 0.166518
vt 0.144087 0.166518
vt 0.130511 0.166518
vt 0.144087 0.166518
s 1
f 16/27/5 12/16/5 11/13/5 15/25/5
f 12/17/6 14/22/6 13/19/6 11/14/6
f 16/28/7 18/31/7 14/23/7 12/18/7
f 14/24/8 18/32/8 17/29/8 13/20/8
f 11/15/9 13/21/9 17/30/10 15/26/10
f 15/26/10 17/30/10 20/34/8 19/33/8
f 19/33/8 20/34/8 22/36/11 21/35/11
f 21/35/11 22/36/11 24/38/12 23/37/12
o Cube.002
v 10.082111 -2.624562 0.461648
v 10.082111 2.624562 0.461648
v 10.082111 2.624562 -0.461648
v 10.082111 -2.624562 -0.461648
v 2.004056 2.624562 -0.461648
v 2.004057 -2.624562 -0.461648
v 2.004056 2.624562 0.461648
v 2.004057 -2.624562 0.461648
v 2.004056 -2.621080 -0.461648
v 2.004056 -2.621080 0.461648
vn 1.0000 -0.0000 -0.0000
vn -0.0000 -0.0000 1.0000
vn -0.7071 0.7071 -0.0000
vn -0.0000 1.0000 -0.0000
vn -0.0000 -1.0000 -0.0000
vn -0.0000 -0.0000 -1.0000
vn -1.0000 -0.0000 -0.0000
vt 0.189254 -0.003906
vt 0.000436 -0.003780
vt 0.566426 1.000000
vt 0.189254 0.256413
vt 0.000502 0.256868
vt 0.135909 0.018933
vt 0.143465 0.256413
vt 0.122333 0.018933
vt 0.002049 -0.003716
vt 0.143465 -0.003906
vt 0.520638 1.000000
vt -0.000754 0.256588
vt 0.105134 -0.001922
vt 0.127820 0.117957
vt 0.520638 0.599387
vt 0.102331 0.258382
vt 0.149811 0.255403
vt 0.141396 0.117957
vt 0.149940 -0.005112
vt 0.566426 0.599387
vt 0.127820 0.117957
vt 0.141396 0.117957
s 1
f 25/39/13 28/48/13 27/45/13 26/42/13
f 32/57/14 25/40/14 26/43/14 31/55/14
f 29/52/15 31/56/15 26/44/16 27/46/16
f 28/49/17 25/41/17 32/58/17 30/53/17
f 28/50/18 30/54/18 29/51/18 27/47/18
f 31/56/15 29/52/15 33/59/19 34/60/19
o Cube.003
v -1.974989 -2.624562 -0.461648
v 2.004057 -2.624562 -0.461648
v -1.970810 -1.379022 -0.461648
v 2.004057 -1.369415 -0.461648
vn -0.0000 -0.0000 -1.0000
vt 0.153107 0.259266
vt 0.102331 0.258382
vt 0.153719 0.197499
vt 0.103001 0.196139
s 1
f 36/62/20 35/61/20 37/63/20 38/64/20
o Cube.004
v -1.957376 2.624562 -0.461648
v -1.957376 2.624562 0.461648
v 2.004056 2.624562 -0.461648
v 2.004056 2.624562 0.461648
v -1.962448 1.112778 0.461648
v -1.962448 1.112778 -0.461648
v 2.004056 1.132221 0.461648
v 2.004056 1.132222 -0.461648
v -1.962448 1.112778 -0.465734
v 2.004056 1.132221 -0.465734
v 2.004056 2.624562 -0.461648
v 2.004056 2.624562 0.461648
vn -0.0000 -0.0000 -1.0000
vn 0.0035 -0.7090 0.7052
vn 0.0035 -0.7060 0.7082
vn -0.0000 -0.0000 1.0000
vn -0.0000 1.0000 -0.0000
vn -0.0000 0.7071 0.7071
vn 0.0049 -1.0000 -0.0000
vn -0.0000 -0.0000 -0.0000
vt 0.155686 -0.001042
vt 0.130511 0.166518
vt 0.223031 0.254685
vt 0.144087 0.166518
vt 0.105134 -0.001922
vt 0.127820 0.117957
vt 0.149811 0.255403
vt 0.141396 0.117957
vt 0.223190 0.179672
vt 0.154943 0.073929
vt 0.149848 0.181338
vt 0.104337 0.072083
vt 0.223190 0.179672
vt 0.149848 0.181338
vt 0.127820 0.117957
vt 0.141396 0.117957
s 1
f 46/76/21 44/74/21 39/65/21 41/69/21
f 43/73/22 45/75/23 42/71/24 40/67/24
f 39/66/25 40/68/25 42/72/26 41/70/26
f 45/75/23 43/73/22 47/77/27 48/78/27
f 41/70/26 42/72/26 50/80/28 49/79/28
