# Blender 3.3.1
# www.blender.org
o Cube.060
v -0.531249 5.915679 11.032917
v -0.531249 8.371229 11.032917
v -0.531249 5.915679 10.703732
v -0.531249 8.371229 10.703732
v -0.300578 5.915679 11.032917
v -0.300578 8.371229 11.032917
v -0.300578 5.915679 10.703732
v -0.300578 8.371229 10.703732
vn -1.0000 -0.0000 -0.0000
vn -0.0000 -0.0000 -1.0000
vn 1.0000 -0.0000 -0.0000
vn -0.0000 -0.0000 1.0000
vn -0.0000 -1.0000 -0.0000
vn -0.0000 1.0000 -0.0000
vt 0.199574 -0.021771
vt 0.199574 0.054594
vt 0.180483 0.035503
vt 0.218665 -0.021771
vt 0.218665 0.054594
vt 0.237756 0.035503
vt 0.199574 -0.002679
vt 0.180483 0.016412
vt 0.218665 -0.002679
vt 0.237756 0.016412
vt 0.199574 0.035503
vt 0.218665 0.035503
vt 0.199574 0.016412
vt 0.218665 0.016412
s 0
f 1/1/1 2/4/1 4/9/1 3/7/1
f 3/7/2 4/9/2 8/14/2 7/13/2
f 7/13/3 8/14/3 6/12/3 5/11/3
f 5/11/4 6/12/4 2/5/4 1/2/4
f 3/8/5 7/13/5 5/11/5 1/3/5
f 8/14/6 4/10/6 2/6/6 6/12/6
o Cube.059
v -0.982207 -10.038458 1.098268
v -0.690318 -8.907533 0.806379
v -0.982207 -10.038458 -0.797540
v -0.690318 -8.893858 -0.505651
v 0.913602 -10.038458 1.098268
v 0.621713 -8.907533 0.806379
v 0.913602 -10.038458 -0.797540
v 0.621713 -8.893858 -0.505651
v -0.982207 -9.342491 1.098268
v -0.982207 -9.262021 -0.797540
v 0.913602 -9.262021 -0.797540
v 0.913602 -9.342491 1.098268
vn -1.0000 -0.0000 -0.0000
vn -0.0000 -0.0000 -1.0000
vn 1.0000 -0.0000 -0.0000
vn -0.0000 -0.0000 1.0000
vn -0.0000 -1.0000 -0.0000
vn -0.0000 0.9999 0.0104
vn -0.8088 0.5879 0.0173
vn -0.0000 0.6213 -0.7836
vn 0.8088 0.5879 0.0173
vn -0.0000 0.5572 0.8304
vt 0.060580 0.134910
vt 0.060580 0.276057
vt 0.025293 0.240771
vt 0.125721 0.235338
vt 0.060580 0.170197
vt 0.025293 0.205484
vt 0.125721 0.210917
vt 0.060580 0.240771
vt 0.101300 0.235338
vt 0.060580 0.205484
vt 0.101300 0.210917
vt 0.095867 0.134910
vt 0.095867 0.276057
vt 0.131154 0.240771
vt 0.095867 0.170197
vt 0.131154 0.205484
vt 0.095867 0.205484
vt 0.095867 0.240771
s 0
f 9/15/7 17/26/7 18/29/7 11/19/7
f 11/19/8 18/29/8 19/31/8 15/24/8
f 15/24/9 19/31/9 20/32/9 13/22/9
f 13/22/10 20/32/10 17/27/10 9/16/10
f 11/20/11 15/24/11 13/22/11 9/17/11
f 16/25/12 12/21/12 10/18/12 14/23/12
f 10/18/13 12/21/13 18/30/13 17/28/13
f 12/21/14 16/25/14 19/31/14 18/30/14
f 16/25/15 14/23/15 20/32/15 19/31/15
f 14/23/16 10/18/16 17/28/16 20/32/16
o Cube.058
v -0.491918 8.275333 -2.352134
v -0.694159 8.299927 11.119984
v -0.490078 9.275689 -2.338789
v -0.693069 8.892449 11.127890
v 0.506720 8.273094 -2.322035
v -0.102653 8.298600 11.137812
v 0.508560 9.273451 -2.308690
v -0.101564 8.891124 11.145718
vn -0.9999 0.0020 -0.0150
vn 0.0014 0.9996 0.0285
vn 0.9990 -0.0024 0.0452
vn -0.0023 -1.0000 0.0018
vn 0.0302 0.0133 -0.9995
vn -0.0302 -0.0133 0.9995
vt 0.376351 0.552222
vt 0.375000 1.000000
vt 0.259314 0.484790
vt 0.375462 0.352587
vt 0.625000 1.000000
vt 0.875000 0.750000
vt 0.450010 0.551894
vt 0.381248 0.423504
vt 0.259314 0.408882
vt 0.449121 0.352259
vt 0.444224 0.423504
vt 0.875000 0.500000
vt 0.608474 0.512890
vt 0.375000 0.750000
vt 0.335222 0.484790
vt 0.675134 0.512890
vt 0.625000 0.750000
vt 0.381248 0.486480
vt 0.608474 0.446230
vt 0.335222 0.408882
vt 0.444224 0.486480
vt 0.675134 0.446230
vt 0.625000 0.500000
s 0
f 21/33/17 22/36/17 24/42/17 23/39/17
f 23/40/18 24/43/18 28/53/18 27/50/18
f 27/51/19 28/54/19 26/48/19 25/45/19
f 25/46/20 26/49/20 22/37/20 21/34/20
f 23/41/21 27/52/21 25/47/21 21/35/21
f 28/55/22 24/44/22 22/38/22 26/49/22
o Cube.057
v -0.583831 -9.810570 0.630427
v -0.583831 9.493048 0.630427
v -0.583831 -9.810570 -0.395289
v -0.583831 9.493048 -0.395289
v 0.441884 -9.810570 0.630427
v 0.441884 9.493048 0.630427
v 0.441884 -9.810570 -0.395289
v 0.441884 9.493048 -0.395289
vn -1.0000 -0.0000 -0.0000
vn -0.0000 -0.0000 -1.0000
vn 1.0000 -0.0000 -0.0000
vn -0.0000 -0.0000 1.0000
vn -0.0000 -1.0000 -0.0000
vn -0.0000 1.0000 -0.0000
vt 0.254290 0.555312
vt 0.300411 0.539490
vt 0.084947 0.517448
vt 0.250844 0.369658
vt 0.299969 0.379272
vt 0.144201 0.215659
vt 0.305544 0.554360
vt 0.252544 0.542046
vt 0.084947 0.466184
vt 0.302098 0.368706
vt 0.251528 0.377161
vt 0.144201 0.164396
vt 0.307021 0.557052
vt 0.249147 0.539631
vt 0.136210 0.517448
vt 0.306718 0.389348
vt 0.248705 0.379413
vt 0.092938 0.215659
vt 0.297588 0.540304
vt 0.242398 0.565196
vt 0.136210 0.466184
vt 0.296572 0.375419
vt 0.242095 0.397492
vt 0.092938 0.164396
s 0
f 29/56/23 30/59/23 32/65/23 31/62/23
f 31/63/24 32/66/24 36/77/24 35/74/24
f 35/75/25 36/78/25 34/71/25 33/68/25
f 33/69/26 34/72/26 30/60/26 29/57/26
f 31/64/27 35/76/27 33/70/27 29/58/27
f 36/79/28 32/67/28 30/61/28 34/73/28
