# Blender 3.3.1
# www.blender.org
o Cylinder.001
v -1.386119 -1.715509 1.324420
v -1.386119 1.715509 1.324420
v -1.758148 -1.715509 -0.000000
v -1.758148 1.715509 0.000000
v -1.095481 -1.715509 1.046719
v -1.095481 1.715509 1.046719
v -1.347124 -1.715509 -0.000000
v -1.347124 1.715509 0.000000
vn -0.9627 -0.0000 0.2704
vn 0.9723 -0.0000 -0.2338
vn -0.0000 -1.0000 -0.0000
vn -0.0000 1.0000 -0.0000
vt 0.375000 0.000000
vt 0.375000 1.000000
vt 0.250000 0.000000
vt 0.250000 1.000000
vt 0.375000 0.000000
vt 0.375000 1.000000
vt 0.250000 0.000000
vt 0.250000 1.000000
s 0
f 1/1/1 2/2/1 4/4/1 3/3/1
f 5/5/2 7/7/2 8/8/2 6/6/2
f 1/1/3 3/3/3 7/7/3 5/5/3
f 4/4/4 2/2/4 6/6/4 8/8/4
o Cylinder.002
v -1.758204 -1.715509 -0.000000
v -1.758204 1.715509 0.000000
v -1.386119 -1.715509 -1.324420
v -1.386119 1.715509 -1.324420
v -1.347180 -1.715509 -0.000000
v -1.347180 1.715509 0.000000
v -1.095481 -1.715509 -1.046719
v -1.095481 1.715509 -1.046719
vn -0.9627 -0.0000 -0.2705
vn 0.9723 -0.0000 0.2338
vn -0.0000 -1.0000 -0.0000
vn -0.0000 1.0000 -0.0000
vt 0.250000 0.000000
vt 0.250000 1.000000
vt 0.125000 0.000000
vt 0.125000 1.000000
vt 0.250000 0.000000
vt 0.250000 1.000000
vt 0.125000 0.000000
vt 0.125000 1.000000
s 0
f 9/9/5 10/10/5 12/12/5 11/11/5
f 13/13/6 15/15/6 16/16/6 14/14/6
f 9/9/7 11/11/7 15/15/7 13/13/7
f 12/12/8 10/10/8 14/14/8 16/16/8
o Cylinder.003
v 0.000000 -1.715509 -1.514729
v 0.000000 1.715509 -1.514728
v -1.386119 -1.715509 -1.324420
v -1.386119 1.715509 -1.324420
v 0.000000 -1.715509 -1.122000
v 0.000000 1.715509 -1.121999
v -1.095481 -1.715509 -1.046719
v -1.095481 1.715509 -1.046719
vn -0.1360 -0.0000 -0.9907
vn 0.0686 -0.0000 0.9976
vn -0.0000 -1.0000 -0.0000
vn -0.0000 1.0000 -0.0000
vt 0.000000 0.000000
vt 0.000000 1.000000
vt 0.125000 0.000000
vt 0.125000 1.000000
vt 0.000000 0.000000
vt 0.000000 1.000000
vt 0.125000 0.000000
vt 0.125000 1.000000
s 0
f 19/19/9 20/20/9 18/18/9 17/17/9
f 23/23/10 21/21/10 22/22/10 24/24/10
f 19/19/11 17/17/11 21/21/11 23/23/11
f 18/18/12 20/20/12 24/24/12 22/22/12
o Cylinder.004
v 0.000000 -1.715509 -1.512672
v 0.000000 1.715509 -1.512671
v 1.386119 -1.715509 -1.324420
v 1.386119 1.715509 -1.324420
v 0.000000 -1.715509 -1.119943
v 0.000000 1.715509 -1.119942
v 1.095481 -1.715509 -1.046719
v 1.095481 1.715509 -1.046719
vn 0.1346 -0.0000 -0.9909
vn -0.0667 -0.0000 0.9978
vn -0.0000 -1.0000 -0.0000
vn -0.0000 1.0000 -0.0000
vt 1.000000 0.000000
vt 1.000000 1.000000
vt 0.875000 0.000000
vt 0.875000 1.000000
vt 1.000000 0.000000
vt 1.000000 1.000000
vt 0.875000 0.000000
vt 0.875000 1.000000
s 0
f 25/25/13 26/26/13 28/28/13 27/27/13
f 29/29/14 31/31/14 32/32/14 30/30/14
f 25/25/15 27/27/15 31/31/15 29/29/15
f 28/28/16 26/26/16 30/30/16 32/32/16
o Cylinder.005
v 1.386119 -1.715509 -1.324420
v 1.386119 1.715509 -1.324420
v 1.743273 -1.715509 -0.000000
v 1.743273 1.715509 0.000000
v 1.095481 -1.715509 -1.046719
v 1.095481 1.715509 -1.046719
v 1.332249 -1.715509 -0.000000
v 1.332249 1.715509 0.000000
vn 0.9655 -0.0000 -0.2604
vn -0.9754 -0.0000 0.2206
vn -0.0000 -1.0000 -0.0000
vn -0.0000 1.0000 -0.0000
vt 0.875000 0.000000
vt 0.875000 1.000000
vt 0.750000 0.000000
vt 0.750000 1.000000
vt 0.875000 0.000000
vt 0.875000 1.000000
vt 0.750000 0.000000
vt 0.750000 1.000000
s 0
f 33/33/17 34/34/17 36/36/17 35/35/17
f 37/37/18 39/39/18 40/40/18 38/38/18
f 33/33/19 35/35/19 39/39/19 37/37/19
f 36/36/20 34/34/20 38/38/20 40/40/20
o Cylinder.006
v 1.741449 -1.715509 -0.000000
v 1.741449 1.715509 0.000000
v 1.386119 -1.715509 1.324420
v 1.386119 1.715509 1.324420
v 1.330425 -1.715509 -0.000000
v 1.330425 1.715509 0.000000
v 1.095481 -1.715509 1.046719
v 1.095481 1.715509 1.046719
vn 0.9658 -0.0000 0.2591
vn -0.9757 -0.0000 -0.2190
vn -0.0000 -1.0000 -0.0000
vn -0.0000 1.0000 -0.0000
vt 0.750000 0.000000
vt 0.750000 1.000000
vt 0.625000 0.000000
vt 0.625000 1.000000
vt 0.750000 0.000000
vt 0.750000 1.000000
vt 0.625000 0.000000
vt 0.625000 1.000000
s 0
f 41/41/21 42/42/21 44/44/21 43/43/21
f 45/45/22 47/47/22 48/48/22 46/46/22
f 41/41/23 43/43/23 47/47/23 45/45/23
f 44/44/24 42/42/24 46/46/24 48/48/24
o Cylinder.007
v 1.386119 -1.715509 1.324420
v 1.386119 1.715509 1.324420
v 0.000000 -1.715509 1.534441
v 0.000000 1.715509 1.534441
v 1.095481 -1.715509 1.046719
v 1.095481 1.715509 1.046719
v 0.000000 -1.715509 1.141712
v 0.000000 1.715509 1.141712
vn 0.1498 -0.0000 0.9887
vn -0.0864 -0.0000 -0.9963
vn -0.0000 -1.0000 -0.0000
vn -0.0000 1.0000 -0.0000
vt 0.625000 0.000000
vt 0.625000 1.000000
vt 0.500000 0.000000
vt 0.500000 1.000000
vt 0.625000 0.000000
vt 0.625000 1.000000
vt 0.500000 0.000000
vt 0.500000 1.000000
s 0
f 49/49/25 50/50/25 52/52/25 51/51/25
f 53/53/26 55/55/26 56/56/26 54/54/26
f 49/49/27 51/51/27 55/55/27 53/53/27
f 52/52/28 50/50/28 54/54/28 56/56/28
o Cylinder.048
v 0.000000 -1.715509 1.531778
v 0.000000 1.715509 1.531778
v -1.386119 -1.715509 1.324420
v -1.386119 1.715509 1.324420
v 0.000000 -1.715509 1.139049
v 0.000000 1.715509 1.139049
v -1.095481 -1.715509 1.046719
v -1.095481 1.715509 1.046719
vn -0.1479 -0.0000 0.9890
vn 0.0840 -0.0000 -0.9965
vn -0.0000 -1.0000 -0.0000
vn -0.0000 1.0000 -0.0000
vt 0.500000 0.000000
vt 0.500000 1.000000
vt 0.375000 0.000000
vt 0.375000 1.000000
vt 0.500000 0.000000
vt 0.500000 1.000000
vt 0.375000 0.000000
vt 0.375000 1.000000
s 0
f 57/57/29 58/58/29 60/60/29 59/59/29
f 61/61/30 63/63/30 64/64/30 62/62/30
f 57/57/31 59/59/31 63/63/31 61/61/31
f 60/60/32 58/58/32 62/62/32 64/64/32
