# Blender 3.3.1
# www.blender.org
o Cube.029
v -0.517473 -1.000002 7.644656
v -0.517473 0.999998 7.644656
v -0.517473 0.999998 7.301180
v -0.517473 -1.000002 7.301180
v -0.346839 0.999998 7.301180
v -0.346839 -1.000002 7.301180
v -0.346839 0.999998 7.644656
v -0.346839 -1.000002 7.644656
vn -1.0000 -0.0000 -0.0000
vn -0.0000 -0.0000 -1.0000
vn 1.0000 -0.0000 -0.0000
vn -0.0000 -0.0000 1.0000
vn -0.0000 -1.0000 -0.0000
vn -0.0000 1.0000 -0.0000
vt 0.778157 0.431394
vt 0.288829 0.381545
vt 0.244574 0.307786
vt 0.778157 0.551052
vt 0.288829 0.501203
vt 0.290209 0.458197
vt 0.757609 0.551052
vt 0.824421 0.551052
vt 0.290209 0.437647
vt 0.757609 0.431394
vt 0.824421 0.431394
vt 0.244574 0.287236
vt 0.814345 0.551052
vt 0.301460 0.123567
vt 0.280000 0.437647
vt 0.814345 0.431394
vt 0.301460 0.003910
vt 0.254783 0.287236
vt 0.280912 0.123567
vt 0.298944 0.501203
vt 0.280000 0.458197
vt 0.280912 0.003910
vt 0.298944 0.381545
vt 0.254783 0.307786
s 1
f 1/1/1 2/4/1 3/7/1 4/10/1
f 4/11/2 3/8/2 5/13/2 6/16/2
f 6/17/3 5/14/3 7/19/3 8/22/3
f 8/23/4 7/20/4 2/5/4 1/2/4
f 4/12/5 6/18/5 8/24/5 1/3/5
f 5/15/6 3/9/6 2/6/6 7/21/6
o Cube.001
v -0.137168 -0.014083 7.626650
v -0.137168 1.039086 7.626650
v -0.145789 1.039090 -7.617363
v -0.145789 -0.014079 -7.617363
v -0.346112 1.039090 -7.530501
v -0.346112 -0.014079 -7.530501
v -0.655029 -0.014079 -8.242929
v -0.655029 1.039090 -8.242929
v -0.329930 1.039086 7.524098
v -0.329930 -0.014083 7.524098
v -0.470886 1.039086 8.253922
v -0.663648 1.039086 8.151370
v -0.663648 -0.014083 8.151370
v -0.470886 -0.014083 8.253922
v -0.454706 -0.014079 -8.329791
v -0.454706 1.039090 -8.329791
vn 1.0000 -0.0000 -0.0006
vn -0.9175 -0.0000 0.3978
vn -1.0000 -0.0000 0.0011
vn -0.0000 1.0000 -0.0000
vn -0.0000 -1.0000 -0.0000
vn -0.4697 -0.0000 0.8828
vn -0.8828 -0.0000 -0.4697
vn 0.8828 -0.0000 0.4697
vn -0.3978 -0.0000 -0.9175
vn 0.9175 -0.0000 -0.3978
vt 1.000714 0.759751
vt 0.956420 0.804355
vt 0.030768 0.838611
vt 0.145571 0.958550
vt 1.000487 0.846622
vt 0.184874 0.041450
vt 0.031380 0.802675
vt 0.028787 0.993358
vt 0.002974 0.843129
vt 0.943269 0.818541
vt 0.185869 0.953476
vt 0.127390 0.984936
vt 0.003201 0.756258
vt 0.044401 0.808013
vt 0.146566 0.046524
vt 0.129323 0.850714
vt 0.233553 0.002602
vt 0.887324 0.055299
vt 0.938288 0.806465
vt 0.197851 0.948273
vt 0.296563 0.002602
vt 0.887866 0.006050
vt 0.049543 0.796005
vt 0.158548 0.051727
vt 0.296563 0.044949
vt 0.414169 0.876343
vt 0.177053 0.009113
vt 0.233553 0.044949
vt 0.414169 0.939353
vt 0.216356 0.990887
vt 0.060181 0.048704
vt 0.196410 0.047579
vt 0.037721 0.791255
vt 0.074741 0.041729
vt 0.060723 -0.000545
vt 0.950232 0.792850
vt 0.137750 0.041729
vt 0.157107 0.952421
vt 0.204820 0.003910
vt 0.451386 0.940936
vt 0.121674 0.994547
vt 0.216356 0.010039
vt 0.463756 0.940936
vt 0.074741 0.003910
vt 0.463756 0.877926
vt 0.137750 0.003910
vt 0.177053 0.989960
vt 0.451386 0.877926
vt 0.123654 0.839800
vt 0.165517 0.996090
vt 0.426747 0.876343
vt 0.165071 0.003910
vt 0.039122 0.849415
vt 0.426747 0.939353
vt 0.204373 0.996090
vt 0.037189 0.983637
s 1
f 9/25/7 12/37/7 11/33/7 10/29/7
f 13/41/8 16/52/8 15/49/8 14/45/8
f 14/46/9 18/59/9 17/55/9 13/42/9
f 17/56/10 20/66/10 19/63/10 10/30/10
f 12/38/11 9/26/11 18/60/11 14/47/11
f 13/43/10 17/57/10 10/31/10 11/34/10
f 21/69/12 22/72/12 19/64/12 20/67/12
f 18/61/13 21/70/13 20/68/13 17/58/13
f 10/32/14 19/65/14 22/73/14 9/27/14
f 9/28/11 22/74/11 21/71/11 18/62/11
f 23/75/15 15/50/15 16/53/15 24/78/15
f 14/48/11 15/51/11 23/76/11 12/39/11
f 11/35/10 24/79/10 16/54/10 13/44/10
f 12/40/16 23/77/16 24/80/16 11/36/16
o Cube.002
v -0.517473 -0.999998 -7.258343
v -0.517473 1.000002 -7.258343
v -0.517473 1.000002 -7.601820
v -0.517473 -0.999998 -7.601820
v -0.346839 1.000002 -7.601820
v -0.346839 -0.999998 -7.601820
v -0.346839 1.000002 -7.258343
v -0.346839 -0.999998 -7.258343
vn -1.0000 -0.0000 -0.0000
vn -0.0000 -0.0000 -1.0000
vn 1.0000 -0.0000 -0.0000
vn -0.0000 -0.0000 1.0000
vn -0.0000 -1.0000 -0.0000
vn -0.0000 1.0000 -0.0000
vt 0.290639 0.413211
vt 0.278810 0.381545
vt 0.283167 0.279416
vt 0.290639 0.532868
vt 0.278810 0.501203
vt 0.305448 0.466242
vt 0.270091 0.532868
vt 0.280426 0.547118
vt 0.305448 0.445692
vt 0.270091 0.413211
vt 0.280426 0.427460
vt 0.283167 0.258866
vt 0.270350 0.547118
vt 0.244724 0.123567
vt 0.295239 0.445692
vt 0.270350 0.427460
vt 0.244724 0.003910
vt 0.293376 0.258866
vt 0.224176 0.123567
vt 0.288925 0.501203
vt 0.295239 0.466242
vt 0.224176 0.003910
vt 0.288925 0.381545
vt 0.293376 0.279416
s 1
f 25/81/17 26/84/17 27/87/17 28/90/17
f 28/91/18 27/88/18 29/93/18 30/96/18
f 30/97/19 29/94/19 31/99/19 32/102/19
f 32/103/20 31/100/20 26/85/20 25/82/20
f 28/92/21 30/98/21 32/104/21 25/83/21
f 29/95/22 27/89/22 26/86/22 31/101/22
