# Blender v3.3.1 OBJ File: ''
# www.blender.org
mtllib pallet.mtl
o Cube.003
v -2.189844 -0.306386 3.102153
v -2.189844 0.306385 3.102153
v -2.189844 0.306386 -3.102153
v -2.189844 -0.306385 -3.102153
v 2.189844 0.306386 -3.102153
v 2.189844 -0.306385 -3.102153
v 2.189844 0.306385 3.102153
v 2.189844 -0.306386 3.102153
vt 0.836964 1.050116
vt 0.731973 1.050116
vt 0.731973 -0.012922
vt 0.836964 -0.012922
vt 0.085322 0.884900
vt 0.005844 0.884900
vt 0.005844 0.316841
vt 0.085322 0.316841
vt 0.679246 1.032369
vt 0.576665 1.032369
vt 0.576665 -0.006264
vt 0.679246 -0.006264
vt 0.065886 0.972275
vt 0.007990 0.972275
vt 0.007990 0.558472
vt 0.065886 0.558472
vt 0.354883 -0.009586
vt 0.768686 -0.009586
vt 0.768686 1.050477
vt 0.354883 1.050477
vt 0.424893 -0.015544
vt 0.838696 -0.015544
vt 0.838696 1.041649
vt 0.424893 1.041649
vn -1.0000 0.0000 0.0000
vn 0.0000 0.0000 -1.0000
vn 1.0000 0.0000 0.0000
vn 0.0000 0.0000 1.0000
vn 0.0000 -1.0000 -0.0000
vn 0.0000 1.0000 0.0000
usemtl Default_OBJ.001
s off
f 1/1/1 2/2/1 3/3/1 4/4/1
f 4/5/2 3/6/2 5/7/2 6/8/2
f 6/9/3 5/10/3 7/11/3 8/12/3
f 8/13/4 7/14/4 2/15/4 1/16/4
f 4/17/5 6/18/5 8/19/5 1/20/5
f 5/21/6 3/22/6 2/23/6 7/24/6
