# Blender 3.3.1
# www.blender.org
o Cube.050
v 5.125424 9.913330 -4.893188
v 5.125424 -9.913330 -4.893188
v 5.041216 9.913330 4.979899
v 5.041216 -9.913330 4.979899
v -5.041216 9.913330 -4.979899
v -5.041216 -9.913330 -4.979899
v -5.125424 9.913330 4.893188
v -5.125424 -9.913330 4.893188
vn -1.0000 -0.0000 -0.0085
vn 0.0085 -0.0000 -1.0000
vn 1.0000 -0.0000 0.0085
vn -0.0085 -0.0000 1.0000
vn -0.0000 -1.0000 -0.0000
vn -0.0000 1.0000 -0.0000
vt -0.000850 0.995942
vt 1.000375 1.001709
vt 0.162996 1.000000
vt -0.000594 -0.001921
vt 1.000375 0.000000
vt 0.325993 0.737028
vt 0.999716 1.002344
vt 0.000000 1.005279
vt 0.000000 1.000000
vt 1.000869 0.003585
vt 0.000000 0.000000
vt 0.162996 0.737028
vt 1.003422 1.000044
vt 0.001619 1.001709
vt 0.176314 0.910154
vt 1.001758 0.001665
vt 0.001619 0.001665
vt 0.325993 1.000000
vt 1.000667 1.005279
vt 0.001432 1.000044
vt 0.013317 0.910154
vt 1.000667 0.000000
vt -0.000233 0.001665
vt 0.162996 1.000000
s 0
f 1/1/1 2/4/1 4/10/1 3/7/1
f 3/8/2 4/11/2 8/22/2 7/19/2
f 7/20/3 8/23/3 6/16/3 5/13/3
f 5/14/4 6/17/4 2/5/4 1/2/4
f 3/9/5 7/21/5 5/15/5 1/3/5
f 8/24/6 4/12/6 2/6/6 6/18/6
