# Blender 3.3.1
# www.blender.org
o Cube
v -0.066502 -0.066502 0.066502
v -0.066502 0.066502 0.066502
v -0.066502 -0.066502 -0.066502
v -0.066502 0.066502 -0.066502
v 0.066502 -0.066502 0.066502
v 0.066502 0.066502 0.066502
v 0.066502 -0.066502 -0.066502
v 0.066502 0.066502 -0.066502
v 0.062361 0.643946 -0.137298
v 0.062361 0.100584 -0.048391
v 0.062361 0.643946 0.123077
v 0.062361 0.100584 0.043020
v -0.062361 0.643946 -0.137298
v -0.062361 0.100584 -0.048391
v -0.062361 0.643946 0.123077
v -0.062361 0.100584 0.043020
v 0.062361 0.471515 -0.137298
v -0.062361 0.471515 0.123077
v 0.062361 0.471515 0.123077
v -0.062361 0.471515 -0.137298
vn -1.0000 -0.0000 -0.0000
vn -0.0000 -0.0000 -1.0000
vn 1.0000 -0.0000 -0.0000
vn -0.0000 -0.0000 1.0000
vn -0.0000 -1.0000 -0.0000
vn -0.0000 1.0000 -0.0000
vn -0.0000 -0.2110 0.9775
vn -0.0000 -0.2331 -0.9725
vt 0.121711 0.712732
vt 0.078368 0.971124
vt 0.119583 0.891920
vt 0.274526 0.712732
vt 0.328368 0.971124
vt 0.288912 0.883178
vt 0.121711 0.865548
vt 0.107244 0.698885
vt 0.119583 0.751839
vt 0.274526 0.865548
vt 0.357244 0.698885
vt 0.288912 0.723830
vt 0.086243 0.899628
vt 0.078368 0.721124
vt 0.259664 0.891920
vt 0.336243 0.899628
vt 0.328368 0.721124
vt 0.129564 0.883178
vt 0.107244 0.948885
vt 0.086243 0.649628
vt 0.259664 0.751839
vt 0.357244 0.948885
vt 0.336243 0.649628
vt 0.129564 0.723830
vt 0.105238 0.668004
vt 0.236491 0.699505
vt 0.254867 0.801882
vt 0.251549 0.744203
vt 0.250576 0.444169
vt 0.107244 0.893759
vt 0.105238 0.918004
vt 0.244366 0.668623
vt 0.236491 0.949505
vt 0.251549 0.878555
vt 0.115119 0.668623
vt 0.155585 0.442409
vt 0.355238 0.668004
vt 0.254867 0.814388
vt 0.254867 0.551882
vt 0.117198 0.744203
vt 0.130869 0.885264
vt 0.107244 0.643759
vt 0.355238 0.918004
vt 0.244366 0.918623
vt 0.254867 0.564388
vt 0.117198 0.878555
vt 0.115119 0.918623
vt 0.130869 0.635264
vt 0.157156 0.699505
vt 0.175532 0.801882
vt 0.325882 0.766460
vt 0.277909 0.893759
vt 0.165031 0.918623
vt 0.175532 0.564388
vt 0.285784 0.918623
vt 0.301534 0.635264
vt 0.165031 0.668623
vt 0.157156 0.949505
vt 0.285784 0.668623
vt 0.075012 0.768202
vt 0.175532 0.814388
vt 0.175532 0.551882
vt 0.301534 0.885264
vt 0.277909 0.643759
s 0
f 1/1/1 2/4/1 4/10/1 3/7/1
f 3/8/2 4/11/2 8/22/2 7/19/2
f 7/20/3 8/23/3 6/16/3 5/13/3
f 5/14/4 6/17/4 2/5/4 1/2/4
f 3/9/5 7/21/5 5/15/5 1/3/5
f 8/24/6 4/12/6 2/6/6 6/18/6
f 9/25/6 13/37/6 15/43/6 11/31/6
f 19/57/4 11/32/4 15/44/4 18/53/4
f 18/54/1 15/45/1 13/38/1 20/61/1
f 14/40/5 10/28/5 12/34/5 16/46/5
f 17/49/3 9/26/3 11/33/3 19/58/3
f 20/62/2 13/39/2 9/27/2 17/50/2
f 12/35/7 19/59/7 18/55/7 16/47/7
f 16/48/1 18/56/1 20/63/1 14/41/1
f 10/29/3 17/51/3 19/60/3 12/36/3
f 14/42/8 20/64/8 17/52/8 10/30/8
