# Blender 3.3.1
# www.blender.org
o Plane
v -12.596433 9.032856 12.596435
v 12.596433 9.032856 12.596435
v -12.596433 9.032860 -12.596431
v 12.596433 9.032860 -12.596431
v -12.596433 9.032856 12.596435
v -12.596433 9.032860 -12.596431
v -12.596433 -5.105953 12.596432
v 12.596433 -5.105953 12.596432
v -12.596433 -5.105949 -12.596434
v 12.596433 -5.105949 -12.596434
v -12.596433 -5.065753 12.596432
v -12.596433 -5.065749 -12.596434
v -12.596433 -3.009879 -10.540564
v -12.596433 6.976990 -10.540562
v -12.596433 6.976986 10.540564
v -12.596433 -3.009883 10.540562
v -12.596433 2.795438 -10.540563
v -12.596433 2.795434 10.540563
vn -0.0000 1.0000 -0.0000
vn -0.0000 -0.0000 1.0000
vn -0.0000 -0.0000 -1.0000
vn 1.0000 -0.0000 -0.0000
vn -1.0000 -0.0000 -0.0000
vt 0.263186 0.993545
vt 0.500000 0.500000
vt 0.028700 0.869459
vt 0.131299 0.993545
vt 0.021243 0.870453
vt 0.547716 0.872365
vt 0.263186 0.861658
vt 0.500000 0.500000
vt 0.551008 0.869483
vt 0.131299 0.861658
vt 0.051009 0.870651
vt 0.521231 0.873881
vt 0.500000 0.500000
vt 0.559621 0.883534
vt 0.280491 0.903856
vt 0.500000 0.500000
vt 0.001388 0.881235
vt 0.276782 0.899343
vt 0.030331 0.578176
vt 0.023167 0.589848
vt 0.549347 0.581081
vt 0.550352 0.588872
vt 0.050353 0.590041
vt 0.523155 0.593276
vt 0.288296 0.362326
vt 0.277195 0.327979
vt 0.360452 0.411357
vt 0.005125 0.822799
vt 0.936091 0.464235
vt 0.360160 0.816086
vt 0.556943 0.826576
vt 0.624574 0.465543
vt 0.202662 0.823751
vt 0.208191 0.440155
vt 0.936208 0.725081
vt 0.625674 0.722342
s 0
f 1/1/1 2/4/1 4/10/1 3/7/1
f 1/2/2 3/8/2 6/16/2 5/13/2
f 3/9/3 4/11/3 10/23/3 9/22/3
f 4/12/4 2/5/4 8/20/4 10/24/4
f 2/6/2 1/3/2 7/19/2 8/21/2
f 14/28/5 15/31/5 5/14/5 6/17/5
f 15/32/5 14/29/5 17/35/5 18/36/5
f 15/33/5 16/34/5 11/25/5 5/15/5
f 13/27/5 14/30/5 6/18/5 12/26/5
