# Blender 3.3.1
# www.blender.org
o Cube.019
v 3.679626 -3.121472 10.580592
v 3.679626 3.121472 10.580592
v -2.554782 -3.121472 10.906955
v -2.554782 3.121472 10.906955
v 2.554782 -3.121472 -10.906955
v 2.554782 3.121472 -10.906955
v -3.679626 -3.121472 -10.580592
v -3.679626 3.121472 -10.580592
v -3.679626 3.121472 -10.580592
v -3.679626 -3.121472 -10.580592
v 2.554782 -3.121472 -10.906955
v 2.554782 3.121472 -10.906955
v -2.554782 3.121472 10.906955
v 3.679626 -3.121472 10.580592
v -2.554782 -3.121472 10.906955
v 3.679626 3.121472 10.580592
v 2.554782 -3.121472 -10.906955
v 2.554782 3.121472 -10.906955
v 3.313612 -2.984401 -13.979284
v 3.313612 3.258542 -13.979284
v -3.679626 3.121472 -10.580592
v -3.679626 -3.121472 -10.580592
v -4.610403 2.948392 -13.347496
v -4.610403 -3.294551 -13.347496
v 3.679626 3.121472 10.580592
v -2.554782 3.121472 10.906955
v -3.679626 3.121472 -10.580592
v 2.554782 3.121472 -10.906955
v 3.679626 -3.121472 10.580592
v 3.679626 3.121472 10.580592
v 2.554782 3.121472 -10.906955
v 2.554782 -3.121472 -10.906955
v 4.728982 -3.121472 13.034185
v 4.728982 3.121472 13.034185
v 0.213799 3.121472 10.882441
v 0.213799 -3.121472 10.882441
vn -0.0000 1.0000 -0.0000
vn -0.9986 -0.0000 0.0523
vn -0.0000 -1.0000 -0.0000
vn 0.9708 -0.0000 0.2398
vn -0.9478 -0.0000 0.3188
vn 0.9986 -0.0000 -0.0523
vn -0.9194 -0.0000 0.3932
vn 0.0089 -0.0000 1.0000
vt 0.066188 0.963287
vt 0.680300 0.173469
vt 0.000000 0.500000
vt 0.340150 0.826531
vt 0.340150 0.173469
vt 1.009633 -0.002336
vt 0.069475 0.727909
vt 0.340150 0.500000
vt 1.007093 1.005458
vt 0.680300 0.826531
vt 0.680300 0.500000
vt 0.939777 0.966443
vt 0.000000 0.826531
vt 0.340150 0.500000
vt 0.943064 0.731064
vt 0.340150 0.826531
vt -0.012492 -0.001534
vt -0.015121 1.003659
vt 0.680300 0.500000
vt 0.680300 0.500000
vt -0.015121 1.003659
vt 0.340150 0.826531
vt -0.012492 -0.001534
vt 0.000000 0.826531
vt 0.680300 0.500000
vt 0.340150 0.500000
vt 1.007093 1.005458
vt 0.680300 0.826531
vt 0.654058 1.005458
vt 0.000000 0.500000
vt 0.680300 0.173469
vt 1.009633 -0.002336
vt 0.340150 0.500000
vt 0.656598 -0.002336
vt 0.340150 0.173469
vt 0.340150 0.826531
vt 0.651109 0.499757
vt 0.680300 0.500000
vt 0.652730 1.004259
vt 0.340150 0.500000
vt 0.482317 0.500565
vt 0.484022 1.002441
vt -0.015121 1.003659
vt 0.241799 1.003659
vt -0.012492 -0.001534
vt 0.253671 -0.005231
vt 0.019997 1.003659
vt 0.022627 -0.001534
vt 0.913271 0.990356
vt 0.340150 0.826531
vt 0.340150 0.173469
vt 1.007093 1.005458
vt 0.909612 0.589583
vt 0.680300 0.826531
vt -0.015121 1.003659
vt 0.036941 0.593095
vt 0.680300 0.500000
vt 0.040600 0.993869
vt 0.340150 0.500000
vt 0.003215 0.005180
vt 0.680300 0.173469
vt 0.000000 0.500000
vt 0.728968 0.314347
vt 0.003504 1.001271
vt 0.340150 0.173469
vt 0.746288 1.006128
vt 0.995055 1.000993
vt 0.340150 0.500000
vt 0.680300 0.500000
vt 0.994766 0.004902
vt 0.000000 0.826531
vt 0.433119 0.312941
vt 0.446740 1.004704
vt 1.007093 1.005458
vt 1.009633 -0.002336
s 0
f 4/9/1 3/6/1 15/32/1 13/27/1
f 3/6/2 4/9/2 8/18/2 7/17/2
f 6/14/1 5/11/1 11/25/1 12/26/1
f 5/11/1 6/14/1 31/68/1 32/69/1
f 3/7/3 7/15/3 5/12/3 1/1/3
f 8/18/1 4/9/1 26/52/1 27/55/1
f 3/8/1 1/3/1 14/30/1 15/33/1
f 5/13/1 7/16/1 10/22/1 11/24/1
f 8/19/1 6/14/1 12/26/1 9/20/1
f 7/17/1 8/18/1 9/21/1 10/23/1
f 1/2/1 2/5/1 16/35/1 14/31/1
f 18/39/4 17/37/4 19/41/4 20/42/4
f 2/4/1 4/10/1 13/28/1 16/36/1
f 12/26/1 11/25/1 17/38/1 18/40/1
f 10/23/1 9/21/1 21/43/1 22/45/1
f 22/46/5 21/44/5 23/47/5 24/48/5
f 27/56/1 26/53/1 25/49/1 28/58/1
f 6/14/1 8/19/1 27/57/1 28/59/1
f 4/10/1 2/4/1 25/50/1 26/54/1
f 2/5/1 6/14/1 28/59/1 25/51/1
f 32/70/6 31/67/6 30/64/6 29/60/6
f 2/5/1 1/2/1 29/61/1 30/65/1
f 1/3/1 5/13/1 32/71/1 29/62/1
f 6/14/1 2/5/1 30/65/1 31/68/1
f 30/66/7 29/63/7 33/72/7 34/73/7
f 13/29/8 15/34/8 36/75/8 35/74/8
