# Blender 3.3.1
# www.blender.org
o Cylinder.008
v -0.249892 -4.888414 -0.102758
v -0.249892 -4.229136 -0.102758
v -0.166706 -4.888414 -0.089583
v -0.166706 -4.229136 -0.089583
v -0.091663 -4.888414 -0.051347
v -0.091663 -4.229136 -0.051347
v -0.032108 -4.888414 0.008208
v -0.032108 -4.229136 0.008208
v 0.006128 -4.888414 0.083251
v 0.006128 -4.229136 0.083251
v 0.019303 -4.888414 0.166437
v 0.019303 -4.229136 0.166437
v 0.006128 -4.888414 0.249623
v 0.006128 -4.229136 0.249623
v -0.032108 -4.888414 0.324667
v -0.032108 -4.229136 0.324667
v -0.091663 -4.888414 0.384221
v -0.091663 -4.229136 0.384221
v -0.166706 -4.888414 0.422458
v -0.166706 -4.229136 0.422458
v -0.249892 -4.888414 0.435633
v -0.249892 -4.229136 0.435633
v -0.333078 -4.888414 0.422458
v -0.333078 -4.229136 0.422458
v -0.408122 -4.888414 0.384221
v -0.408122 -4.229136 0.384221
v -0.467676 -4.888414 0.324667
v -0.467676 -4.229136 0.324667
v -0.505913 -4.888414 0.249623
v -0.505913 -4.229136 0.249623
v -0.519088 -4.888414 0.166437
v -0.519088 -4.229136 0.166437
v -0.505913 -4.888414 0.083251
v -0.505913 -4.229136 0.083251
v -0.467676 -4.888414 0.008208
v -0.467676 -4.229136 0.008208
v -0.408122 -4.888414 -0.051347
v -0.408122 -4.229136 -0.051347
v -0.333078 -4.888414 -0.089583
v -0.333078 -4.229136 -0.089583
v -0.467676 -4.229136 0.008208
v -0.408122 -4.229136 -0.051347
v -0.211947 4.895674 0.049658
v -0.249891 4.895674 0.043649
v -0.177717 4.895674 0.067099
v -0.150551 4.895674 0.094265
v -0.133110 4.895674 0.128495
v -0.127100 4.895674 0.166439
v -0.133110 4.895674 0.204384
v -0.150551 4.895674 0.238614
v -0.177717 4.895674 0.265779
v -0.211947 4.895674 0.283220
v -0.249891 4.895674 0.289230
v -0.287836 4.895674 0.283220
v -0.322066 4.895674 0.265779
v -0.349231 4.895674 0.238614
v -0.366672 4.895674 0.204384
v -0.372682 4.895674 0.166439
v -0.366672 4.895674 0.128495
v -0.349231 4.895674 0.094265
v -0.322066 4.895674 0.067099
v -0.287836 4.895674 0.049658
vn 0.1564 -0.0000 -0.9877
vn 0.4540 -0.0000 -0.8910
vn 0.7071 -0.0000 -0.7071
vn 0.8910 -0.0000 -0.4540
vn 0.9877 -0.0000 -0.1564
vn 0.9877 -0.0000 0.1564
vn 0.8910 -0.0000 0.4540
vn 0.7071 -0.0000 0.7071
vn 0.4540 -0.0000 0.8910
vn 0.1564 -0.0000 0.9877
vn -0.1564 -0.0000 0.9877
vn -0.4540 -0.0000 0.8910
vn -0.7071 -0.0000 0.7071
vn -0.8910 -0.0000 0.4540
vn -0.9877 -0.0000 0.1564
vn -0.9877 -0.0000 -0.1564
vn -0.8910 -0.0000 -0.4540
vn -0.7071 -0.0000 -0.7071
vn 0.1564 0.0158 0.9876
vn -0.4540 -0.0000 -0.8910
vn -0.1564 -0.0000 -0.9877
vn -0.0000 -1.0000 -0.0000
vn -0.0000 1.0000 -0.0000
vn -0.0000 -0.0000 -1.0000
vn -0.0000 1.0000 -0.0001
vn -0.9876 0.0158 0.1564
vn -0.1564 0.0158 -0.9876
vn 0.7070 0.0158 -0.7070
vn 0.7070 0.0158 0.7070
vn 0.1564 0.0158 -0.9876
vn -0.7070 0.0158 0.7070
vn -0.7070 0.0158 -0.7070
vn 0.9876 0.0158 0.1564
vn -0.1564 0.0158 0.9876
vn -0.9876 0.0158 -0.1564
vn 0.8909 0.0158 -0.4539
vn 0.4539 0.0158 0.8909
vn -0.8909 0.0158 0.4539
vn -0.4539 0.0158 -0.8909
vn 0.4539 0.0158 -0.8909
vn 0.8909 0.0158 0.4539
vn -0.4539 0.0158 0.8909
vn -0.8909 0.0158 -0.4539
vn 0.9876 0.0158 -0.1564
vt 0.000000 0.999905
vt 0.142816 0.999935
vt 0.193458 0.276269
vt 0.000000 0.932531
vt 0.142816 0.932564
vt 0.874763 0.962137
vt 0.840999 0.962105
vt 0.008684 0.999929
vt 0.190201 0.266246
vt 0.008684 0.932558
vt 0.849683 0.962132
vt 0.827503 0.962132
vt 0.018789 0.999943
vt 0.190201 0.255706
vt 0.018789 0.932570
vt 0.837607 0.962143
vt 0.029324 0.999941
vt 0.193458 0.245683
vt 0.029324 0.932570
vt 0.848143 0.962143
vt 0.039260 0.999926
vt 0.199653 0.237156
vt 0.039260 0.932554
vt 0.858079 0.962128
vt 0.047624 0.999899
vt 0.142816 0.999901
vt 0.208179 0.230961
vt 0.047624 0.932528
vt 0.142816 0.932529
vt 0.847038 0.962103
vt 0.866443 0.962101
vt 0.150657 0.999937
vt 0.218203 0.227704
vt 0.150657 0.932566
vt 0.854878 0.962139
vt 0.832698 0.962139
vt 0.160290 0.999960
vt 0.228742 0.227704
vt 0.160290 0.932589
vt 0.842331 0.962162
vt 0.170773 0.999966
vt 0.238766 0.230961
vt 0.170773 0.932594
vt 0.852814 0.962168
vt 0.181080 0.999954
vt 0.247293 0.237156
vt 0.181080 0.932583
vt 0.863121 0.962156
vt 0.190201 0.999926
vt 0.047624 0.999920
vt 0.253487 0.245683
vt 0.190201 0.932554
vt 0.047624 0.932549
vt 0.872242 0.962128
vt 0.827627 0.963970
vt 0.055878 0.999969
vt 0.256744 0.255706
vt 0.055878 0.932598
vt 0.835881 0.964020
vt 0.065753 0.999996
vt 0.256744 0.266246
vt 0.065753 0.932625
vt 0.845757 0.964047
vt 0.076283 1.000000
vt 0.253488 0.276269
vt 0.076283 0.932629
vt 0.856286 0.964051
vt 0.086437 0.999979
vt 0.247293 0.284796
vt 0.086437 0.932608
vt 0.866440 0.964030
vt 0.095220 0.999920
vt 0.238766 0.290991
vt 0.095220 0.932549
vt 0.875224 0.963986
vt 0.827166 0.962122
vt 0.103474 0.999969
vt 0.228742 0.294248
vt 0.103474 0.932598
vt 0.835421 0.962172
vt 0.113349 0.999996
vt 0.218203 0.294248
vt 0.113349 0.932625
vt 0.190201 0.227704
vt 0.845296 0.962198
vt 0.123879 1.000000
vt 0.208179 0.290991
vt 0.123879 0.932629
vt 0.190201 0.227704
vt 0.855826 0.962202
vt 0.134033 0.999979
vt 0.199653 0.284796
vt 0.134033 0.932608
vt 0.865979 0.962181
vt 0.190201 0.227704
vt 0.190201 0.227704
vt 0.216243 0.298559
vt 0.857575 0.029587
vt 0.835395 0.029587
vt 0.219068 0.302448
vt 0.862374 0.029581
vt 0.853614 0.029575
vt 0.212353 0.295733
vt 0.840004 0.029593
vt 0.207781 0.294248
vt 0.844810 0.029593
vt 0.202974 0.294248
vt 0.849342 0.029587
vt 0.198402 0.295733
vt 0.861262 0.029574
vt 0.853157 0.029574
vt 0.194512 0.298559
vt 0.864838 0.029591
vt 0.842658 0.029591
vt 0.191687 0.302448
vt 0.847052 0.029600
vt 0.190201 0.307021
vt 0.851834 0.029602
vt 0.190201 0.311828
vt 0.856535 0.029598
vt 0.860696 0.029585
vt 0.191687 0.316400
vt 0.841124 0.031422
vt 0.194512 0.320289
vt 0.844889 0.031445
vt 0.198402 0.323115
vt 0.849393 0.031456
vt 0.202974 0.324601
vt 0.854196 0.031458
vt 0.207781 0.324601
vt 0.858828 0.031449
vt 0.212353 0.323115
vt 0.862834 0.031430
vt 0.840663 0.029574
vt 0.216243 0.320289
vt 0.844428 0.029596
vt 0.219068 0.316400
vt 0.848933 0.029608
vt 0.220554 0.311828
vt 0.853736 0.029610
vt 0.220554 0.307021
vt 0.858367 0.029600
s 0
f 1/1/1 2/4/1 4/10/1 3/8/1
f 3/8/2 4/10/2 6/15/2 5/13/2
f 5/13/3 6/15/3 8/19/3 7/17/3
f 7/17/4 8/19/4 10/23/4 9/21/4
f 9/21/5 10/23/5 12/28/5 11/25/5
f 11/26/6 12/29/6 14/34/6 13/32/6
f 13/32/7 14/34/7 16/39/7 15/37/7
f 15/37/8 16/39/8 18/43/8 17/41/8
f 17/41/9 18/43/9 20/47/9 19/45/9
f 19/45/10 20/47/10 22/52/10 21/49/10
f 21/50/11 22/53/11 24/58/11 23/56/11
f 23/56/12 24/58/12 26/62/12 25/60/12
f 25/60/13 26/62/13 28/66/13 27/64/13
f 27/64/14 28/66/14 30/70/14 29/68/14
f 29/68/15 30/70/15 32/74/15 31/72/15
f 31/72/16 32/74/16 34/79/16 33/77/16
f 33/77/17 34/79/17 36/83/17 35/81/17
f 35/81/18 36/83/18 38/88/18 37/86/18
f 22/54/19 20/48/19 52/120/19 53/121/19
f 37/86/20 38/88/20 40/93/20 39/91/20
f 39/91/21 40/93/21 2/5/21 1/2/21
f 1/3/22 3/9/22 5/14/22 7/18/22 9/22/22 11/27/22 13/33/22 15/38/22 17/42/22 19/46/22 21/51/22 23/57/22 25/61/22 27/65/22 29/69/22 31/73/22 33/78/22 35/82/22 37/87/22 39/92/22
f 36/84/23 38/89/24 42/96/25 41/95/24
f 43/97/23 44/100/23 62/141/23 61/139/23 60/137/23 59/135/23 58/132/23 57/130/23 56/128/23 55/126/23 54/124/23 53/122/23 52/119/23 51/117/23 50/115/23 49/112/23 48/109/23 47/107/23 46/105/23 45/103/23
f 32/75/26 30/71/26 57/131/26 58/133/26
f 2/6/27 40/94/27 62/142/27 44/101/27
f 8/20/28 6/16/28 45/104/28 46/106/28
f 18/44/29 16/40/29 50/116/29 51/118/29
f 4/11/30 2/7/30 44/102/30 43/98/30
f 28/67/31 26/63/31 55/127/31 56/129/31
f 38/90/32 36/85/32 60/138/32 61/140/32
f 14/35/33 12/30/33 48/110/33 49/113/33
f 24/59/34 22/55/34 53/123/34 54/125/34
f 34/80/35 32/76/35 58/134/35 59/136/35
f 10/24/36 8/20/36 46/106/36 47/108/36
f 20/48/37 18/44/37 51/118/37 52/120/37
f 30/71/38 28/67/38 56/129/38 57/131/38
f 40/94/39 38/90/39 61/140/39 62/142/39
f 6/16/40 4/12/40 43/99/40 45/104/40
f 16/40/41 14/36/41 49/114/41 50/116/41
f 26/63/42 24/59/42 54/125/42 55/127/42
f 36/85/43 34/80/43 59/136/43 60/138/43
f 12/31/44 10/24/44 47/108/44 48/111/44
o Cylinder.001
v -0.392262 1.669047 0.513141
v -0.392262 2.782459 0.513141
v 0.054736 1.669047 0.001460
v 0.054736 2.782459 0.001460
v -0.200195 1.669047 0.680929
v -0.200195 2.782459 0.680929
v 0.246804 1.669047 0.169248
v 0.246804 2.782459 0.169248
vn -0.7531 -0.0000 -0.6579
vn 0.6579 -0.0000 -0.7531
vn 0.7531 -0.0000 0.6579
vn -0.6579 -0.0000 0.7531
vn -0.0000 -1.0000 -0.0000
vn -0.0000 1.0000 -0.0000
vt 0.588928 0.669173
vt 0.516842 0.656164
vt 0.514610 0.810833
vt 0.588928 0.782952
vt 0.516842 0.769943
vt 0.560971 0.767351
vt 0.504420 0.669102
vt 0.572033 0.707175
vt 0.514610 0.725811
vt 0.504420 0.782882
vt 0.572033 0.820956
vt 0.560971 0.682329
vt 0.003325 0.677384
vt 0.548563 0.656191
vt 0.546524 0.810833
vt 0.003325 1.000370
vt 0.548563 0.769970
vt 0.529056 0.767351
vt 0.540146 0.707170
vt 0.227968 0.677541
vt 0.546524 0.725811
vt 0.540146 0.820951
vt 0.227968 1.000527
vt 0.529056 0.682329
s 0
f 63/143/45 64/146/45 66/152/45 65/149/45
f 65/150/46 66/153/46 70/164/46 69/161/46
f 69/162/47 70/165/47 68/158/47 67/155/47
f 67/156/48 68/159/48 64/147/48 63/144/48
f 65/151/49 69/163/49 67/157/49 63/145/49
f 70/166/50 66/154/50 64/148/50 68/160/50
o Cylinder.002
v -0.749206 4.548037 0.132559
v -0.749206 4.671309 0.132559
v 1.210535 4.548037 -0.642595
v 1.210535 4.671309 -0.642595
v -0.717087 4.548037 0.213763
v -0.717087 4.671309 0.213763
v 1.242654 4.548037 -0.561392
v 1.242654 4.671309 -0.561392
vn -0.3678 -0.0000 -0.9299
vn 0.9299 -0.0000 -0.3678
vn 0.3678 -0.0000 0.9299
vn -0.9299 -0.0000 0.3678
vn -0.0000 -1.0000 -0.0000
vn -0.0000 1.0000 -0.0000
vt 0.892015 0.388153
vt 0.304381 0.340096
vt 0.902438 0.018483
vt 0.904611 0.388190
vt 0.304381 0.327499
vt 0.906297 0.609365
vt 0.892015 0.634411
vt 0.886890 0.525803
vt 0.902438 0.282207
vt 0.904611 0.634447
vt 0.886890 0.513205
vt 0.906297 0.345641
vt 0.890507 0.560212
vt 0.294178 0.340126
vt 0.891510 0.018483
vt 0.903105 0.560233
vt 0.294178 0.327528
vt 0.895370 0.609365
vt 0.896802 0.525784
vt 0.890507 0.308674
vt 0.891510 0.282207
vt 0.896802 0.513186
vt 0.903105 0.308695
vt 0.895370 0.345641
s 0
f 71/167/51 72/170/51 74/176/51 73/173/51
f 73/174/52 74/177/52 78/188/52 77/185/52
f 77/186/53 78/189/53 76/182/53 75/179/53
f 75/180/54 76/183/54 72/171/54 71/168/54
f 73/175/55 77/187/55 75/181/55 71/169/55
f 78/190/56 74/178/56 72/172/56 76/184/56
o Cylinder.003
v 0.420818 4.652656 -0.461265
v 0.420818 4.951190 -0.461265
v 0.553339 4.652656 -0.356036
v 0.553339 4.951190 -0.356036
v 0.395948 4.652656 -0.293884
v 0.395948 4.951190 -0.293884
v 0.418930 4.270468 -0.460518
v 0.418930 4.569002 -0.460518
v 0.551451 4.270468 -0.355289
v 0.551451 4.569002 -0.355289
v 0.394060 4.270468 -0.293137
v 0.394060 4.569002 -0.293137
v 0.437376 4.528764 -0.413807
v 0.437376 4.673837 -0.413807
v 0.501775 4.528764 -0.362671
v 0.501775 4.673837 -0.362671
v 0.425290 4.528764 -0.332467
v 0.425290 4.673837 -0.332467
vn 0.6219 -0.0000 -0.7831
vn 0.3673 -0.0000 0.9301
vn -0.0000 1.0000 -0.0000
vn -0.9891 -0.0000 -0.1470
vn -0.0000 -1.0000 -0.0000
vn 0.6218 -0.0000 -0.7831
vt 0.316432 0.936397
vt 0.315892 0.936656
vt 0.371817 0.084702
vt 0.316432 0.966905
vt 0.349637 0.933255
vt 0.315892 0.967163
vt 0.295339 0.936390
vt 0.277853 0.956016
vt 0.353478 0.074114
vt 0.295339 0.966898
vt 0.277853 0.925508
vt 0.331298 0.943843
vt 0.298046 0.955984
vt 0.332349 0.936758
vt 0.371817 0.063527
vt 0.298046 0.925476
vt 0.349637 0.954431
vt 0.332349 0.967264
vt 0.360792 0.944697
vt 0.290015 0.920836
vt 0.296180 0.940307
vt 0.360792 0.975205
vt 0.371817 0.021176
vt 0.290015 0.951342
vt 0.339699 0.944689
vt 0.354486 0.962327
vt 0.314518 0.929720
vt 0.339699 0.975197
vt 0.354486 0.931819
vt 0.353478 0.031763
vt 0.374680 0.962295
vt 0.306472 0.920937
vt 0.314518 0.950895
vt 0.374680 0.931787
vt 0.371817 0.042351
vt 0.306472 0.951443
vt 0.273201 0.303753
vt 0.294178 0.340124
vt 0.362390 0.109866
vt 0.273201 0.318579
vt 0.219306 0.352059
vt 0.294178 0.354950
vt 0.262951 0.303749
vt 0.294178 0.327497
vt 0.353478 0.104721
vt 0.262951 0.318575
vt 0.294178 0.312672
vt 0.210394 0.357204
vt 0.303991 0.327482
vt 0.302175 0.340174
vt 0.362390 0.099576
vt 0.303991 0.312656
vt 0.219306 0.362349
vt 0.302175 0.354998
s 0
f 79/191/57 80/194/57 82/200/57 81/197/57
f 81/198/58 82/201/58 84/206/58 83/203/58
f 82/202/59 80/195/59 84/207/59
f 83/204/60 84/208/60 80/196/60 79/192/60
f 79/193/61 81/199/61 83/205/61
f 85/209/57 86/212/57 88/218/57 87/215/57
f 87/216/58 88/219/58 90/224/58 89/221/58
f 88/220/59 86/213/59 90/225/59
f 89/222/60 90/226/60 86/214/60 85/210/60
f 85/211/61 87/217/61 89/223/61
f 91/227/62 92/230/62 94/236/62 93/233/62
f 93/234/58 94/237/58 96/242/58 95/239/58
f 94/238/59 92/231/59 96/243/59
f 95/240/60 96/244/60 92/232/60 91/228/60
f 91/229/61 93/235/61 95/241/61
o Cylinder.004
v 0.807370 4.652656 -0.614161
v 0.807370 4.951190 -0.614161
v 0.939891 4.652656 -0.508933
v 0.939891 4.951190 -0.508933
v 0.782499 4.652656 -0.446780
v 0.782499 4.951190 -0.446780
v 0.825816 4.528764 -0.567450
v 0.825816 4.673837 -0.567450
v 0.890215 4.528764 -0.516314
v 0.890215 4.673837 -0.516314
v 0.813730 4.528764 -0.486111
v 0.813730 4.673837 -0.486111
v 0.807370 4.270468 -0.614161
v 0.807370 4.569002 -0.614161
v 0.939891 4.270468 -0.508933
v 0.939891 4.569002 -0.508933
v 0.782499 4.270468 -0.446780
v 0.782499 4.569002 -0.446780
vn 0.6218 -0.0000 -0.7831
vn 0.3673 -0.0000 0.9301
vn -0.0000 1.0000 -0.0000
vn -0.9891 -0.0000 -0.1470
vn -0.0000 -1.0000 -0.0000
vt 0.317429 0.935633
vt 0.392134 0.236042
vt 0.324768 0.364306
vt 0.317429 0.966142
vt 0.381239 0.943914
vt 0.392134 0.266548
vt 0.296336 0.935626
vt 0.277681 0.966091
vt 0.306429 0.353718
vt 0.296336 0.966134
vt 0.277681 0.935583
vt 0.362900 0.954502
vt 0.297874 0.966058
vt 0.408591 0.236143
vt 0.324768 0.343130
vt 0.297874 0.935550
vt 0.381239 0.965090
vt 0.408591 0.266649
vt 0.273201 0.288923
vt 0.353478 0.084702
vt 0.362390 0.130447
vt 0.273201 0.303749
vt 0.362390 0.109866
vt 0.353478 0.099527
vt 0.262951 0.288919
vt 0.210394 0.339441
vt 0.353478 0.125302
vt 0.262951 0.303745
vt 0.210394 0.324615
vt 0.353478 0.115011
vt 0.220208 0.339426
vt 0.361476 0.084751
vt 0.362390 0.120157
vt 0.220208 0.324600
vt 0.362390 0.120157
vt 0.361476 0.099575
vt 0.353309 0.939330
vt 0.309136 0.942111
vt 0.401375 0.928120
vt 0.353309 0.969838
vt 0.349962 0.348746
vt 0.309136 0.972617
vt 0.332216 0.939323
vt 0.302950 0.966944
vt 0.370098 0.956347
vt 0.332216 0.969831
vt 0.302950 0.936436
vt 0.331623 0.359334
vt 0.323144 0.966912
vt 0.325593 0.942212
vt 0.388437 0.945759
vt 0.323144 0.936404
vt 0.349962 0.369921
vt 0.325593 0.972718
s 0
f 97/245/63 98/248/63 100/254/63 99/251/63
f 99/252/64 100/255/64 102/260/64 101/257/64
f 100/256/65 98/249/65 102/261/65
f 101/258/66 102/262/66 98/250/66 97/246/66
f 97/247/67 99/253/67 101/259/67
f 103/263/63 104/266/63 106/272/63 105/269/63
f 105/270/64 106/273/64 108/278/64 107/275/64
f 106/274/65 104/267/65 108/279/65
f 107/276/66 108/280/66 104/268/66 103/264/66
f 103/265/67 105/271/67 107/277/67
f 109/281/63 110/284/63 112/290/63 111/287/63
f 111/288/64 112/291/64 114/296/64 113/293/64
f 112/292/65 110/285/65 114/297/65
f 113/294/66 114/298/66 110/286/66 109/282/66
f 109/283/67 111/289/67 113/295/67
