# Blender 3.3.1
# www.blender.org
o Cube.053
v -30.377293 -5.986076 -0.970096
v -30.377293 5.986076 -0.970096
v -30.382523 -5.986076 0.789533
v -30.382523 5.986076 0.789533
v 30.382523 -5.986076 -0.789533
v 30.382523 5.986076 -0.789533
v 30.377293 -5.986076 0.970096
v 30.377293 5.986076 0.970096
v -30.382523 5.986076 0.789533
v -30.382523 -5.986076 0.789533
v 30.377293 -5.986076 0.970096
v 30.377293 5.986076 0.970096
vn -1.0000 -0.0000 -0.0030
vn -0.0000 1.0000 -0.0000
vn 1.0000 -0.0000 0.0030
vn 0.0030 -0.0000 -1.0000
vn -0.0000 -1.0000 -0.0000
vn -0.0030 -0.0000 1.0000
vt 0.910233 0.013911
vt -1.499392 0.010759
vt 0.656305 0.000000
vt 0.910233 0.998131
vt -1.501556 1.002466
vt 0.822487 0.973100
vt 0.765556 0.013911
vt 0.704543 0.000000
vt 0.822074 0.924449
vt 0.765556 0.998131
vt 0.728851 0.002271
vt 2.493183 0.010472
vt 0.656305 1.000000
vt 0.728852 1.008064
vt 2.498412 0.998483
vt 0.176858 0.973849
vt 0.876700 0.002271
vt 0.704543 1.000000
vt 0.176445 0.925198
vt 0.876700 1.008064
vt 0.822074 0.924449
vt -1.515642 0.995673
vt 0.765556 0.998131
vt -1.484816 -0.003400
vt 0.765556 0.013911
vt 0.704543 0.000000
vt 2.514745 0.004327
vt 0.876700 0.002271
vt 0.704543 1.000000
vt 0.176445 0.925198
vt 2.483919 1.003400
vt 0.876700 1.008064
s 0
f 1/1/1 3/7/1 4/10/1 2/4/1
f 4/9/2 9/21/2 12/30/2 8/19/2
f 7/17/3 5/11/3 6/14/3 8/20/3
f 5/12/4 1/2/4 2/5/4 6/15/4
f 3/8/5 1/3/5 5/13/5 7/18/5
f 8/19/2 6/16/2 2/6/2 4/9/2
f 10/24/6 11/27/6 12/31/6 9/22/6
f 3/7/2 10/25/2 9/23/2 4/10/2
f 8/20/2 12/32/2 11/28/2 7/17/2
f 7/18/2 11/29/2 10/26/2 3/8/2
