# Blender v3.3.1 OBJ File: ''
# www.blender.org
o Cube.030
v -4.766429 -2.704028 0.052986
v -4.766429 2.704028 0.052986
v -4.753728 2.704028 -0.351742
v -4.753728 -2.704028 -0.351742
v 4.766429 2.704028 -0.052986
v 4.766429 -2.704028 -0.052986
v 4.753728 2.704028 0.351742
v 4.753728 -2.704028 0.351742
v -4.771883 3.261261 0.226803
v -4.748273 3.261261 -0.525566
v 4.771884 3.261261 -0.226809
v 4.748273 3.261261 0.525559
vt 0.049252 1.001642
vt 0.048260 -0.005912
vt 0.144322 -0.006007
vt 0.145313 1.001547
vt 0.006504 0.999487
vt 0.001654 0.005352
vt 0.993257 0.000514
vt 0.998108 0.994648
vt 0.337769 1.007136
vt 0.338958 -0.002048
vt 0.410265 -0.001833
vt 0.409076 1.007351
vt 0.004672 0.996291
vt 0.011561 -0.003126
vt 1.003153 0.003709
vt 0.996264 1.003126
vt 0.523256 0.004192
vt 0.523256 0.995808
vt 0.507877 0.995808
vt 0.507877 0.004192
vt 0.408529 0.781408
vt 0.457845 0.781408
vt 0.479025 0.849274
vt 0.387348 0.849274
vt 0.022562 0.827914
vt 1.014145 0.819994
vt 1.014374 0.848582
vt 0.022790 0.856502
vt 0.835357 0.833290
vt 0.063467 0.835127
vt 0.063368 0.793687
vt 0.835258 0.791849
vt 0.997152 0.829719
vt 0.005578 0.820636
vt 0.005779 0.798720
vt 0.997352 0.807802
vt 0.316972 0.783497
vt 0.360867 0.783497
vt 0.379719 0.843901
vt 0.298121 0.843901
vn -0.9995 -0.0000 -0.0314
vn 0.0314 0.0000 -0.9995
vn 0.9995 0.0000 0.0314
vn -0.0314 -0.0000 0.9995
vn 0.0000 -1.0000 0.0000
vn 0.0000 1.0000 0.0000
vn -0.0299 -0.2979 0.9541
vn 0.0299 -0.2979 -0.9541
s 1
f 1/1/1 2/2/1 3/3/1 4/4/1
f 4/5/2 3/6/2 5/7/2 6/8/2
f 6/9/3 5/10/3 7/11/3 8/12/3
f 8/13/4 7/14/4 2/15/4 1/16/4
f 4/17/5 6/18/5 8/19/5 1/20/5
f 3/21/1 2/22/1 9/23/1 10/24/1
f 11/25/6 10/26/6 9/27/6 12/28/6
f 2/29/7 7/30/7 12/31/7 9/32/7
f 5/33/8 3/34/8 10/35/8 11/36/8
f 7/37/3 5/38/3 11/39/3 12/40/3
