# Blender 3.3.1
# www.blender.org
o Cube.040
v -0.066722 -0.080900 1.876714
v -0.066722 0.080900 1.876714
v 0.066722 -0.080900 1.876714
v 0.066722 0.080900 1.876714
v -0.066722 0.855787 4.059612
v -0.066722 1.017587 4.059612
v 0.066722 1.017587 4.059612
v 0.066722 0.855787 4.059612
vn -1.0000 -0.0000 -0.0000
vn -0.0000 -0.0000 1.0000
vn -0.0000 -0.9190 0.3943
vn -0.0000 0.9190 -0.3943
vn 1.0000 -0.0000 -0.0000
vt 0.204780 0.377538
vt 0.188054 0.427717
vt 0.221506 0.377538
vt 0.238233 0.427717
vt 0.204780 0.427717
vt 0.221506 0.427717
vt 0.204780 0.377538
vt 0.204780 0.444443
vt 0.188054 0.427717
vt 0.221506 0.377538
vt 0.221506 0.444443
vt 0.238233 0.427717
vt 0.221506 0.427717
vt 0.204780 0.427717
s 0
f 2/3/1 1/1/1 5/7/1 6/10/1
f 8/14/2 7/13/2 6/11/2 5/8/2
f 1/2/3 3/5/3 8/14/3 5/9/3
f 4/6/4 2/4/4 6/12/4 7/13/4
f 3/5/5 4/6/5 7/13/5 8/14/5
o Cube.001
v -0.066722 -0.080900 -1.876714
v -0.066722 0.080900 -1.876714
v 0.066722 -0.080900 -1.876714
v 0.066722 0.080900 -1.876714
v -0.066722 1.233220 -3.741976
v -0.066722 1.071420 -3.741976
v 0.066722 1.071420 -3.741976
v 0.066722 1.233220 -3.741976
vn 1.0000 -0.0000 -0.0000
vn -0.0000 -0.0000 -1.0000
vn -0.0000 -0.8507 -0.5256
vn -0.0000 0.8507 0.5256
vn -1.0000 -0.0000 -0.0000
vt 0.188054 0.410991
vt 0.204780 0.394264
vt 0.238233 0.410991
vt 0.221506 0.394264
vt 0.204780 0.410991
vt 0.221506 0.410991
vt 0.238233 0.410991
vt 0.221506 0.394264
vt 0.188054 0.410991
vt 0.204780 0.394264
vt 0.204780 0.410991
vt 0.221506 0.410991
s 0
f 12/20/6 11/19/6 15/25/6 16/26/6
f 14/24/7 13/22/7 16/26/7 15/25/7
f 11/19/8 9/15/8 14/23/8 15/25/8
f 10/17/9 12/20/9 16/26/9 13/21/9
f 9/16/10 10/18/10 13/22/10 14/24/10
o Cube.002
v -0.066722 -0.080900 1.876714
v -0.066722 0.080900 1.876714
v -0.066722 -0.080900 -1.876714
v -0.066722 0.080900 -1.876714
v 0.066722 -0.080900 1.876714
v 0.066722 0.080900 1.876714
v 0.066722 -0.080900 -1.876714
v 0.066722 0.080900 -1.876714
vn -1.0000 -0.0000 -0.0000
vn 1.0000 -0.0000 -0.0000
vn -0.0000 -1.0000 -0.0000
vn -0.0000 1.0000 -0.0000
vt 0.204780 0.377538
vt 0.188054 0.427717
vt 0.221506 0.377538
vt 0.238233 0.427717
vt 0.204780 0.394264
vt 0.188054 0.410991
vt 0.221506 0.394264
vt 0.238233 0.410991
vt 0.204780 0.427717
vt 0.221506 0.427717
vt 0.204780 0.410991
vt 0.221506 0.410991
s 0
f 17/27/11 18/29/11 20/33/11 19/31/11
f 23/37/12 24/38/12 22/36/12 21/35/12
f 19/32/13 23/37/13 21/35/13 17/28/13
f 24/38/14 20/34/14 18/30/14 22/36/14
