# Blender 3.3.1
# www.blender.org
o Cube.040
v -0.066722 -0.080900 1.876714
v -0.066722 0.080900 1.876714
v -0.066722 -0.080900 -1.876714
v -0.066722 0.080900 -1.876714
v 0.066722 -0.080900 1.876714
v 0.066722 0.080900 1.876714
v 0.066722 -0.080900 -1.876714
v 0.066722 0.080900 -1.876714
v -0.066722 0.855788 4.059612
v -0.066722 1.017588 4.059612
v 0.066722 1.017588 4.059612
v 0.066722 0.855788 4.059612
v -0.066722 1.233219 -3.741976
v -0.066722 1.071419 -3.741976
v 0.066722 1.071419 -3.741976
v 0.066722 1.233219 -3.741976
vn -1.0000 -0.0000 -0.0000
vn 1.0000 -0.0000 -0.0000
vn -0.0000 -1.0000 -0.0000
vn -0.0000 1.0000 -0.0000
vn -0.0000 -0.0000 1.0000
vn -0.0000 -0.9190 0.3943
vn -0.0000 0.9190 -0.3943
vn -0.0000 -0.0000 -1.0000
vn -0.0000 -0.8507 -0.5256
vn -0.0000 0.8507 0.5256
vt 0.204780 0.377538
vt 0.188054 0.427717
vt 0.221506 0.377538
vt 0.238233 0.427717
vt 0.188054 0.410991
vt 0.204780 0.394264
vt 0.238233 0.410991
vt 0.221506 0.394264
vt 0.204780 0.427717
vt 0.221506 0.427717
vt 0.204780 0.410991
vt 0.221506 0.410991
vt 0.204780 0.377538
vt 0.204780 0.444443
vt 0.188054 0.427717
vt 0.221506 0.377538
vt 0.221506 0.444443
vt 0.238233 0.427717
vt 0.221506 0.427717
vt 0.204780 0.427717
vt 0.238233 0.410991
vt 0.221506 0.394264
vt 0.188054 0.410991
vt 0.204780 0.394264
vt 0.204780 0.410991
vt 0.221506 0.410991
s 0
f 1/1/1 2/3/1 4/8/1 3/6/1
f 8/12/2 7/11/2 15/25/2 16/26/2
f 7/11/2 8/12/2 6/10/2 5/9/2
f 2/3/1 1/1/1 9/13/1 10/16/1
f 3/5/3 7/11/3 5/9/3 1/2/3
f 8/12/4 4/7/4 2/4/4 6/10/4
f 12/20/5 11/19/5 10/17/5 9/14/5
f 1/2/6 5/9/6 12/20/6 9/15/6
f 6/10/7 2/4/7 10/18/7 11/19/7
f 5/9/2 6/10/2 11/19/2 12/20/2
f 14/24/8 13/22/8 16/26/8 15/25/8
f 7/11/9 3/5/9 14/23/9 15/25/9
f 4/7/10 8/12/10 16/26/10 13/21/10
f 3/6/1 4/8/1 13/22/1 14/24/1
